<svg version="1.2" xmlns="http://www.w3.org/2000/svg" viewBox="0 0 803 250" width="803" height="250">
	<title>amazon-2-logo-svgrepo-com</title>
	<style>
		.s0 { fill: #ff9900 } 
		.s1 { fill: #000000 } 
	</style>
	<g>
		<path fill-rule="evenodd" class="s0" d="m497.7 192.3c-46.3 34.3-113.7 52.5-171.8 52.5-81.4 0-154.4-30-210-80-4.2-3.9-0.5-9.2 4.8-6.2 59.8 34.9 133.6 55.6 210 55.6 51.3 0 108-10.6 160.2-32.8 7.9-3.1 14.4 5.3 6.8 10.9z"/>
		<path fill-rule="evenodd" class="s0" d="m517.1 170.2c-5.9-7.6-39.3-3.7-54.2-1.7-4.5 0.5-5.4-3.4-1.1-6.2 26.6-18.8 70.1-13.2 75.2-7 5 6.2-1.4 49.9-26.4 70.7-3.9 3.1-7.6 1.4-5.9-2.8 5.6-14 18.2-45.2 12.4-53z"/>
		<path fill-rule="evenodd" class="s1" d="m463.7 30.4v-18.3c0-2.8 2-4.5 4.5-4.5h81.4c2.5 0 4.8 2 4.8 4.5v15.5c0 2.5-2.3 5.9-6.2 11.5l-42.1 60c15.7-0.2 32.3 2 46.3 9.9 3.1 1.6 4 4.5 4.2 7v19.4c0 2.8-2.8 5.8-5.9 4.2-24.9-13.2-58.3-14.6-85.9 0.2-2.8 1.4-5.9-1.4-5.9-4.2v-18.5c0-2.8 0-7.9 3.1-12.3l48.9-69.9h-42.4c-2.5 0-4.8-2-4.8-4.5zm-296.7 113.1h-24.7c-2.2-0.3-4.2-2-4.5-4.2v-126.9c0-2.5 2.3-4.5 4.8-4.5h23c2.5 0 4.2 2 4.5 4.2v16.6h0.6c5.9-16 17.4-23.6 32.5-23.6 15.5 0 25.3 7.6 32 23.6 5.9-16 19.7-23.6 34.3-23.6 10.4 0 21.6 4.2 28.6 14 7.9 10.7 6.2 26.1 6.2 39.9v80.3c0 2.5-2.3 4.5-4.8 4.5h-24.4c-2.5-0.3-4.5-2.3-4.5-4.5v-67.4c0-5.3 0.6-18.8-0.6-23.8-1.9-8.5-7.3-11-14.6-11-5.9 0-12.3 3.9-14.8 10.4-2.6 6.4-2.3 17.1-2.3 24.4v67.4c0 2.5-2.2 4.5-4.8 4.5h-24.7c-2.5-0.3-4.4-2.3-4.4-4.5v-67.4c0-14 2.2-35.1-15.2-35.1-17.7 0-17.1 20.2-17.1 35.1v67.4c-0.3 2.2-2.3 4.2-5.1 4.2zm457.6-138.4c36.7 0 56.7 31.4 56.7 71.6 0 38.7-21.9 69.6-56.7 69.6-36 0-55.6-31.4-55.6-70.7-0.3-39.6 19.6-70.5 55.6-70.5zm0 26.1c-18.3 0-19.4 25-19.4 40.4 0 15.5-0.3 48.6 19.1 48.6 19.1 0 20.2-26.7 20.2-43 0-10.6-0.6-23.5-3.7-33.6-2.8-9-8.4-12.4-16.2-12.4zm104.1 112.3h-24.7c-2.5-0.3-4.5-2.3-4.5-4.5v-127.2c0.3-2.2 2.3-4.2 4.8-4.2h23c2.2 0 3.9 1.7 4.5 3.7v19.3h0.6c7-17.4 16.5-25.5 33.6-25.5 11 0 21.9 3.9 28.9 14.9 6.5 10.1 6.5 27.2 6.5 39.6v80c-0.3 2.2-2.2 3.9-4.8 3.9h-24.7c-2.2-0.3-4.2-2-4.5-3.9v-69.1c0-14 1.7-34.2-15.4-34.2-5.9 0-11.5 3.9-14.3 10.1-3.4 7.8-3.9 15.4-3.9 24.1v68.5c-0.3 2.5-2.6 4.5-5.1 4.5zm-304.8-0.3c-1.7 1.4-4 1.7-5.9 0.6-8.2-6.8-9.9-10.1-14.4-16.6-13.4 13.8-23.2 18-40.7 18-20.7 0-37-12.9-37-38.5 0-20.2 10.9-33.7 26.4-40.4 13.5-5.9 32.3-7 46.6-8.7v-3.1c0-5.9 0.5-12.9-3.1-18-3.1-4.4-8.7-6.4-13.8-6.4-9.5 0-17.9 4.8-19.9 14.9-0.6 2.2-2 4.5-4.2 4.5l-23.9-2.6c-1.9-0.5-4.2-1.9-3.6-5 5.6-29.2 31.7-37.9 55.3-37.9 12.1 0 27.8 3.1 37.3 12.3 12.1 11.3 11 26.4 11 42.7v38.5c0 11.5 4.7 16.5 9.2 23 1.7 2.2 2 5 0 6.4-5.3 4.2-14.3 12.1-19.3 16.3zm-25-65.7c-18 0-36.8 4-36.8 25 0 10.7 5.6 18 15.2 18 7 0 13.2-4.2 17.1-11.3 4.8-8.7 4.5-16.8 4.5-26.3zm-299.5 65.6c-1.7 1.4-4 1.7-5.9 0.6-8.2-6.7-9.9-10.1-14.3-16.6-13.5 13.8-23.3 18-40.7 18-20.8 0-37.1-12.9-37.1-38.4 0-20.3 11-33.7 26.4-40.5 13.5-5.9 32.3-7 46.6-8.7v-3.1c0-5.9 0.5-12.9-3.1-17.9-3.1-4.5-8.7-6.5-13.8-6.5-9.5 0-17.9 4.8-19.9 14.9-0.5 2.2-2 4.5-4.2 4.5l-23.9-2.5c-1.9-0.6-4.2-2-3.6-5.1 5.6-29.2 31.7-37.9 55.3-37.9 12.1 0 27.8 3.1 37.3 12.4 12.1 11.2 11 26.4 11 42.6v38.5c0 11.5 4.7 16.6 9.2 23 1.7 2.3 2 5.1 0 6.5-5.3 4.2-14.3 12-19.3 16.2zm-24.7-65.6c-18 0-36.8 3.9-36.8 24.9 0 10.7 5.6 18 15.2 18 7 0 13.1-4.2 17.1-11.2 4.7-8.7 4.5-16.9 4.5-26.4z"/>
	</g>
</svg>