<svg version="1.2" xmlns="http://www.w3.org/2000/svg" viewBox="0 0 1500 1000" width="1500" height="1000">
	<title>6505229</title>
	<style>
		.s0 { fill: #92e3a9 } 
		.s1 { opacity: .7;fill: #9dff2b } 
		.s2 { fill: #263238 } 
		.s3 { fill: #ffffff } 
		.s4 { fill: #a5ff3b } 
		.s5 { fill: #c4c4c4 } 
		.s6 { fill: #bababa } 
		.s7 { fill: #67b2ff } 
		.s8 { fill: #8c8c8c } 
		.s9 { fill: #23ff61 } 
		.s10 { fill: #37ff70 } 
		.s11 { fill: #fbffcb } 
	</style>
	<g id="Background Simple">
		<g id="&lt;Group&gt;">
			<path id="&lt;Path&gt;" class="s0" d="m572.4 225c194.9-96 395.4-221.5 621.9-170.2 70.2 16 134.1 55.8 177.3 113.7 115.5 154.7 106.1 391.8 43.4 566-8.2 22.8-18.4 44.8-31.6 65.1-63.7 98.3-171 103-274.6 74.5-87.6-24-165.2-48.8-255.7-24.3-50.1 13.5-98.7 32.2-148.6 46.3-68 19.3-138.1 32.4-208.9 33.8-187.4 3.5-401.4-92.1-418-301.3-1-13.6-1.2-27.2-0.6-40.8 3.7-83.5 31.3-167.1 107.8-210.5 77-43.6 168.2-60.8 250.5-91.7 46.8-17.6 92.2-38.5 137.1-60.6z"/>
			<path id="&lt;Path&gt;" class="s1" d="m572.4 225c194.9-96 395.4-221.5 621.9-170.2 70.2 16 134.1 55.8 177.3 113.7 115.5 154.7 106.1 391.8 43.4 566-8.2 22.8-18.4 44.8-31.6 65.1-63.7 98.3-171 103-274.6 74.5-87.6-24-165.2-48.8-255.7-24.3-50.1 13.5-98.7 32.2-148.6 46.3-68 19.3-138.1 32.4-208.9 33.8-187.4 3.5-401.4-92.1-418-301.3-1-13.6-1.2-27.2-0.6-40.8 3.7-83.5 31.3-167.1 107.8-210.5 77-43.6 168.2-60.8 250.5-91.7 46.8-17.6 92.2-38.5 137.1-60.6z"/>
		</g>
	</g>
	<g id="Floor">
		<g id="&lt;Group&gt;">
			<path id="&lt;Path&gt;" class="s2" d="m193.1 914.9h-102c-0.6 0-1-0.4-1-1 0-0.5 0.4-1 1-1h102c0.5 0 1 0.5 1 1 0 0.6-0.5 1-1 1z"/>
			<path id="&lt;Path&gt;" class="s2" d="m1444 914.9h-1232.8c-0.5 0-1-0.4-1-1 0-0.5 0.5-1 1-1h1232.8c0.5 0 1 0.5 1 1 0 0.6-0.5 1-1 1z"/>
		</g>
	</g>
	<g id="Gears">
		<g id="&lt;Group&gt;">
			<path id="&lt;Compound Path&gt;" fill-rule="evenodd" class="s2" d="m1321.7 468.9h-17.4l-2.1-15.2c-7.2-1.4-14-4.2-20-8.3l-12.3 9.1-12.3-12.3 9.2-12.2c-4-6.2-6.8-12.9-8.2-20.1l-15.2-2.2v-17.4l15.3-2.1c1.4-7.2 4.2-14 8.3-20l-9.2-12.3 12.3-12.3 12.3 9.2c6.1-4 12.9-6.8 20.1-8.2l2.1-15.1h17.4l2.2 15.2c7.2 1.4 13.9 4.2 20 8.3l12.3-9.2 12.2 12.3-9.2 12.3c4.1 6.1 6.9 12.9 8.3 20.1l15.1 2.1v17.4l-15.2 2.2c-1.4 7.2-4.2 13.9-8.3 20l9.1 12.3-12.3 12.3-12.3-9.3c-6.1 4.1-12.8 6.9-20 8.3zm-15.7-2h14l2.1-14.9 0.7-0.1c7.4-1.4 14.4-4.2 20.6-8.5l0.6-0.4 12 9.1 9.9-9.9-9-12 0.4-0.6c4.3-6.2 7.2-13.1 8.5-20.5l0.2-0.7 14.9-2.1v-14l-14.9-2.1-0.1-0.7c-1.3-7.4-4.2-14.4-8.4-20.6l-0.5-0.6 9.1-12-9.9-9.9-12 9-0.6-0.4c-6.2-4.3-13.1-7.2-20.5-8.6l-0.7-0.1-2.1-14.9h-14l-2.1 14.9-0.7 0.1c-7.4 1.3-14.4 4.2-20.6 8.4l-0.6 0.4-12-9-9.9 9.9 9 12-0.4 0.6c-4.3 6.2-7.2 13.1-8.6 20.5l-0.1 0.7-14.9 2.1v13.9l14.9 2.2 0.1 0.7c1.3 7.4 4.2 14.3 8.4 20.6l0.4 0.6-9 12 9.9 9.9 12-9 0.6 0.4c6.2 4.3 13.1 7.2 20.5 8.5l0.7 0.2zm7.1-28.8c-21.5 0-38.9-17.5-38.9-39 0-21.4 17.4-38.9 38.9-38.9 21.5 0 39 17.5 39 38.9 0 21.5-17.5 39-39 39zm0-75.9c-20.4 0-36.9 16.6-36.9 36.9 0 20.4 16.5 37 36.9 37 20.4 0 37-16.6 37-37 0-20.3-16.6-36.9-37-36.9z"/>
			<path id="&lt;Compound Path&gt;" fill-rule="evenodd" class="s2" d="m1382.5 545h-12.9l-1.6-10.9c-5-1-9.7-3-14-5.9l-8.8 6.6-9.2-9.1 6.7-8.8c-2.9-4.3-4.8-9.1-5.8-14.1l-10.9-1.6v-12.9l10.9-1.6c1.1-5 3-9.7 5.9-14l-6.6-8.8 9.1-9.1 8.9 6.6c4.3-2.9 9-4.8 14-5.8l1.6-10.9h12.9l1.6 10.9c5 1.1 9.8 3 14 5.9l8.8-6.6 9.2 9.2-6.6 8.8c2.8 4.3 4.7 9 5.7 14.1l10.9 1.5v13l-10.9 1.5c-1 5.1-3 9.8-5.9 14.1l6.6 8.7-9.1 9.2-8.8-6.6c-4.3 2.8-9.1 4.7-14.1 5.8zm-11.2-2h9.4l1.5-10.6 0.8-0.2c5.2-0.9 10.2-2.9 14.6-6l0.6-0.4 8.5 6.5 6.7-6.7-6.4-8.6 0.4-0.6c3.1-4.4 5.1-9.3 6.1-14.5l0.2-0.7 10.6-1.6v-9.4l-10.6-1.5-0.1-0.7c-1-5.3-3-10.2-6-14.7l-0.4-0.6 6.4-8.5-6.7-6.7-8.6 6.4-0.5-0.4c-4.5-3.1-9.4-5.1-14.6-6.1l-0.7-0.1-1.5-10.7h-9.5l-1.5 10.6-0.7 0.2c-5.3 0.9-10.2 2.9-14.6 6l-0.6 0.4-8.6-6.5-6.7 6.7 6.4 8.6-0.4 0.6c-3.1 4.4-5.1 9.3-6.1 14.5l-0.1 0.7-10.6 1.6v9.4l10.5 1.5 0.2 0.7c0.9 5.3 2.9 10.2 6 14.7l0.4 0.6-6.5 8.5 6.7 6.7 8.6-6.4 0.6 0.4c4.4 3.1 9.3 5.1 14.5 6.1l0.8 0.1zm4.8-20c-15.5 0-28.1-12.6-28.1-28.1 0-15.5 12.6-28.2 28.1-28.2 15.5 0 28.1 12.7 28.1 28.2 0 15.5-12.6 28.1-28.1 28.1zm0-54.3c-14.4 0-26.1 11.8-26.1 26.2 0 14.4 11.7 26.1 26.1 26.1 14.4 0 26.1-11.7 26.1-26.1 0-14.4-11.7-26.2-26.1-26.2z"/>
		</g>
		<g id="&lt;Group&gt;">
			<path id="&lt;Compound Path&gt;" fill-rule="evenodd" class="s2" d="m117.9 444.8h-17.4l-2.2-15.2c-7.2-1.4-13.9-4.2-20-8.3l-12.2 9.1-12.3-12.2 9.2-12.3c-4.1-6.1-6.8-12.9-8.2-20.1l-15.2-2.2v-17.4l15.2-2.1c1.5-7.2 4.3-13.9 8.4-20l-9.2-12.3 12.3-12.3 12.3 9.2c6.1-4 12.8-6.8 20-8.2l2.2-15.1h17.4l2.2 15.2c7.2 1.4 13.9 4.2 20 8.3l12.2-9.2 12.3 12.3-9.2 12.3c4.1 6.1 6.8 12.9 8.2 20.1l15.2 2.2v17.3l-15.2 2.2c-1.5 7.2-4.3 13.9-8.4 20l9.2 12.3-12.3 12.3-12.3-9.2c-6.1 4-12.8 6.8-20.1 8.2zm-15.6-2h13.9l2.1-14.9 0.7-0.1c7.5-1.3 14.4-4.2 20.6-8.4l0.6-0.4 12.1 9 9.8-9.9-9-12 0.4-0.6c4.3-6.2 7.2-13.1 8.6-20.5l0.1-0.7 14.9-2.1v-14l-14.8-2.1-0.1-0.7c-1.4-7.4-4.2-14.3-8.5-20.6l-0.4-0.6 9-12-9.8-9.9-12 9-0.6-0.4c-6.2-4.3-13.1-7.2-20.5-8.6l-0.7-0.1-2.2-14.9h-13.9l-2.1 14.9-0.7 0.1c-7.5 1.4-14.4 4.2-20.6 8.5l-0.6 0.4-12.1-9.1-9.8 9.9 9 12-0.4 0.6c-4.3 6.2-7.2 13.1-8.6 20.5l-0.1 0.7-14.9 2.1v14l14.8 2.1 0.2 0.7c1.3 7.4 4.1 14.4 8.4 20.6l0.4 0.6-9 12 9.8 9.9 12-9 0.6 0.4c6.2 4.3 13.1 7.2 20.6 8.6l0.7 0.1zm7.1-28.8c-10 0-20-3.8-27.6-11.4-15.2-15.2-15.2-39.9 0-55.1 15.2-15.2 39.9-15.2 55.1 0 15.2 15.2 15.2 39.9 0 55.1-7.6 7.6-17.5 11.4-27.5 11.4zm0-75.9c-9.5 0-18.9 3.6-26.2 10.8-14.4 14.4-14.4 37.9 0 52.3 14.5 14.4 37.9 14.4 52.3 0 14.4-14.4 14.4-37.9 0-52.3-7.2-7.2-16.7-10.8-26.1-10.8z"/>
			<path id="&lt;Compound Path&gt;" fill-rule="evenodd" class="s2" d="m138.8 313.1h-12.9l-1.6-11c-5-1-9.7-3-14-5.8l-8.8 6.6-9.1-9.2 6.6-8.8c-2.9-4.3-4.8-9-5.8-14.1l-10.9-1.5v-13l10.9-1.5c1.1-5.1 3-9.8 5.9-14.1l-6.6-8.8 9.2-9.1 8.8 6.6c4.3-2.8 9-4.8 14.1-5.8l1.5-10.9h12.9l1.6 11c5.1 1 9.8 3 14.1 5.8l8.7-6.6 9.2 9.2-6.6 8.8c2.8 4.3 4.7 9 5.8 14.1l10.8 1.5v13l-10.9 1.5c-1 5.1-3 9.8-5.9 14.1l6.6 8.8-9.1 9.1-8.8-6.6c-4.3 2.8-9.1 4.8-14.1 5.8zm-11.2-2h9.5l1.5-10.6 0.7-0.1c5.2-1 10.2-3 14.6-6l0.6-0.4 8.6 6.4 6.6-6.7-6.4-8.5 0.4-0.6c3.1-4.4 5.2-9.3 6.1-14.6l0.2-0.7 10.6-1.5v-9.5l-10.6-1.5-0.1-0.7c-1-5.3-3-10.2-6-14.6l-0.4-0.6 6.4-8.6-6.7-6.7-8.5 6.4-0.6-0.4c-4.4-3-9.3-5.1-14.6-6.1l-0.7-0.1-1.5-10.6h-9.5l-1.5 10.6-0.7 0.1c-5.3 0.9-10.2 3-14.6 6l-0.6 0.4-8.6-6.4-6.7 6.6 6.4 8.6-0.4 0.6c-3 4.4-5.1 9.3-6.1 14.6l-0.1 0.7-10.6 1.5v9.5l10.6 1.5 0.1 0.7c0.9 5.2 3 10.2 6 14.6l0.4 0.6-6.4 8.6 6.6 6.6 8.6-6.4 0.6 0.4c4.4 3.1 9.3 5.2 14.6 6.1l0.7 0.2zm4.8-20.1c-7.2 0-14.4-2.7-19.9-8.2-5.3-5.3-8.2-12.4-8.2-19.9 0-7.5 2.9-14.6 8.2-19.9 5.3-5.3 12.4-8.2 19.9-8.2 7.5 0 14.6 2.9 19.9 8.2 11 11 11 28.8 0 39.8-5.5 5.5-12.7 8.2-19.9 8.2zm0-54.2c-7 0-13.5 2.7-18.5 7.6-4.9 5-7.6 11.5-7.6 18.5 0 7 2.7 13.6 7.6 18.5 10.2 10.2 26.8 10.2 37 0 10.2-10.2 10.2-26.8 0-37-4.9-4.9-11.5-7.6-18.5-7.6z"/>
		</g>
	</g>
	<g id="Plant">
		<g id="&lt;Group&gt;">
			<g id="&lt;Group&gt;">
				<g id="&lt;Group&gt;">
					<path id="&lt;Path&gt;" class="s0" d="m89.7 631.8c0 0-4.6 12.8-14.6 14.6-9.9 1.7-27.4-17.6-16.3-27.5 11.1-9.9 26.3 5.8 30.9 12.9z"/>
					<path id="&lt;Compound Path&gt;" fill-rule="evenodd" class="s2" d="m73.8 647.5c-6.5 0-14.5-6.8-17.8-13.6-3-6.1-2.2-11.9 2.1-15.7 3-2.8 6.6-3.9 10.5-3.4 8.9 1.1 18 10.4 22 16.4 0.1 0.3 0.2 0.6 0.1 0.9-0.2 0.5-5 13.4-15.4 15.3q-0.7 0.1-1.5 0.1zm-7-30.8q-4.1 0-7.4 2.9c-4.9 4.5-3.1 10.3-1.6 13.4 3.6 7.3 11.9 13.3 17.1 12.4 8.3-1.5 12.8-11.3 13.7-13.5-3.8-5.5-12.3-14.1-20.2-15.1q-0.8-0.1-1.6-0.1z"/>
				</g>
				<g id="&lt;Group&gt;">
					<path id="&lt;Path&gt;" class="s0" d="m104.9 568.6c0 0-14.6 35.7-8.7 53.2 5.8 17.6 42 30.4 52.6 7.6 10.5-22.8-12.9-54.9-21.7-61.9-8.7-7-19.3-4.7-22.2 1.1z"/>
					<path id="&lt;Compound Path&gt;" fill-rule="evenodd" class="s2" d="m128.5 642.7q-0.9 0-1.8-0.1c-13.9-0.8-28-9.9-31.5-20.5-5.9-17.6 8.2-52.4 8.8-53.8q0-0.1 0-0.1c1.4-2.8 4.3-4.9 8-5.7 5.3-1.1 11 0.4 15.8 4.2 8.9 7.2 32.6 39.8 21.9 63.1-3.9 8.4-11.3 12.9-21.2 12.9zm-22.7-73.6c-0.5 1.2-14.3 35.7-8.7 52.4 3.2 9.7 16.8 18.4 29.7 19.1 5.7 0.3 16-0.8 21-11.6 10.3-22.3-12.6-53.8-21.3-60.7-4.3-3.5-9.4-4.9-14-3.8-3.1 0.7-5.5 2.3-6.7 4.6z"/>
				</g>
				<g id="&lt;Group&gt;">
					<path id="&lt;Path&gt;" class="s0" d="m190.2 583.8c0 0-25.1 22.8-28 45.6-2.9 22.8 14 31 31.5 28.1 17.6-3 26.3-47.4 21.1-67.8-5.3-20.5-24.6-5.9-24.6-5.9z"/>
					<path id="&lt;Compound Path&gt;" fill-rule="evenodd" class="s2" d="m187 659c-7.8 0-14.7-2.3-19.3-6.8-5.5-5.3-7.7-13.2-6.5-22.9 2.9-22.9 27.3-45.3 28.4-46.2q0 0 0-0.1c0.4-0.3 9.9-7.3 17.8-4.6 4 1.4 6.8 5.1 8.4 11 3.8 14.8 0.4 44.1-9.7 59.6-3.6 5.5-7.7 8.7-12.2 9.5q-3.5 0.5-6.9 0.5zm3.9-74.4c-1.1 1-24.9 23.2-27.7 44.9-1.2 9.1 0.9 16.4 5.9 21.2 5.5 5.4 14.4 7.5 24.5 5.8 3.9-0.7 7.5-3.6 10.8-8.6 9.8-15.1 13.1-43.6 9.4-58-1.3-5.2-3.7-8.4-7.1-9.6-6.6-2.3-15.2 3.9-15.8 4.3z"/>
				</g>
				<g id="&lt;Group&gt;">
					<g id="&lt;Group&gt;">
						<path id="&lt;Path&gt;" class="s0" d="m194.9 710.1c0 0-28 1.1-29.2 14.6-1.2 13.4 12.3 16.3 25.7 4.6 13.5-11.6 15.2-18.7 3.5-19.2z"/>
						<path id="&lt;Compound Path&gt;" fill-rule="evenodd" class="s2" d="m175.4 737.7c-1.9 0-3.7-0.4-5.3-1.2-4-2.1-5.9-6.3-5.4-11.9 1.2-14.2 29-15.5 30.2-15.5q0 0 0.1 0c4.8 0.2 7.6 1.5 8.4 4 1.3 3.7-2.4 9.2-11.3 17-5.7 4.9-11.7 7.6-16.7 7.6zm19.5-26.6c-1.2 0-27.1 1.5-28.2 13.7-0.4 4.7 1.1 8.3 4.3 9.9 4.9 2.5 12.6 0.1 19.8-6.1 10.6-9.3 11.3-13.3 10.8-14.9-0.7-1.9-4-2.5-6.7-2.6z"/>
					</g>
					<path id="&lt;Path&gt;" class="s2" d="m166.6 728.8l-0.9-1.8c1-0.4 22.4-10.2 32.4-12l0.3 2c-9.7 1.7-31.6 11.7-31.8 11.8z"/>
				</g>
				<g id="&lt;Group&gt;">
					<g id="&lt;Group&gt;">
						<path id="&lt;Path&gt;" class="s0" d="m201.2 798c0 0-20.6-19.1-31-10.4-10.3 8.6-2.9 20.2 14.8 21.5 17.8 1.3 24-2.4 16.2-11.1z"/>
						<path id="&lt;Compound Path&gt;" fill-rule="evenodd" class="s2" d="m191.4 810.4q-2.9 0-6.4-0.3c-10.4-0.7-18.1-5-20.1-11.1-1.3-4.2 0.3-8.6 4.7-12.2 10.9-9.1 31.4 9.7 32.3 10.5q0 0 0 0c3.2 3.6 4.3 6.6 3.2 8.9-1.4 2.8-5.9 4.2-13.7 4.2zm-14.6-24.1c-2.2 0-4.2 0.6-5.9 2.1-3.7 3-5.2 6.6-4.1 10 1.7 5.2 8.9 9 18.3 9.7 14.1 1 17.4-1.3 18.2-2.8 0.9-1.8-1.1-4.6-2.8-6.6-0.8-0.7-13.8-12.4-23.7-12.4z"/>
					</g>
					<path id="&lt;Path&gt;" class="s2" d="m198.7 805.4c-8.1-5.7-30.6-14.2-30.8-14.3l0.7-1.9c1 0.4 23 8.7 31.3 14.5z"/>
				</g>
				<g id="&lt;Group&gt;">
					<g id="&lt;Group&gt;">
						<path id="&lt;Path&gt;" class="s0" d="m92.5 792.4c0 0 28.4-26.3 42.7-14.4 14.2 11.9 4 27.9-20.5 29.7-24.4 1.8-33-3.3-22.2-15.3z"/>
						<path id="&lt;Compound Path&gt;" fill-rule="evenodd" class="s2" d="m105.9 809.1c-10.5 0-16.6-1.9-18.4-5.6-1.5-3-0.1-7 4.2-11.8q0.1 0 0.1 0c1.2-1.1 29.2-26.8 44-14.4 5.9 4.9 8.1 10.7 6.3 16.3-2.7 8.3-13.1 14.1-27.3 15.1q-4.9 0.4-8.9 0.4zm-12.7-16c-2.5 2.8-5.3 6.8-3.9 9.5 1 2.1 5.7 5.5 25.4 4.1 13.1-0.9 23.1-6.3 25.5-13.7 1.5-4.8-0.5-9.9-5.7-14.2-13.2-11.1-40.2 13.3-41.3 14.3z"/>
					</g>
					<path id="&lt;Path&gt;" class="s2" d="m95.7 802.2l-1.2-1.6c11.4-8 41.7-19.5 43-19.9l0.7 1.8c-0.3 0.1-31.4 11.9-42.5 19.7z"/>
				</g>
				<g id="&lt;Group&gt;">
					<path id="&lt;Path&gt;" class="s0" d="m125.4 738.1c0 0-2.9 14-13.5 19.3-10.5 5.3-29.2-5.8-19.2-22.8 9.9-16.9 27.4-3.5 32.7 3.5z"/>
					<path id="&lt;Compound Path&gt;" fill-rule="evenodd" class="s2" d="m106.1 759.7c-4.8 0-9.8-2-13.2-5.7-5-5.3-5.4-12.6-1.1-19.9 3.2-5.5 7.4-8.4 12.6-8.7 8.9-0.5 18.1 7.2 21.8 12.1 0.2 0.2 0.2 0.5 0.2 0.8-0.2 0.6-3.2 14.6-14 20-1.9 0.9-4.1 1.4-6.3 1.4zm-0.9-32.3q-0.3 0-0.7 0c-4.4 0.3-8.1 2.9-11 7.7-3.8 6.5-3.5 12.9 0.8 17.6 4.5 4.7 12 6.4 17.2 3.8 8.9-4.5 12.2-15.8 12.8-18.2-3.7-4.7-11.8-10.9-19.1-10.9z"/>
				</g>
				<g id="&lt;Group&gt;">
					<path id="&lt;Path&gt;" class="s0" d="m100.8 694.3c0 0-5.2-11.7-25.7-4.1-20.4 7.6-28.6 19.3-15.8 23.4 12.9 4.1 41.5-19.3 41.5-19.3z"/>
					<path id="&lt;Compound Path&gt;" fill-rule="evenodd" class="s2" d="m62.7 715q-2 0-3.7-0.5c-5.5-1.8-6.8-4.7-6.8-6.9-0.2-6 8.7-13.2 22.6-18.3 21.1-7.9 26.9 4.4 26.9 4.6 0.2 0.4 0.1 0.9-0.2 1.2-1.1 0.8-24.7 19.9-38.8 19.9zm24.9-26.4c-3.2 0-7.2 0.7-12.1 2.5-14.8 5.5-21.4 12.4-21.3 16.5 0 2.7 3 4.2 5.4 5 11.2 3.6 35.6-15.2 39.9-18.6-1-1.6-4.3-5.4-11.9-5.4z"/>
				</g>
				<path id="&lt;Path&gt;" class="s2" d="m64.2 706.8l-1.3-1.5c11.8-10 33-12.4 33.9-12.5l0.2 1.9c-0.2 0.1-21.5 2.5-32.8 12.1z"/>
				<g id="&lt;Group&gt;">
					<path id="&lt;Path&gt;" class="s0" d="m159.3 554c0 0 3.5 8.2 10.5 6.5 7-1.8 8.8-12.3 19.9-9.4 11.1 2.9 20.4 15.8 20.4 9.9 0-5.8-14-21-29.8-21-15.8 0-20.4 6.4-21 14z"/>
					<path id="&lt;Compound Path&gt;" fill-rule="evenodd" class="s2" d="m209.2 563.6c-1.3 0-3.1-1.4-5.9-3.5-3.6-2.8-8.6-6.6-13.9-8-6.3-1.7-9.3 1.3-12.4 4.5-2 2-4 4.1-7 4.8-6.2 1.6-10.3-3.9-11.6-7q-0.1-0.2-0.1-0.4c0.7-10 8.2-15 22-15 15.9 0 30.8 15.2 30.8 22.1 0 0.4 0 1.7-1.1 2.3q-0.3 0.2-0.8 0.2zm-23.2-14q1.8 0 3.9 0.5c5.7 1.5 10.9 5.5 14.6 8.4 1.7 1.3 3.8 2.8 4.6 3q0-0.1 0-0.4c0-5-12.9-20.1-28.8-20.1-12.7 0-19.2 4.2-20 12.9 0.6 1.2 3.7 7 9.2 5.6 2.4-0.6 4.2-2.4 6.1-4.3 2.6-2.7 5.5-5.6 10.4-5.6z"/>
				</g>
				<path id="&lt;Path&gt;" class="s2" d="m138.1 726.2c-0.7-3-1.6-5.8-2.6-8.5-10-26.7-33.5-22.6-34.5-22.4l-0.4-2c0.3 0 26.2-4.7 36.8 23.7 1 2.7 1.9 5.6 2.7 8.7z"/>
				<g id="&lt;Group&gt;">
					<path id="&lt;Path&gt;" class="s0" d="m205.8 667.2c0 0 5.3-11.7 25.8-4.1 20.4 7.6 28.6 19.3 15.7 23.4-12.8 4.1-41.5-19.3-41.5-19.3z"/>
					<path id="&lt;Compound Path&gt;" fill-rule="evenodd" class="s2" d="m244 688c-14.1 0-37.7-19.1-38.8-20-0.3-0.3-0.4-0.8-0.3-1.2 0.1-0.1 5.9-12.4 27-4.6 13.9 5.1 22.8 12.4 22.6 18.4 0 2.1-1.3 5.1-6.9 6.9q-1.6 0.5-3.6 0.5zm-36.9-21c4.4 3.4 28.8 22.1 39.9 18.5 2.5-0.7 5.4-2.2 5.5-5 0.1-4.1-6.5-11-21.3-16.4-16.6-6.2-22.6 0.6-24.1 2.9z"/>
				</g>
				<path id="&lt;Path&gt;" class="s2" d="m240.8 679.7c-9.5-11.7-30-10.7-30.2-10.7l-0.1-2c0.8-0.1 21.7-1.1 31.8 11.5z"/>
				<path id="&lt;Path&gt;" class="s2" d="m188.8 670.5l-0.8-1.8c9.3-4.1 17.7-2.5 18-2.5l-0.3 2c-0.1 0-8.2-1.5-16.9 2.3z"/>
				<path id="&lt;Path&gt;" class="s2" d="m113.5 647c-11.9-12.2-23.8-14.2-23.9-14.3-0.3 0-17.7-4.5-24.2 1.5l-1.4-1.5c7.4-6.7 25.2-2.1 26-1.9 0.4 0 12.5 2.1 25 14.8z"/>
				<g id="&lt;Group&gt;">
					<path id="&lt;Path&gt;" class="s2" d="m115.8 581.7l-1.1-4.8 1.9-0.5 1.1 4.9z"/>
					<path id="&lt;Path&gt;" class="s2" d="m146.2 839.9l-2-0.1c0-1 2.6-100.9 0-131-2.6-30.1-14.7-65.8-14.8-66.2l-12.5-55.7 2-0.4 12.4 55.6c0.1 0.2 12.3 36.1 14.9 66.5 2.6 30.2 0 130.3 0 131.3z"/>
					<path id="&lt;Path&gt;" class="s2" d="m198.1 603.6l-1.9-0.9 2.3-4.8 1.8 0.8z"/>
					<path id="&lt;Path&gt;" class="s2" d="m152.3 839.8l-2-0.1c0-0.9 0.9-92.1 4.4-118.1 3.5-26 17.4-67 17.5-67.4l21.5-46 1.8 0.8-21.4 46c-0.1 0.3-14 41.1-17.4 66.9-3.5 25.8-4.4 116.9-4.4 117.9z"/>
					<path id="&lt;Path&gt;" class="s2" d="m157.6 839.9l-2-0.1c3.4-58.7 9.5-111.5 9.6-112l2 0.2c-0.1 0.5-6.2 53.3-9.6 111.9z"/>
					<path id="&lt;Path&gt;" class="s2" d="m137.5 839.8l-2-0.1c0-0.8 1.7-83.9-1.7-94.9-1.2-3.8-2.8-6.1-4.6-6.7-1.7-0.5-3.2 0.8-3.2 0.8l-0.2 0.2h-0.3c-0.2 0-15.8 2-21.3 10.8l-1.7-1c5.7-9.1 20.2-11.4 22.5-11.7 0.7-0.5 2.5-1.6 4.8-1 2.5 0.7 4.5 3.4 5.9 8 3.5 11.3 1.8 92.1 1.8 95.6z"/>
					<path id="&lt;Path&gt;" class="s2" d="m141.8 839.9l-2-0.1c0.1-0.8 4.2-81.9-0.3-107.1l2-0.4c4.5 25.4 0.4 106.8 0.3 107.6z"/>
					<path id="&lt;Path&gt;" class="s2" d="m159.9 839.9c0-5-1.1-122.1 9.4-149.9 3-8.2 7.6-14.4 13.6-18.5l1.1 1.7c-5.6 3.8-9.9 9.7-12.9 17.5-10.2 27.4-9.2 148-9.2 149.2z"/>
					<path id="&lt;Path&gt;" class="s2" d="m149.7 839.9l-2-0.3c2.5-18-2.5-122.6-16.5-162.9-3.6-10.4-8.6-19.3-14.7-26.5l1.6-1.3c6.2 7.4 11.3 16.5 15 27.1 14.1 40.6 19.1 145.8 16.6 163.9z"/>
					<path id="&lt;Path&gt;" class="s2" d="m152.3 839.8l-2-0.1c0-1 0.6-102.4 1.5-152.5h2c-0.9 50.1-1.5 151.5-1.5 152.6z"/>
				</g>
				<path id="&lt;Path&gt;" class="s2" d="m153.9 680.9l-2-0.1c0.7-40.4 1.3-68.6 1.9-83.9 1.5-39.4 3.7-43.1 4.7-43.7 1-2.2 5.7-10.3 22.2-9.2l-0.1 2c-17-1.1-20.2 8-20.4 8.3l-0.5 1.5-0.3-0.3c-0.8 2.2-2.4 10.3-3.6 41.4-0.6 15.3-1.2 43.6-1.9 84z"/>
				<g id="&lt;Group&gt;">
					<g id="&lt;Group&gt;">
						<path id="&lt;Path&gt;" class="s0" d="m130.5 719.1c0 0-14.6-13-8.7-19.4 5.8-6.4 42-11.1 52.5-2.8 10.6 8.4-12.8 20.1-21.6 22.7-8.7 2.5-19.3 1.7-22.2-0.5z"/>
						<path id="&lt;Compound Path&gt;" fill-rule="evenodd" class="s2" d="m141.1 722.2c-5 0-9.3-0.9-11.2-2.2q0-0.1 0-0.1c-0.5-0.4-10.2-9.1-10.5-16.1q-0.2-2.8 1.6-4.8c6.3-6.9 43-11.6 54-2.8 2.4 1.9 3.4 4.1 2.9 6.6-1.5 7.9-18.2 15.8-24.9 17.7-3.9 1.2-8.1 1.7-11.9 1.7zm-10-3.8c2.7 1.8 12.7 2.7 21.3 0.2 7.4-2.1 22.3-9.8 23.5-16.1 0.4-1.8-0.4-3.3-2.2-4.8-9.9-7.8-45.7-3.4-51.2 2.7-0.8 0.9-1.2 2-1.1 3.3 0.3 6 9.1 14.1 9.7 14.7z"/>
					</g>
					<path id="&lt;Path&gt;" class="s2" d="m144.7 712.4h-2q0-1.9 0.3-4.1l2 0.3q-0.3 2.1-0.3 3.8z"/>
					<path id="&lt;Path&gt;" class="s2" d="m146.2 703.2l-1.9-0.5c1.6-5.4 3.7-9.7 3.8-9.9l1.8 0.9c0 0.1-2.1 4.4-3.7 9.5z"/>
				</g>
				<g id="&lt;Group&gt;">
					<g id="&lt;Group&gt;">
						<path id="&lt;Path&gt;" class="s0" d="m130.5 804.3c0 0-14.6-13-8.7-19.4 5.8-6.4 42-11.1 52.5-2.8 10.6 8.3-12.8 20.1-21.6 22.7-8.7 2.5-19.3 1.7-22.2-0.5z"/>
						<path id="&lt;Compound Path&gt;" fill-rule="evenodd" class="s2" d="m141.1 807.3c-5 0-9.3-0.8-11.2-2.2q0 0 0 0c-0.5-0.4-10.2-9.1-10.5-16.1q-0.2-2.8 1.6-4.8c6.3-6.9 43-11.6 54-2.9 2.4 2 3.4 4.2 2.9 6.7-1.5 7.9-18.2 15.8-24.9 17.7-3.9 1.2-8.1 1.6-11.9 1.6zm-10-3.8c2.7 1.9 12.7 2.8 21.3 0.3 7.4-2.1 22.3-9.8 23.5-16.2 0.4-1.7-0.4-3.3-2.2-4.7-9.9-7.9-45.7-3.4-51.2 2.7-0.8 0.9-1.2 1.9-1.1 3.3 0.3 5.9 9.1 14.1 9.7 14.6z"/>
					</g>
					<path id="&lt;Path&gt;" class="s2" d="m144.7 797.5h-2c0-8.5 5.2-19.1 5.4-19.5l1.8 0.9c0 0.1-5.2 10.6-5.2 18.6z"/>
				</g>
				<g id="&lt;Group&gt;">
					<g id="&lt;Group&gt;">
						<path id="&lt;Path&gt;" class="s0" d="m141.4 768.3c0 0-9.9-8.8-6-13.2 4-4.3 28.6-7.5 35.8-1.9 7.1 5.7-8.8 13.7-14.7 15.4-6 1.7-13.1 1.2-15.1-0.3z"/>
						<path id="&lt;Compound Path&gt;" fill-rule="evenodd" class="s2" d="m148.6 770.7c-3.5 0-6.5-0.6-7.8-1.6q0 0-0.1-0.1c-0.3-0.2-6.9-6.2-7.2-11.1q-0.1-2 1.2-3.5c4.4-4.7 29.5-7.9 37.1-2 2.2 1.8 2.3 3.6 2.1 4.9-1.2 5.8-13.1 11.1-17.1 12.3-2.7 0.7-5.6 1.1-8.2 1.1zm-6.6-3.2c1.7 1.2 8.5 1.8 14.2 0.1 4.9-1.4 14.9-6.5 15.7-10.7q0.3-1.6-1.4-2.9c-6.6-5.3-30.6-2.3-34.3 1.8q-0.8 0.8-0.7 2c0.2 3.3 4.7 8.1 6.5 9.7z"/>
					</g>
					<path id="&lt;Path&gt;" class="s2" d="m151.3 763.7h-2c0-5.9 3.6-13.1 3.8-13.4l1.8 0.9c-0.1 0.1-3.6 7.1-3.6 12.5z"/>
				</g>
			</g>
			<g id="&lt;Group&gt;">
				<path id="&lt;Path&gt;" class="s2" d="m167.2 825.3h-39.5v87.7h39.5z"/>
				<path id="&lt;Compound Path&gt;" fill-rule="evenodd" class="s2" d="m167.2 914h-39.5c-0.6 0-1-0.5-1-1v-87.7c0-0.6 0.4-1 1-1h39.5c0.6 0 1 0.4 1 1v87.7c0 0.5-0.4 1-1 1zm-38.5-2h37.5v-85.7h-37.5z"/>
			</g>
		</g>
	</g>
	<g id="Codes">
		<g id="&lt;Group&gt;">
			<path id="&lt;Compound Path&gt;" class="s2" d="m1068.3 188.3l-44-31v-16.5l44-31.3v16.6l-31.5 22.9 31.5 22.9z"/>
			<path id="&lt;Compound Path&gt;" class="s2" d="m1081.7 193.9l33.5-124.5h14.3l-33.7 124.5z"/>
			<path id="&lt;Compound Path&gt;" class="s2" d="m1142.8 188.3v-16.4l31.7-23.1-31.7-22.7v-16.6l44.1 31.2v16.4z"/>
		</g>
		<g id="&lt;Group&gt;">
			<path id="&lt;Compound Path&gt;" class="s2" d="m1222.1 285.1l-21-14.8v-7.8l21-15v8l-15 10.9 15 10.9z"/>
			<path id="&lt;Compound Path&gt;" class="s2" d="m1241.9 288.4q-5.2 0-7.9-2.1-2.7-2.1-3.6-5.9-0.9-3.8-0.9-8.9v-9.7q0-5.4 0.9-9.2 1-3.7 3.7-5.7 2.6-2.1 7.8-2.1 4.6 0 7.1 1.5 2.6 1.5 3.5 4.5 1 3 1 7.4v2.5h-7.2v-2.6q0-2.8-0.3-4.4-0.4-1.6-1.3-2.3-1-0.8-2.7-0.8-2 0-3 0.9-1 0.9-1.3 3-0.4 2.1-0.4 5.7v13.3q0 5.4 1.1 7.2 1 1.9 3.6 1.9 2 0 2.9-0.9 0.9-1 1.2-2.6 0.2-1.7 0.2-3.9v-3.4h7.2v2.9q0 4.3-1 7.4-1 3-3.6 4.7-2.5 1.6-7 1.6z"/>
			<path id="&lt;Compound Path&gt;" fill-rule="evenodd" class="s2" d="m1272.1 288.4q-4.7 0-7.4-1.9-2.7-1.9-3.9-5.5-1.1-3.5-1.1-8.2v-12.4q0-4.7 1.1-8.2 1.2-3.6 3.9-5.5 2.7-1.9 7.4-1.9 4.7 0 7.3 1.9 2.7 1.9 3.8 5.5 1.2 3.5 1.2 8.2v12.4q0 4.7-1.2 8.2-1.1 3.6-3.8 5.5-2.6 1.9-7.3 1.9zm0-5.8q2.2 0 3.2-1.3 0.9-1.4 1.1-3.5 0.1-2.2 0.1-4.5v-13.3q0-2.4-0.1-4.5-0.2-2.2-1.1-3.5-1-1.4-3.2-1.4-2.3 0-3.3 1.4-0.9 1.3-1.1 3.5-0.2 2.1-0.2 4.5v13.3q0 2.3 0.2 4.5 0.2 2.1 1.1 3.5 1 1.3 3.3 1.3z"/>
			<path id="&lt;Compound Path&gt;" fill-rule="evenodd" class="s2" d="m1301.4 288.4q-5.4 0-8-4-2.6-3.9-2.6-13.3v-8.2q0-4.8 0.8-8.9 0.8-4.2 3-6.7 2.2-2.5 6.6-2.5 2.1 0 3.8 1 1.8 0.9 3.2 2.3v-19.7h7.8v59.4h-7.8v-2.7q-1.4 1.4-3 2.4-1.7 0.9-3.8 0.9zm2-6.2q1.1 0 2.3-0.4 1.3-0.4 2.5-1.2v-27.8q-1-0.7-2.3-1.3-1.2-0.5-2.7-0.5-2.7 0-3.6 2.6-1 2.6-1 6.3v11.9q0 2.9 0.3 5.3 0.4 2.4 1.4 3.8 1 1.3 3.1 1.3z"/>
			<path id="&lt;Compound Path&gt;" fill-rule="evenodd" class="s2" d="m1335.7 288.4q-5 0-7.7-2-2.7-1.9-3.8-5.7-1.1-3.8-1.1-9.3v-9.6q0-5.7 1.1-9.4 1.1-3.8 3.9-5.7 2.7-1.9 7.6-1.9 5.3 0 7.9 2.2 2.5 2.2 3.3 6.4 0.8 4.1 0.8 9.9v3.4h-16.7v8.5q0 2.6 0.5 4.2 0.4 1.6 1.5 2.4 1.1 0.8 2.8 0.8 1.7 0 2.6-0.9 0.9-0.8 1.3-2.4 0.3-1.6 0.3-3.7v-2.6h7.6v1.7q0 6.3-2.7 10-2.7 3.7-9.2 3.7zm-4.7-25.9h9v-3.8q0-2.7-0.3-4.4-0.3-1.8-1.2-2.8-0.9-0.9-2.9-0.9-1.9 0-2.9 0.9-1 0.9-1.3 3-0.4 2.1-0.4 5.7z"/>
			<path id="&lt;Compound Path&gt;" class="s2" d="m1355.1 285.1v-7.8l15.1-11-15.1-10.8v-8l21 14.9v7.9z"/>
		</g>
		<g id="&lt;Group&gt;">
			<path id="&lt;Compound Path&gt;" class="s2" d="m334.7 699.4q-6.3 0-9.7-2.6-3.5-2.7-4.9-7.2-1.3-4.4-1.3-9.9v-21q0-6 1.3-10.5 1.4-4.4 4.9-6.9 3.4-2.4 9.7-2.4 5.6 0 8.9 2 3.2 2.1 4.7 5.9 1.4 3.8 1.4 9.1v4.7h-7.9v-4.2q0-3.3-0.3-5.8-0.3-2.5-1.8-3.9-1.4-1.4-4.9-1.4-3.5 0-5.1 1.5-1.6 1.5-2.1 4.3-0.5 2.7-0.5 6.4v23.5q0 4.5 0.8 7.1 0.7 2.6 2.4 3.7 1.7 1.1 4.5 1.1 3.4 0 4.9-1.5 1.4-1.5 1.8-4.2 0.3-2.6 0.3-6.1v-4.4h7.9v4.4q0 5.4-1.3 9.5-1.3 4.2-4.6 6.5-3.2 2.3-9.1 2.3z"/>
			<path id="&lt;Compound Path&gt;" class="s2" d="m365.1 683.2v-12h-10.3v-5.9h10.3v-11.9h5.8v11.9h10.7v5.9h-10.7v12z"/>
			<path id="&lt;Compound Path&gt;" class="s2" d="m395.5 683.2v-12h-10.3v-5.9h10.3v-11.9h5.9v11.9h10.6v5.9h-10.6v12z"/>
		</g>
		<g id="&lt;Group&gt;">
			<path id="&lt;Compound Path&gt;" fill-rule="evenodd" class="s2" d="m473.1 778v-59.4h14.8q5.3 0 8.5 2 3.2 1.9 4.7 5.6 1.4 3.6 1.4 8.8 0 4.7-1.6 8.2-1.7 3.4-4.9 5.3-3.2 1.8-8.1 1.8h-6.5v27.7zm8.3-33.6h3.8q3.6 0 5.7-0.8 2-0.8 2.9-2.8 0.9-2 0.9-5.7 0-4.2-0.7-6.5-0.6-2.3-2.6-3.2-1.9-0.9-6.1-0.9h-3.9z"/>
			<path id="&lt;Compound Path&gt;" class="s2" d="m508.3 778v-59.4h8.3v25.7h15.2v-25.7h8.3v59.4h-8.3v-27.8h-15.2v27.8z"/>
			<path id="&lt;Compound Path&gt;" fill-rule="evenodd" class="s2" d="m549.4 778v-59.4h14.8q5.3 0 8.5 2 3.2 1.9 4.7 5.6 1.4 3.6 1.4 8.8 0 4.7-1.6 8.2-1.7 3.4-4.9 5.3-3.2 1.8-8.1 1.8h-6.5v27.7zm8.3-33.6h3.8q3.6 0 5.6-0.8 2.1-0.8 3-2.8 0.9-2 0.9-5.7 0-4.2-0.7-6.5-0.6-2.3-2.6-3.2-1.9-0.9-6.1-0.9h-3.9z"/>
		</g>
		<g id="&lt;Group&gt;">
			<path id="&lt;Compound Path&gt;" class="s2" d="m1340.1 726.9l-16.9-12v-6.3l16.9-12.1v6.4l-12.1 8.8 12.1 8.9z"/>
			<path id="&lt;Compound Path&gt;" class="s2" d="m1347 729.1v-48.1h6.3v17.3q1.8-1.7 3.9-2.8 2.1-1.2 4.7-1.2 2.1 0 3.2 1 1.1 1.1 1.5 2.7 0.4 1.6 0.4 3.3v27.8h-6.3v-26q0-1.8-0.5-2.8-0.6-1-2.2-1-1.2 0-2.4 0.6-1.2 0.7-2.3 1.6v27.6z"/>
			<path id="&lt;Compound Path&gt;" fill-rule="evenodd" class="s2" d="m1382.7 729.5q-4 0-6.2-1.5-2.2-1.6-3.1-4.7-0.8-3-0.8-7.5v-7.8q0-4.6 0.9-7.6 0.9-3 3.1-4.6 2.2-1.5 6.1-1.5 4.4 0 6.4 1.8 2.1 1.7 2.7 5.1 0.7 3.3 0.7 8v2.8h-13.6v6.9q0 2.1 0.4 3.4 0.4 1.3 1.3 1.9 0.8 0.7 2.2 0.7 1.4 0 2.2-0.7 0.7-0.7 1-2 0.2-1.3 0.2-3v-2.1h6.2v1.3q0 5.2-2.2 8.2-2.2 2.9-7.5 2.9zm-3.8-20.9h7.3v-3.1q0-2.1-0.2-3.6-0.2-1.5-1-2.2-0.7-0.7-2.3-0.7-1.6 0-2.4 0.7-0.8 0.7-1.1 2.4-0.3 1.7-0.3 4.6z"/>
			<path id="&lt;Compound Path&gt;" fill-rule="evenodd" class="s2" d="m1404.4 729.5q-2 0-3.6-1.1-1.5-1.2-2.4-3-0.9-1.8-0.9-3.8 0-3.2 1.1-5.4 1-2.2 2.9-3.7 1.9-1.5 4.4-2.7 2.4-1.1 5.1-2.2v-2.4q0-2.1-0.2-3.4-0.2-1.4-1-2.1-0.7-0.7-2.2-0.7-1.3 0-2.1 0.6-0.8 0.6-1.2 1.7-0.3 1.1-0.3 2.6v1.7l-6.3-0.2q0.1-5.7 2.6-8.4 2.5-2.7 7.7-2.7 5.1 0 7.3 2.8 2.1 2.8 2.1 8v15.7q0 1.6 0.1 3.1 0.1 1.5 0.2 2.8 0.2 1.2 0.3 2.4h-5.8q-0.2-1-0.5-2.4-0.2-1.5-0.4-2.7-0.6 2-2.2 3.8-1.7 1.7-4.7 1.7zm2.5-5.4q0.9 0 1.8-0.6 0.8-0.5 1.5-1.2 0.6-0.7 0.8-1.1v-9.7q-1.4 0.8-2.7 1.7-1.4 0.8-2.3 1.7-1 0.9-1.6 2.1-0.5 1.1-0.5 2.6 0 2.1 0.7 3.3 0.8 1.2 2.3 1.2z"/>
			<path id="&lt;Compound Path&gt;" fill-rule="evenodd" class="s2" d="m1431.5 729.5q-4.4 0-6.5-3.1-2.1-3.2-2.1-10.8v-6.7q0-3.9 0.6-7.2 0.7-3.4 2.5-5.4 1.8-2 5.3-2 1.7 0 3.1 0.7 1.5 0.8 2.6 1.9v-15.9h6.4v48.1h-6.4v-2.2q-1.1 1.2-2.5 1.9-1.3 0.7-3 0.7zm1.6-4.9q0.9 0 1.9-0.4 1-0.3 2-1v-22.5q-0.8-0.6-1.8-1-1.1-0.4-2.2-0.4-2.2 0-3 2.1-0.8 2.1-0.8 5v9.7q0 2.4 0.3 4.3 0.3 2 1.1 3.1 0.8 1.1 2.5 1.1z"/>
			<path id="&lt;Compound Path&gt;" class="s2" d="m1450 726.9v-6.3l12.2-8.9-12.2-8.8v-6.4l17 12v6.4z"/>
		</g>
		<g id="&lt;Group&gt;">
			<path id="&lt;Compound Path&gt;" class="s2" d="m769.7 113.1l-17-12v-6.3l17-12.2v6.5l-12.2 8.8 12.2 8.9z"/>
			<path id="&lt;Compound Path&gt;" fill-rule="evenodd" class="s2" d="m776.9 115.3v-48.1h10.4q5.4 0 8.5 1.6 3.1 1.6 4.5 4.9 1.3 3.2 1.3 8.1v17.7q0 5.1-1.3 8.6-1.4 3.5-4.4 5.3-3 1.9-8 1.9zm6.7-4.9h3.8q3.7 0 5.2-1.4 1.6-1.4 1.9-4.1 0.3-2.8 0.3-6.6v-15.7q0-3.7-0.5-6-0.4-2.3-2-3.4-1.7-1.1-5.1-1.1h-3.6z"/>
			<path id="&lt;Compound Path&gt;" class="s2" d="m808.5 115.3v-48.1h6.6v48.1z"/>
			<path id="&lt;Compound Path&gt;" class="s2" d="m831.3 115.3l-10.8-48.1h6.3l7.6 35.4 7.3-35.4h6.1l-10.6 48.1z"/>
			<path id="&lt;Compound Path&gt;" class="s2" d="m852.6 113.1v-6.3l12.2-8.9-12.2-8.8v-6.5l17 12.1v6.4z"/>
		</g>
	</g>
	<g id="Tab">
		<g id="&lt;Group&gt;">
			<g id="&lt;Group&gt;">
				<path id="&lt;Path&gt;" class="s2" d="m661 567.4h-510.6v-491.9c0-9.4 7.6-17 17-17h476.6c9.4 0 17 7.6 17 17z"/>
				<path id="&lt;Compound Path&gt;" fill-rule="evenodd" class="s2" d="m661 568.4h-510.6c-0.6 0-1-0.5-1-1v-491.9c0-9.9 8.1-18 18-18h476.6c9.9 0 18 8.1 18 18v491.9c0 0.5-0.5 1-1 1zm-509.6-2h508.6v-490.9c0-8.8-7.2-16-16-16h-476.6c-8.8 0-16 7.2-16 16z"/>
			</g>
			<g id="&lt;Group&gt;">
				<path id="&lt;Path&gt;" class="s3" d="m672.6 555.8h-510.6v-491.9c0-9.4 7.6-17 17-17h476.6c9.4 0 17 7.6 17 17z"/>
				<path id="&lt;Compound Path&gt;" fill-rule="evenodd" class="s2" d="m672.6 556.8h-510.6c-0.6 0-1-0.5-1-1v-491.9c0-9.9 8.1-18 18-18h476.6c9.9 0 18 8.1 18 18v491.9c0 0.5-0.4 1-1 1zm-509.6-2h508.6v-490.9c0-8.8-7.2-16-16-16h-476.6c-8.8 0-16 7.2-16 16z"/>
			</g>
			<g id="&lt;Group&gt;">
				<path id="&lt;Path&gt;" class="s4" d="m672.6 95.5h-510.6v-31.6c0-9.4 7.6-17 17-17h476.6c9.4 0 17 7.6 17 17z"/>
				<path id="&lt;Compound Path&gt;" fill-rule="evenodd" class="s2" d="m672.6 96.5h-510.6c-0.6 0-1-0.4-1-1v-31.6c0-9.9 8.1-18 18-18h476.6c9.9 0 18 8.1 18 18v31.6c0 0.6-0.4 1-1 1zm-509.6-2h508.6v-30.6c0-8.8-7.2-16-16-16h-476.6c-8.8 0-16 7.2-16 16z"/>
			</g>
			<g id="&lt;Group&gt;">
				<g id="&lt;Group&gt;">
					<path id="&lt;Path&gt;" class="s3" d="m590.5 72.7c0-4.3-3.6-7.9-7.9-7.9-4.4 0-8 3.6-8 7.9 0 4.4 3.6 8 8 8 4.3 0 7.9-3.6 7.9-8z"/>
					<path id="&lt;Compound Path&gt;" fill-rule="evenodd" class="s2" d="m582.6 81.7c-5 0-9-4-9-9 0-4.9 4-8.9 9-8.9 4.9 0 8.9 4 8.9 8.9 0 5-4 9-8.9 9zm0-15.9c-3.9 0-7 3.1-7 6.9 0 3.9 3.1 7 7 7 3.8 0 6.9-3.1 6.9-7 0-3.8-3.1-6.9-6.9-6.9z"/>
				</g>
				<g id="&lt;Group&gt;">
					<path id="&lt;Path&gt;" class="s3" d="m614.3 72.7c0-4.3-3.6-7.9-8-7.9-4.3 0-7.9 3.6-7.9 7.9 0 4.4 3.6 8 7.9 8 4.4 0 8-3.6 8-8z"/>
					<path id="&lt;Compound Path&gt;" fill-rule="evenodd" class="s2" d="m606.3 81.7c-4.9 0-8.9-4-8.9-9 0-4.9 4-8.9 8.9-8.9 5 0 9 4 9 8.9 0 5-4 9-9 9zm0-15.9c-3.8 0-6.9 3.1-6.9 6.9 0 3.9 3.1 7 6.9 7 3.9 0 7-3.1 7-7 0-3.8-3.1-6.9-7-6.9z"/>
				</g>
				<g id="&lt;Group&gt;">
					<path id="&lt;Path&gt;" class="s2" d="m638.1 72.7c0-4.3-3.6-7.9-8-7.9-4.4 0-7.9 3.6-7.9 7.9 0 4.4 3.5 8 7.9 8 4.4 0 8-3.6 8-8z"/>
					<path id="&lt;Compound Path&gt;" fill-rule="evenodd" class="s2" d="m630.1 81.7c-4.9 0-8.9-4-8.9-9 0-4.9 4-8.9 8.9-8.9 4.9 0 9 4 9 8.9 0 5-4.1 9-9 9zm0-15.9c-3.8 0-6.9 3.1-6.9 6.9 0 3.9 3.1 7 6.9 7 3.8 0 7-3.1 7-7 0-3.8-3.2-6.9-7-6.9z"/>
				</g>
			</g>
		</g>
		<g id="&lt;Group&gt;">
			<g id="&lt;Group&gt;">
				<path id="&lt;Path&gt;" class="s2" d="m251.9 127.6h-37.5c-1.7 0-3-1.4-3-3 0-1.7 1.3-3 3-3h37.5c1.7 0 3 1.3 3 3 0 1.6-1.3 3-3 3z"/>
				<path id="&lt;Path&gt;" class="s5" d="m355.4 149.6h-141c-1.7 0-3-1.3-3-3 0-1.6 1.3-3 3-3h141c1.7 0 3 1.4 3 3 0 1.7-1.3 3-3 3z"/>
				<path id="&lt;Path&gt;" class="s5" d="m573.6 149.6h-141c-1.7 0-3-1.3-3-3 0-1.6 1.3-3 3-3h141c1.7 0 3 1.4 3 3 0 1.7-1.3 3-3 3z"/>
				<path id="&lt;Path&gt;" class="s2" d="m420.4 149.6h-55.8c-1.7 0-3-1.3-3-3 0-1.6 1.3-3 3-3h55.8c1.6 0 3 1.4 3 3 0 1.7-1.4 3-3 3z"/>
				<path id="&lt;Path&gt;" class="s2" d="m295.6 171.7h-81.2c-1.7 0-3-1.4-3-3 0-1.7 1.3-3 3-3h81.2c1.6 0 3 1.3 3 3 0 1.6-1.4 3-3 3z"/>
				<path id="&lt;Path&gt;" class="s2" d="m386.9 171.7h-81.2c-1.6 0-3-1.4-3-3 0-1.7 1.4-3 3-3h81.2c1.7 0 3 1.3 3 3 0 1.6-1.3 3-3 3z"/>
				<path id="&lt;Path&gt;" class="s2" d="m478.2 171.7h-81.2c-1.6 0-3-1.4-3-3 0-1.7 1.4-3 3-3h81.2c1.7 0 3 1.3 3 3 0 1.6-1.3 3-3 3z"/>
				<path id="&lt;Path&gt;" class="s2" d="m522.9 171.7h-34.5c-1.7 0-3-1.4-3-3 0-1.7 1.3-3 3-3h34.5c1.6 0 3 1.3 3 3 0 1.6-1.4 3-3 3z"/>
				<path id="&lt;Path&gt;" class="s2" d="m299.6 127.6h-37.5c-1.7 0-3-1.4-3-3 0-1.7 1.3-3 3-3h37.5c1.7 0 3 1.3 3 3 0 1.6-1.3 3-3 3z"/>
				<g id="&lt;Group&gt;">
					<path id="&lt;Path&gt;" class="s2" d="m522.9 127.6h-37.6c-1.6 0-3-1.4-3-3 0-1.7 1.4-3 3-3h37.6c1.6 0 3 1.3 3 3 0 1.6-1.4 3-3 3z"/>
					<path id="&lt;Path&gt;" class="s5" d="m473.2 127.6h-37.6c-1.7 0-3-1.4-3-3 0-1.7 1.3-3 3-3h37.6c1.6 0 3 1.3 3 3 0 1.6-1.4 3-3 3z"/>
					<path id="&lt;Path&gt;" class="s2" d="m419.4 127.6h-109.6c-1.7 0-3-1.4-3-3 0-1.7 1.3-3 3-3h109.6c1.6 0 3 1.3 3 3 0 1.6-1.4 3-3 3z"/>
				</g>
			</g>
			<g id="&lt;Group&gt;">
				<path id="&lt;Path&gt;" class="s2" d="m251.9 262.2h-37.5c-1.7 0-3-1.3-3-3 0-1.6 1.3-3 3-3h37.5c1.7 0 3 1.4 3 3 0 1.7-1.3 3-3 3z"/>
				<path id="&lt;Path&gt;" class="s5" d="m355.4 284.3h-141c-1.7 0-3-1.4-3-3 0-1.7 1.3-3 3-3h141c1.7 0 3 1.3 3 3 0 1.6-1.3 3-3 3z"/>
				<path id="&lt;Path&gt;" class="s2" d="m573.6 284.3h-141c-1.7 0-3-1.4-3-3 0-1.7 1.3-3 3-3h141c1.7 0 3 1.3 3 3 0 1.6-1.3 3-3 3z"/>
				<path id="&lt;Path&gt;" class="s2" d="m420.4 284.3h-55.8c-1.7 0-3-1.4-3-3 0-1.7 1.3-3 3-3h55.8c1.6 0 3 1.3 3 3 0 1.6-1.4 3-3 3z"/>
				<path id="&lt;Path&gt;" class="s2" d="m295.6 306.3h-81.2c-1.7 0-3-1.3-3-3 0-1.6 1.3-3 3-3h81.2c1.6 0 3 1.4 3 3 0 1.7-1.4 3-3 3z"/>
				<path id="&lt;Path&gt;" class="s2" d="m386.9 306.3h-81.2c-1.6 0-3-1.3-3-3 0-1.6 1.4-3 3-3h81.2c1.7 0 3 1.4 3 3 0 1.7-1.3 3-3 3z"/>
				<path id="&lt;Path&gt;" class="s5" d="m478.2 306.3h-81.2c-1.6 0-3-1.3-3-3 0-1.6 1.4-3 3-3h81.2c1.7 0 3 1.4 3 3 0 1.7-1.3 3-3 3z"/>
				<path id="&lt;Path&gt;" class="s2" d="m522.9 306.3h-34.5c-1.7 0-3-1.3-3-3 0-1.6 1.3-3 3-3h34.5c1.6 0 3 1.4 3 3 0 1.7-1.4 3-3 3z"/>
				<path id="&lt;Path&gt;" class="s2" d="m299.6 262.2h-37.5c-1.7 0-3-1.3-3-3 0-1.6 1.3-3 3-3h37.5c1.7 0 3 1.4 3 3 0 1.7-1.3 3-3 3z"/>
				<g id="&lt;Group&gt;">
					<path id="&lt;Path&gt;" class="s2" d="m522.9 262.2h-37.6c-1.6 0-3-1.3-3-3 0-1.6 1.4-3 3-3h37.6c1.6 0 3 1.4 3 3 0 1.7-1.4 3-3 3z"/>
					<path id="&lt;Path&gt;" class="s5" d="m473.2 262.2h-37.6c-1.7 0-3-1.3-3-3 0-1.6 1.3-3 3-3h37.6c1.6 0 3 1.4 3 3 0 1.7-1.4 3-3 3z"/>
					<path id="&lt;Path&gt;" class="s2" d="m419.4 262.2h-109.6c-1.7 0-3-1.3-3-3 0-1.6 1.3-3 3-3h109.6c1.6 0 3 1.4 3 3 0 1.7-1.4 3-3 3z"/>
				</g>
			</g>
			<g id="&lt;Group&gt;">
				<path id="&lt;Path&gt;" class="s2" d="m251.9 460.7h-37.5c-1.7 0-3-1.3-3-3 0-1.6 1.3-3 3-3h37.5c1.7 0 3 1.4 3 3 0 1.7-1.3 3-3 3z"/>
				<path id="&lt;Path&gt;" class="s5" d="m355.4 482.8h-141c-1.7 0-3-1.4-3-3 0-1.7 1.3-3 3-3h141c1.7 0 3 1.3 3 3 0 1.6-1.3 3-3 3z"/>
				<path id="&lt;Path&gt;" class="s2" d="m573.6 482.8h-141c-1.7 0-3-1.4-3-3 0-1.7 1.3-3 3-3h141c1.7 0 3 1.3 3 3 0 1.6-1.3 3-3 3z"/>
				<path id="&lt;Path&gt;" class="s2" d="m420.4 482.8h-55.8c-1.7 0-3-1.4-3-3 0-1.7 1.3-3 3-3h55.8c1.6 0 3 1.3 3 3 0 1.6-1.4 3-3 3z"/>
				<path id="&lt;Path&gt;" class="s2" d="m295.6 504.8h-81.2c-1.7 0-3-1.3-3-3 0-1.6 1.3-3 3-3h81.2c1.6 0 3 1.4 3 3 0 1.7-1.4 3-3 3z"/>
				<path id="&lt;Path&gt;" class="s2" d="m386.9 504.8h-81.2c-1.6 0-3-1.3-3-3 0-1.6 1.4-3 3-3h81.2c1.7 0 3 1.4 3 3 0 1.7-1.3 3-3 3z"/>
				<path id="&lt;Path&gt;" class="s5" d="m478.2 504.8h-81.2c-1.6 0-3-1.3-3-3 0-1.6 1.4-3 3-3h81.2c1.7 0 3 1.4 3 3 0 1.7-1.3 3-3 3z"/>
				<path id="&lt;Path&gt;" class="s2" d="m522.9 504.8h-34.5c-1.7 0-3-1.3-3-3 0-1.6 1.3-3 3-3h34.5c1.6 0 3 1.4 3 3 0 1.7-1.4 3-3 3z"/>
				<path id="&lt;Path&gt;" class="s2" d="m299.6 460.7h-37.5c-1.7 0-3-1.3-3-3 0-1.6 1.3-3 3-3h37.5c1.7 0 3 1.4 3 3 0 1.7-1.3 3-3 3z"/>
				<g id="&lt;Group&gt;">
					<path id="&lt;Path&gt;" class="s2" d="m522.9 460.7h-37.6c-1.6 0-3-1.3-3-3 0-1.6 1.4-3 3-3h37.6c1.6 0 3 1.4 3 3 0 1.7-1.4 3-3 3z"/>
					<path id="&lt;Path&gt;" class="s5" d="m473.2 460.7h-37.6c-1.7 0-3-1.3-3-3 0-1.6 1.3-3 3-3h37.6c1.6 0 3 1.4 3 3 0 1.7-1.4 3-3 3z"/>
					<path id="&lt;Path&gt;" class="s2" d="m419.4 460.7h-109.6c-1.7 0-3-1.3-3-3 0-1.6 1.3-3 3-3h109.6c1.6 0 3 1.4 3 3 0 1.7-1.4 3-3 3z"/>
				</g>
			</g>
			<g id="&lt;Group&gt;">
				<g id="&lt;Group&gt;">
					<path id="&lt;Path&gt;" class="s2" d="m463 194.9h-37.5c-1.7 0-3-1.3-3-3 0-1.6 1.3-3 3-3h37.5c1.7 0 3 1.4 3 3 0 1.7-1.3 3-3 3z"/>
					<path id="&lt;Path&gt;" class="s2" d="m413.3 194.9h-37.6c-1.6 0-3-1.3-3-3 0-1.6 1.4-3 3-3h37.6c1.6 0 3 1.4 3 3 0 1.7-1.4 3-3 3z"/>
					<path id="&lt;Path&gt;" class="s2" d="m359.5 194.9h-109.6c-1.7 0-3-1.3-3-3 0-1.6 1.3-3 3-3h109.6c1.7 0 3 1.4 3 3 0 1.7-1.3 3-3 3z"/>
				</g>
				<g id="&lt;Group&gt;">
					<path id="&lt;Path&gt;" class="s2" d="m463 234.4h-37.5c-1.7 0-3-1.4-3-3 0-1.7 1.3-3 3-3h37.5c1.7 0 3 1.3 3 3 0 1.6-1.3 3-3 3z"/>
					<path id="&lt;Path&gt;" class="s2" d="m413.3 234.4h-37.6c-1.6 0-3-1.4-3-3 0-1.7 1.4-3 3-3h37.6c1.6 0 3 1.3 3 3 0 1.6-1.4 3-3 3z"/>
					<path id="&lt;Path&gt;" class="s5" d="m359.5 234.4h-109.6c-1.7 0-3-1.4-3-3 0-1.7 1.3-3 3-3h109.6c1.7 0 3 1.3 3 3 0 1.6-1.3 3-3 3z"/>
				</g>
				<g id="&lt;Group&gt;">
					<path id="&lt;Path&gt;" class="s2" d="m287.4 214.6h-37.5c-1.7 0-3-1.3-3-3 0-1.6 1.3-3 3-3h37.5c1.7 0 3 1.4 3 3 0 1.7-1.3 3-3 3z"/>
					<path id="&lt;Path&gt;" class="s2" d="m337.2 214.6h-37.6c-1.6 0-3-1.3-3-3 0-1.6 1.4-3 3-3h37.6c1.6 0 3 1.4 3 3 0 1.7-1.4 3-3 3z"/>
					<path id="&lt;Path&gt;" class="s5" d="m463 214.6h-109.6c-1.6 0-3-1.3-3-3 0-1.6 1.4-3 3-3h109.6c1.7 0 3 1.4 3 3 0 1.7-1.3 3-3 3z"/>
				</g>
			</g>
			<g id="&lt;Group&gt;">
				<g id="&lt;Group&gt;">
					<path id="&lt;Path&gt;" class="s2" d="m463 333h-37.5c-1.7 0-3-1.3-3-3 0-1.6 1.3-3 3-3h37.5c1.7 0 3 1.4 3 3 0 1.7-1.3 3-3 3z"/>
					<path id="&lt;Path&gt;" class="s2" d="m413.3 333h-37.6c-1.6 0-3-1.3-3-3 0-1.6 1.4-3 3-3h37.6c1.6 0 3 1.4 3 3 0 1.7-1.4 3-3 3z"/>
					<path id="&lt;Path&gt;" class="s2" d="m359.5 333h-109.6c-1.7 0-3-1.3-3-3 0-1.6 1.3-3 3-3h109.6c1.7 0 3 1.4 3 3 0 1.7-1.3 3-3 3z"/>
				</g>
				<g id="&lt;Group&gt;">
					<path id="&lt;Path&gt;" class="s2" d="m463 372.5h-37.5c-1.7 0-3-1.3-3-3 0-1.6 1.3-3 3-3h37.5c1.7 0 3 1.4 3 3 0 1.7-1.3 3-3 3z"/>
					<path id="&lt;Path&gt;" class="s2" d="m413.3 372.5h-37.6c-1.6 0-3-1.3-3-3 0-1.6 1.4-3 3-3h37.6c1.6 0 3 1.4 3 3 0 1.7-1.4 3-3 3z"/>
					<path id="&lt;Path&gt;" class="s5" d="m359.5 372.5h-109.6c-1.7 0-3-1.3-3-3 0-1.6 1.3-3 3-3h109.6c1.7 0 3 1.4 3 3 0 1.7-1.3 3-3 3z"/>
				</g>
				<g id="&lt;Group&gt;">
					<path id="&lt;Path&gt;" class="s2" d="m287.4 352.8h-37.5c-1.7 0-3-1.4-3-3 0-1.7 1.3-3 3-3h37.5c1.7 0 3 1.3 3 3 0 1.6-1.3 3-3 3z"/>
					<path id="&lt;Path&gt;" class="s2" d="m337.2 352.8h-37.6c-1.6 0-3-1.4-3-3 0-1.7 1.4-3 3-3h37.6c1.6 0 3 1.3 3 3 0 1.6-1.4 3-3 3z"/>
					<path id="&lt;Path&gt;" class="s5" d="m463 352.8h-109.6c-1.6 0-3-1.4-3-3 0-1.7 1.4-3 3-3h109.6c1.7 0 3 1.3 3 3 0 1.6-1.3 3-3 3z"/>
				</g>
			</g>
			<g id="&lt;Group&gt;">
				<g id="&lt;Group&gt;">
					<path id="&lt;Path&gt;" class="s2" d="m287.4 395.7h-37.5c-1.7 0-3-1.3-3-3 0-1.6 1.3-3 3-3h37.5c1.7 0 3 1.4 3 3 0 1.7-1.3 3-3 3z"/>
					<path id="&lt;Path&gt;" class="s2" d="m337.2 395.7h-37.6c-1.6 0-3-1.3-3-3 0-1.6 1.4-3 3-3h37.6c1.6 0 3 1.4 3 3 0 1.7-1.4 3-3 3z"/>
					<path id="&lt;Path&gt;" class="s5" d="m463 395.7h-109.6c-1.6 0-3-1.3-3-3 0-1.6 1.4-3 3-3h109.6c1.7 0 3 1.4 3 3 0 1.7-1.3 3-3 3z"/>
				</g>
				<g id="&lt;Group&gt;">
					<path id="&lt;Path&gt;" class="s2" d="m287.4 435.2h-37.5c-1.7 0-3-1.3-3-3 0-1.7 1.3-3 3-3h37.5c1.7 0 3 1.3 3 3 0 1.7-1.3 3-3 3z"/>
					<path id="&lt;Path&gt;" class="s2" d="m337.2 435.2h-37.6c-1.6 0-3-1.3-3-3 0-1.7 1.4-3 3-3h37.6c1.6 0 3 1.3 3 3 0 1.7-1.4 3-3 3z"/>
					<path id="&lt;Path&gt;" class="s5" d="m463 435.2h-109.6c-1.6 0-3-1.3-3-3 0-1.7 1.4-3 3-3h109.6c1.7 0 3 1.3 3 3 0 1.7-1.3 3-3 3z"/>
				</g>
				<g id="&lt;Group&gt;">
					<path id="&lt;Path&gt;" class="s2" d="m463 415.5h-37.5c-1.7 0-3-1.4-3-3 0-1.7 1.3-3 3-3h37.5c1.7 0 3 1.3 3 3 0 1.6-1.3 3-3 3z"/>
					<path id="&lt;Path&gt;" class="s2" d="m413.3 415.5h-37.6c-1.6 0-3-1.4-3-3 0-1.7 1.4-3 3-3h37.6c1.6 0 3 1.3 3 3 0 1.6-1.4 3-3 3z"/>
					<path id="&lt;Path&gt;" class="s5" d="m359.5 415.5h-109.6c-1.7 0-3-1.4-3-3 0-1.7 1.3-3 3-3h109.6c1.7 0 3 1.3 3 3 0 1.6-1.3 3-3 3z"/>
				</g>
			</g>
			<g id="&lt;Group&gt;">
				<path id="&lt;Path&gt;" class="s2" d="m200.5 130.5h-12v-13.6h12z"/>
				<path id="&lt;Path&gt;" class="s2" d="m200.5 152.7h-12v-13.5h12z"/>
				<path id="&lt;Path&gt;" class="s2" d="m200.5 175h-12v-13.6h12z"/>
				<path id="&lt;Path&gt;" class="s2" d="m200.5 197.2h-12v-13.5h12z"/>
				<path id="&lt;Path&gt;" class="s2" d="m200.5 219.5h-12v-13.6h12z"/>
				<path id="&lt;Path&gt;" class="s2" d="m200.5 241.7h-12v-13.5h12z"/>
				<path id="&lt;Path&gt;" class="s2" d="m200.5 264h-12v-13.6h12z"/>
				<path id="&lt;Path&gt;" class="s2" d="m200.5 286.2h-12v-13.5h12z"/>
				<path id="&lt;Path&gt;" class="s2" d="m200.5 308.5h-12v-13.6h12z"/>
				<path id="&lt;Path&gt;" class="s2" d="m200.5 330.7h-12v-13.5h12z"/>
				<path id="&lt;Path&gt;" class="s2" d="m200.5 353h-12v-13.6h12z"/>
				<path id="&lt;Path&gt;" class="s2" d="m200.5 375.2h-12v-13.5h12z"/>
				<path id="&lt;Path&gt;" class="s2" d="m200.5 397.5h-12v-13.6h12z"/>
				<path id="&lt;Path&gt;" class="s2" d="m200.5 419.7h-12v-13.5h12z"/>
				<path id="&lt;Path&gt;" class="s2" d="m200.5 442h-12v-13.6h12z"/>
				<path id="&lt;Path&gt;" class="s2" d="m200.5 464.2h-12v-13.5h12z"/>
				<path id="&lt;Path&gt;" class="s2" d="m200.5 486.5h-12v-13.6h12z"/>
				<path id="&lt;Path&gt;" class="s2" d="m200.5 508.7h-12v-13.5h12z"/>
			</g>
		</g>
	</g>
	<g id="Character 3">
		<g id="&lt;Group&gt;">
			<g id="&lt;Group&gt;">
				<g id="&lt;Group&gt;">
					<path id="&lt;Path&gt;" class="s6" d="m1030.8 454l11.8 44.8c0 0-7 8.4-16.5 23.1-9.4 14.6-26.9 41.9-34.4 49.5-7.5 7.5-10.9 8.9-10.9 8.9 0 0-16.9-1.4-24.5 1-7.5 2.3-16.5 9.9-17.9 11.3-1.4 1.4 58.5 0 58.5 0 0 0 3.8 0 7.5-6.1 3.8-6.2 43.9-31.6 57.6-50.5 13.6-18.9 17.9-31.1 17.9-31.1 0 0-30.7-42.9-34-47.2-3.3-4.2-14.1-8.9-15.1-3.7z"/>
					<path id="&lt;Compound Path&gt;" fill-rule="evenodd" class="s2" d="m955.1 594.2c-17.1 0-17.4-0.6-17.6-1.1-0.2-0.4-0.1-0.9 0.2-1.2 1.1-1.1 10.3-9.1 18.3-11.6 7.2-2.2 22.3-1.2 24.7-1 0.8-0.4 4-2.4 10.3-8.6 7-7 22.9-31.8 32.4-46.5l1.9-2.9c8.2-12.7 14.7-20.9 16.2-22.8l-11.6-44.3q-0.1-0.2 0-0.4c0.2-1.5 1.2-2.6 2.8-3 3.9-0.9 11.2 2.7 14 6.3 3.3 4.2 32.7 45.5 34 47.2 0.2 0.3 0.2 0.6 0.1 0.9-0.1 0.5-4.4 12.6-18 31.4-8.5 11.7-27.3 26.1-41 36.6-8.1 6.2-15.2 11.6-16.5 13.8-4 6.5-8.2 6.6-8.4 6.6-19.8 0.5-33 0.6-41.8 0.6zm-14.6-2.2c7.5 0.5 36.6 0.1 56.4-0.4 0 0 3.3-0.2 6.7-5.7 1.5-2.5 8-7.4 17-14.3 13.6-10.4 32.2-24.7 40.6-36.2 11.9-16.4 16.6-27.9 17.6-30.4-3.3-4.5-30.6-42.7-33.7-46.7-2.3-2.9-8.8-6.3-12-5.5-0.7 0.2-1.1 0.5-1.2 1.1l11.7 44.6c0.1 0.3 0 0.6-0.2 0.9-0.1 0.1-7.2 8.6-16.4 23l-1.9 2.9c-9.5 14.8-25.5 39.6-32.7 46.8-7.6 7.6-11 9.1-11.2 9.2q-0.2 0.1-0.4 0c-0.2 0-16.9-1.3-24.2 0.9-5.8 1.9-12.9 7.1-16.1 9.8z"/>
				</g>
				<g id="&lt;Group&gt;">
					<path id="&lt;Path&gt;" class="s0" d="m1072.6 494.7c-9.3-12.9-24.4-34.1-26.7-37-3.3-4.2-14.1-8.9-15.1-3.7l10.2 38.6c6.6 2.8 20.1 7.1 31.6 2.1z"/>
					<path id="&lt;Compound Path&gt;" fill-rule="evenodd" class="s2" d="m1060.8 498c-8 0-15.5-2.5-20.2-4.4-0.3-0.2-0.5-0.4-0.6-0.7l-10.1-38.7q-0.1-0.2 0-0.4c0.2-1.5 1.2-2.6 2.8-3 3.9-0.9 11.2 2.7 14 6.3 2.3 3 17.7 24.5 26.7 37 0.2 0.3 0.3 0.6 0.2 0.9-0.1 0.3-0.3 0.5-0.6 0.7-4 1.6-8.2 2.3-12.2 2.3zm-18.9-6.1c6.6 2.7 18.6 6.3 29.2 2.4-9.1-12.7-23.8-33.1-26-36-2.3-2.9-8.8-6.3-12-5.5-0.7 0.2-1.1 0.5-1.2 1.1z"/>
				</g>
				<path id="&lt;Path&gt;" class="s2" d="m949.3 594.5c-0.9 0-5 0-6.6-1.9-0.5-0.6-0.7-1.3-0.6-2 0.4-2.5 4-3.7 10.9-3.7 0.8 0 2.7-0.8 4.4-1.5 1.9-0.8 3.9-1.6 5.4-1.8 2.9-0.5 12.5 0.4 13 0.5 0.5 0 0.9 0.5 0.9 1.1-0.1 0.5-0.6 0.9-1.1 0.9-2.8-0.3-10.3-0.9-12.5-0.5-1.3 0.2-3.1 0.9-4.9 1.7-2.2 0.8-4 1.6-5.2 1.6-8.3 0-8.9 1.8-8.9 2 0 0.2 0 0.3 0.1 0.4 0.7 0.9 3.4 1.2 5.1 1.2 0.5 0 1 0.5 1 1 0 0.6-0.5 1-1 1z"/>
			</g>
			<g id="&lt;Group&gt;">
				<path id="&lt;Path&gt;" class="s2" d="m1086 553.9c0 0-52.5 142.7-54.5 151.4-2 8.6-9.3 112.3-10 114.3-0.7 2-6.6 57.1-6.6 57.1 0 0-10.7 10.7-18 16-7.3 5.3-22.6 7.3-25.2 14.6-2.7 7.3 15.3 7.3 17.9 6.6 2.7-0.6 52.5-2.6 52.5-2.6 0 0 15.3 3.3 16.6-4 1.4-7.3-4.6-37.2-4.6-37.2 0 0 6.6-17.3 7.9-22.6 1.4-5.3 1.4-12.6 2-14.6 0.7-2 27.9-114.3 27.9-114.3l47.9-85.9 16.6 7.3 37.2 85.2 79.1 129.6-6 11.3 6 14.6c0 0-8.6 29.2-6 32.6 2.7 3.3 49.2 0 49.2 0 0 0 4.6 1.3 5.3-6.7 0.7-8-2-15.3-2-15.3 0 0-5.3-11.3-6-13.3-0.6-1.9 0-10.6-0.6-15.2-0.7-4.7-7.3-14.7-9.3-20-2-5.3-49.9-130.9-49.9-130.9l-31.2-169.3-127.6-4.6z"/>
				<path id="&lt;Compound Path&gt;" fill-rule="evenodd" class="s2" d="m1281.7 915.7c-8.1 0-14.6-0.4-15.8-1.8-2.7-3.4 3.6-25.8 5.7-33.1l-5.8-14.3c-0.1-0.3-0.1-0.6 0-0.9l5.7-10.8-78.7-129.1-37.2-85-15.4-6.8-47.3 85c-1.5 6.2-27.2 112.3-27.9 114.3-0.3 0.7-0.4 2.6-0.6 4.7-0.3 3-0.6 6.7-1.4 9.8-1.2 5-7 20.2-7.9 22.5 0.7 3.2 5.9 30.2 4.6 37.3q-0.4 2.3-2.5 3.7c-4.6 3.1-13.9 1.3-15.2 1.1-20 0.8-50.3 2.1-52.1 2.6-2.1 0.5-14.6 0.9-18.4-3.4-1.1-1.2-1.4-2.8-0.8-4.6 1.8-4.9 8.5-7.5 15-10 3.9-1.5 7.9-3.1 10.6-5 6.6-4.8 16-14 17.6-15.6 0.8-7.1 6-55 6.7-57 0.2-1.1 1.5-18 2.9-35.9 2.6-32.5 5.8-73 7-78.3 2-8.7 52.4-145.7 54.6-151.6q0 0 0-0.1l8.6-15.9q0.3-0.5 0.9-0.5l127.6 4.6c0.5 0 0.9 0.4 1 0.8l31.2 169.3c0.4 1.1 47.8 125.5 49.8 130.8 0.8 2.1 2.3 5 4 8 2.4 4.5 4.9 9.2 5.4 12.1 0.3 2.4 0.3 5.8 0.3 8.8 0 2.7 0 5.5 0.3 6.3 0.5 1.6 4.1 9.3 5.9 13.2 0.2 0.4 2.8 7.7 2.1 15.8-0.3 3.4-1.3 5.7-3 6.8-1.4 1-2.9 0.9-3.4 0.8-6.7 0.4-22.1 1.4-34.1 1.4zm-13.9-49.6l5.8 14.2q0.2 0.4 0.1 0.7c-4.1 13.8-7.6 29.8-6.2 31.6 2 1.8 26.1 1.3 48.3-0.3q0.2 0 0.4 0c0 0 1 0.3 1.9-0.4 1.2-0.8 1.9-2.7 2.1-5.4 0.6-7.6-1.9-14.8-1.9-14.8-0.2-0.4-5.3-11.3-6-13.3-0.4-1.1-0.4-3.4-0.4-7 0-2.9 0-6.2-0.3-8.5-0.4-2.6-2.9-7.3-5.2-11.5-1.7-3.1-3.2-6-4.1-8.2-1.9-5.3-49.3-129.7-49.8-130.9l-31.1-168.7-126.2-4.6-8.3 15.3c-1.4 3.8-52.5 142.8-54.4 151.2-1.3 5.3-4.6 47.3-7 78.1-2 25.7-2.8 35.5-3 36.3-0.5 1.7-4.3 35-6.6 56.9q-0.1 0.4-0.3 0.6c-0.5 0.5-10.8 10.8-18.1 16.1-2.9 2.1-7.1 3.7-11.1 5.3-6 2.3-12.3 4.8-13.8 8.8-0.4 1.1-0.2 1.9 0.4 2.6 2.9 3.1 14.1 3.3 16.4 2.8 2.6-0.7 47.6-2.5 52.7-2.7q0.1 0 0.2 0c0.1 0 9.6 2 13.8-0.7q1.4-0.9 1.6-2.5c1.3-7-4.6-36.5-4.6-36.8q-0.1-0.3 0-0.6c0.1-0.2 6.7-17.3 8-22.5 0.7-2.9 1-6.6 1.3-9.5 0.2-2.3 0.4-4.2 0.7-5.2 0.6-1.7 18.5-75.4 27.9-114.2q0-0.1 0.1-0.2l47.8-85.9c0.3-0.5 0.8-0.7 1.3-0.5l16.6 7.3q0.4 0.2 0.5 0.6l37.2 85.2 79 129.5c0.2 0.3 0.2 0.6 0.1 1zm-253 10.5z"/>
			</g>
			<g id="&lt;Group&gt;">
				<g id="&lt;Group&gt;">
					<path id="&lt;Path&gt;" class="s6" d="m1036 385.1c0 0-19.8 9.4-21.2 38.7-1.4 29.2 33 49.5 33 49.5 0 0 18.9 22.2 31.1 35.8 12.3 13.7 7 15.9 8 18.3 0.9 2.3-0.9 26.5-0.9 26.5 0 0 55.2 14.1 88.7 11.3 33.5-2.8 49-11.8 49-11.8 0 0 3.6-14.4-2.6-33.7-6.1-19.4-12-29.4-12.5-33.7-0.4-4.2-24.5-77.8-24.5-77.8 0 0 32.5 5.7 48.1 7.1 15.6 1.4 15.6 1.4 15.6 1.4 0 0 9.4 42.9 16.5 65.6 7 22.6 10.8 48.5 15.1 51.4 4.2 2.8 13.2 2.8 16 4.2 2.8 1.4 7.5 11.8 11.8 14.1 4.2 2.4 4.2-2.3 4.2-2.3 0 0 5.2 0.5 5.7-2.4 0.5-2.8 6.1-8.9 2.8-14.6-3.3-5.6-34.4-15.1-34.4-15.1 0 0-4.3-105.1-6.6-118.3-2.4-13.3-2.4-13.3-2.4-13.3 0 0-34.9-17.9-44.8-20.7-9.9-2.8-37.2-9.9-37.2-9.9 0 0-20.8-15.6-46.2-13.2-25.5 2.3-47.7 9-52.4 10.4-4.7 1.4-15.1 8-15.1 8z"/>
					<path id="&lt;Compound Path&gt;" fill-rule="evenodd" class="s2" d="m1165.2 566.6c-33.3 0-78.9-11.6-79.4-11.8-0.5-0.1-0.8-0.5-0.8-1 0.8-9.9 1.5-24.5 0.9-26.1-0.3-0.8-0.1-1.6 0.1-2.4 0.4-2 1.2-5.5-7.8-15.5-11.7-13-29.5-33.9-31-35.7-2.5-1.6-34.8-21.9-33.4-50.4 1.4-28.9 20.8-39 21.8-39.5l44.7-24.5c0.4-0.2 10.5-6.7 15.3-8.1 10-3 30.1-8.3 52.6-10.4 24.3-2.3 44.7 11.8 46.7 13.3 2.4 0.6 27.7 7.2 37.1 9.8 9.9 2.9 43.6 20.1 45 20.9 0.3 0.1 0.5 0.4 0.5 0.7l2.4 13.2c2.2 12.7 6.2 107.8 6.6 117.8 5.3 1.6 31.1 9.8 34.3 15.3 2.6 4.5 0.1 9.3-1.5 12.5-0.6 1.1-1.1 2.1-1.2 2.8-0.5 2.6-3.5 3.2-5.8 3.2q0 0 0 0c-0.1 0.9-0.6 2-1.6 2.6q-1.6 1-4-0.4c-2.5-1.4-5-5-7.3-8.5-1.7-2.5-3.4-5.1-4.5-5.6-0.9-0.5-3.1-0.8-5.3-1.2-3.8-0.6-8.1-1.3-10.8-3.1-2.7-1.8-4.7-9.7-8.3-24.6-2-8.5-4.3-18.2-7.2-27.4-6.5-20.8-15.1-59.2-16.4-64.9l-14.8-1.3c-13.4-1.2-39.7-5.7-46.5-6.8 3.6 11 23.6 72.4 24 76.4 0.2 1.8 1.5 4.9 3.4 9.2 2.4 5.7 5.7 13.5 9.1 24.3 6.1 19.4 2.7 33.6 2.6 34.2-0.1 0.3-0.3 0.5-0.5 0.7-0.6 0.3-16.1 9.1-49.4 11.9-3.1 0.2-6.3 0.4-9.6 0.4zm-78.1-13.5c6.9 1.7 56.8 13.7 87.5 11.1 30-2.5 45.7-10.1 48.2-11.5 0.5-2.5 2.8-15.7-2.6-32.7-3.4-10.7-6.7-18.5-9.1-24.1-1.9-4.7-3.2-7.7-3.5-9.8-0.3-3.2-16.1-52.2-24.4-77.6-0.2-0.3-0.1-0.7 0.1-0.9 0.3-0.3 0.6-0.4 1-0.4 0.3 0.1 32.6 5.7 48 7.1l15.6 1.4c0.4 0 0.7 0.4 0.8 0.8 0.1 0.4 9.5 43.1 16.5 65.5 2.9 9.2 5.2 18.9 7.3 27.4 2.7 11.3 5.2 22 7.4 23.4 2.4 1.6 6.6 2.3 10 2.8 2.5 0.4 4.7 0.8 5.9 1.4 1.6 0.8 3.3 3.3 5.3 6.3 2.1 3.1 4.5 6.7 6.6 7.9 0.9 0.5 1.6 0.6 2 0.4 0.5-0.3 0.7-1.4 0.7-1.9 0-0.3 0.1-0.6 0.4-0.8q0.3-0.2 0.7-0.2c1.1 0.1 4.3 0 4.6-1.5 0.2-1 0.8-2.1 1.4-3.5 1.6-3.1 3.6-6.9 1.6-10.5-2.3-3.9-21.5-10.9-33.9-14.6-0.4-0.1-0.7-0.5-0.7-0.9-0.1-1.1-4.3-105.3-6.6-118.3l-2.3-12.7c-4-2.1-35-17.8-44.1-20.4-9.8-2.8-37-9.9-37.3-9.9q-0.2-0.1-0.3-0.2c-0.2-0.2-20.8-15.3-45.5-13-22.3 2.1-42.3 7.3-52.2 10.3-4.5 1.4-14.7 7.9-14.8 7.9l-44.9 24.6q0 0 0 0c-0.2 0.1-19.3 9.6-20.7 37.8-1.4 28.3 32.2 48.4 32.5 48.6q0.2 0.1 0.3 0.2c0.2 0.3 19 22.4 31.1 35.9 9.7 10.8 8.8 14.9 8.2 17.3-0.1 0.6-0.2 0.9-0.1 1.2 0.9 2.3-0.3 20.6-0.7 26.1zm-51.1-168z"/>
				</g>
				<path id="&lt;Path&gt;" class="s2" d="m1311.4 550.7c-0.4 0-0.8-0.3-0.9-0.8l-3.2-12.8c-3.7-2.1-8.1-4.3-9.1-4.3-0.5 0-1-0.5-1-1 0-0.6 0.5-1 1-1 2 0 8.5 3.7 10.4 4.8 0.3 0.2 0.4 0.4 0.5 0.6l3.3 13.2c0.1 0.6-0.2 1.1-0.7 1.3q-0.2 0-0.3 0z"/>
				<g id="&lt;Group&gt;">
					<path id="&lt;Path&gt;" class="s7" d="m1208.6 486c-0.4-4.2-24.5-77.8-24.5-77.8 0 0 15.8 2.8 30.7 4.9l5.5-50.9c-11.6-3.1-25.8-6.8-25.8-6.8 0 0-20.8-15.6-46.2-13.2-25.5 2.3-47.7 9-52.4 10.4-4.7 1.4-15.1 8-15.1 8l-44.8 24.5c0 0-19.8 9.4-21.2 38.7-1.4 29.2 33 49.5 33 49.5 0 0 18.9 22.2 31.1 35.8 12.3 13.7 7 15.9 8 18.3 0.9 2.3-0.9 26.5-0.9 26.5 0 0 55.2 14.1 88.7 11.3 33.5-2.8 49-11.8 49-11.8 0 0 3.6-14.4-2.6-33.7-6.1-19.4-12-29.4-12.5-33.7z"/>
					<path id="&lt;Compound Path&gt;" fill-rule="evenodd" class="s2" d="m1165.2 566.6c-33.3 0-78.9-11.6-79.4-11.8-0.5-0.1-0.8-0.5-0.8-1 0.8-9.9 1.5-24.5 0.9-26.1-0.3-0.8-0.1-1.6 0.1-2.4 0.4-2 1.2-5.5-7.8-15.5-11.7-13-29.5-33.9-31-35.7-2.5-1.6-34.8-21.9-33.4-50.4 1.4-29.5 21.6-39.4 21.8-39.5l44.7-24.5c0.4-0.2 10.5-6.7 15.3-8.1 10-3 30.1-8.3 52.6-10.4 24.3-2.3 44.7 11.8 46.7 13.3 1.7 0.4 14.8 3.8 25.7 6.7 0.4 0.1 0.7 0.6 0.7 1.1l-5.5 50.9c-0.1 0.3-0.2 0.5-0.4 0.7-0.2 0.2-0.5 0.2-0.8 0.2-11.9-1.7-24.6-3.9-29-4.6 3.6 11 23.6 72.4 24 76.4 0.2 1.8 1.5 4.9 3.4 9.2 2.4 5.7 5.7 13.5 9.1 24.3 6.1 19.4 2.7 33.6 2.6 34.2-0.1 0.3-0.3 0.5-0.5 0.7-0.6 0.3-16.1 9.1-49.4 11.9-3.1 0.2-6.3 0.4-9.6 0.4zm-78.1-13.5c6.9 1.7 56.8 13.7 87.5 11.1 30-2.5 45.7-10.1 48.2-11.5 0.5-2.5 2.8-15.7-2.6-32.7-3.4-10.7-6.7-18.5-9.1-24.1-1.9-4.7-3.2-7.7-3.5-9.8-0.3-3.2-16.1-52.2-24.4-77.6-0.2-0.3-0.1-0.7 0.1-0.9 0.3-0.3 0.6-0.4 1-0.4 0.1 0.1 15.2 2.7 29.6 4.8l5.3-49.1c-11.5-3-25-6.5-25-6.5q-0.2-0.1-0.3-0.2c-0.2-0.2-20.8-15.3-45.5-13-22.3 2.1-42.3 7.3-52.2 10.3-4.5 1.4-14.7 7.9-14.8 7.9l-44.9 24.6c-0.2 0.1-19.3 9.6-20.7 37.8-1.4 28.3 32.2 48.4 32.5 48.6q0.2 0.1 0.3 0.2c0.2 0.3 19 22.4 31.1 35.9 9.7 10.8 8.8 14.9 8.2 17.3-0.1 0.6-0.2 0.9-0.1 1.2 0.9 2.3-0.3 20.6-0.7 26.1z"/>
				</g>
			</g>
			<g id="&lt;Group&gt;">
				<g id="&lt;Group&gt;">
					<path id="&lt;Path&gt;" class="s6" d="m1001 330c0 0 14.9 33.5 17.8 40.7 2.8 7.2 22.6 29 26.3 32.5 6.2 6.1 18.7 2.4 18.7 2.4 0 0 13.8 9.1 24.4 2.9 10.5-6.2 14.3-16.3 11.5-28.7-2.9-12.4-10.1-25.8-10.1-25.9 0.2 0.5 5.9-6.6 6.1-7.3 2.1-4.7 1.4-12.4-0.7-17.1-0.9-2.1-2.2-3.8-4.4-4.5-0.2-0.1-2.9-0.3-2.9-0.3 0 0-11.5-28.2-19.6-36.8-8.2-8.6-30.1-9-48.3 3.4-18.2 12.4-23.5 26.7-18.8 38.7z"/>
					<path id="&lt;Compound Path&gt;" fill-rule="evenodd" class="s2" d="m1079.7 411.7c-7.5 0-14.4-3.9-16.1-5-2.4 0.7-13.2 3.1-19.2-2.7-3.5-3.4-23.6-25.5-26.6-32.9-2.8-7.1-17.5-40.3-17.7-40.7q0 0 0 0c-5.3-13.4 1.6-27.9 19.2-39.9 18.8-12.9 41.2-12.1 49.5-3.3 7.1 7.5 17.6 31.2 19.6 36.5 1.1 0 2.5 0.3 2.5 0.3 2.9 1 4.3 3.4 5 5.1 2.1 4.8 2.9 12.8 0.8 17.9-0.1 0.1-3.7 5.2-5.8 7.2 1.5 3 7.2 14.6 9.7 25.4 3.1 13.1-1.1 23.4-11.9 29.8-2.9 1.7-6 2.3-9 2.3zm-15.9-7q0.3 0 0.5 0.1c0.1 0.1 13.5 8.7 23.4 2.9 10-6 13.8-15.5 11-27.7-2.8-12.2-9.9-25.4-10-25.6q0 0 0 0c-0.2-0.5-0.1-1.1 0.4-1.3q0.1-0.1 0.2-0.1c1-0.9 5.1-6 5.5-6.8 2-4.6 1.2-11.9-0.7-16.3-1-2.2-2.1-3.4-3.8-4-0.2 0-2-0.2-2.4-0.2q-0.2 0.1-0.3 0c-0.4 0-0.7-0.2-0.8-0.6-0.1-0.3-11.5-28.1-19.5-36.5-7.7-8.2-28.9-8.8-46.9 3.5-16.7 11.4-23.4 25.1-18.4 37.5 0.4 0.9 14.9 33.7 17.7 40.7 2.7 6.8 21.9 28.2 26.1 32.2 5.7 5.6 17.6 2.2 17.7 2.2q0.1 0 0.3 0z"/>
				</g>
				<g id="&lt;Group&gt;">
					<path id="&lt;Path&gt;" class="s2" d="m1087.7 324.7c0 0-11.5-28.2-19.6-36.8-8.2-8.6-30.1-9-48.3 3.4-18.2 12.4-23.5 26.7-18.8 38.7 0 0 0.4 0.9 1.1 2.4 0 0 0.4-5.3 3.8-4.5 3.4 0.7 18.1 6.7 27.5 0.3 9.4-6.4 12.8-12.4 19.2-12.4 6.4 0 12.8 10.9 16.2 17 3.4 6 11.7 2.2 11.7 2.2 0 0 2.7-8.8 7.2-10.3z"/>
					<path id="&lt;Compound Path&gt;" fill-rule="evenodd" class="s2" d="m1075.2 337.2c-2.7 0-5.6-1-7.3-3.9-2.5-4.5-9.2-16.5-15.3-16.5-3.7 0-6.3 2.3-10.3 5.7-2.3 2-4.9 4.2-8.3 6.6-8.5 5.7-20.5 2.1-26.3 0.3-0.8-0.2-1.6-0.5-2-0.6-0.7-0.1-1 0.1-1.2 0.2-1 0.8-1.3 2.8-1.4 3.5q0 0.4-0.3 0.6-0.4 0.3-0.8 0.3c-0.3 0-0.7-0.3-0.8-0.6l-1.1-2.4c-5.3-13.4 1.6-27.9 19.2-39.9 18.8-12.9 41.2-12.1 49.5-3.3 7.8 8.3 19.9 36.5 19.9 37.5 0 0.5-0.3 0.9-0.7 1-3.3 1-5.8 7.3-6.5 9.6-0.1 0.3-0.3 0.5-0.6 0.6-1.4 0.7-3.5 1.3-5.7 1.3zm-22.6-22.4c6.4 0 12.5 9.3 17.1 17.5 2.5 4.5 8.4 2.6 10 2 0.6-1.8 2.9-8 6.7-10.1-2-4.9-11.9-28.1-19.1-35.6-7.7-8.2-28.9-8.8-46.9 3.5-16.5 11.3-23.3 24.9-18.6 37.2 0.4-0.7 0.8-1.4 1.5-1.9 0.8-0.6 1.7-0.7 2.8-0.5 0.5 0.1 1.3 0.3 2.2 0.6 5.5 1.7 16.9 5.1 24.5-0.1 3.4-2.3 5.9-4.5 8.2-6.4 4.1-3.6 7.1-6.2 11.6-6.2z"/>
				</g>
				<g id="&lt;Group&gt;">
					<path id="&lt;Path&gt;" class="s2" d="m1063.8 405.6c0 0 6.5-1.6 10.3-5.7 3.8-4.2 7.2-13.2 7.2-13.2l-1.2 23c0 0-0.7 0.7-6 0-5.3-0.8-10.3-4.1-10.3-4.1z"/>
					<path id="&lt;Compound Path&gt;" fill-rule="evenodd" class="s2" d="m1078 411c-1.3 0-2.7-0.2-4-0.4-5.5-0.7-10.6-4-10.8-4.1-0.3-0.2-0.5-0.6-0.4-1 0-0.4 0.3-0.7 0.7-0.8 0.1 0 6.3-1.7 9.9-5.5 3.6-4 6.9-12.8 6.9-12.9 0.2-0.4 0.7-0.7 1.2-0.6 0.4 0.1 0.8 0.5 0.8 1l-1.2 23q0 0.4-0.3 0.7c-0.4 0.4-1.5 0.6-2.8 0.6zm-11.8-5.1c1.9 1 5 2.3 8 2.8 3 0.4 4.3 0.3 5 0.2l0.8-16.7c-1.4 2.8-3.2 6.2-5.2 8.3-2.5 2.8-6.2 4.5-8.6 5.4z"/>
				</g>
				<path id="&lt;Path&gt;" class="s2" d="m1044.8 384.3c-1.2 0-2.2-0.1-2.9-0.5-2.9-1.7-3.7-9.1-3.9-10.6 0-0.6 0.4-1.1 1-1.1 0.5-0.1 1 0.4 1 0.9 0.3 3.2 1.4 8.2 2.9 9 1.1 0.6 4.7 0.4 8.3-1 2.3-0.9 3.9-2 4.2-2.9 0.2-0.6 0.8-0.9 1.3-0.7 0.5 0.2 0.8 0.8 0.6 1.3-0.6 2-3.3 3.4-5.4 4.2-2.2 0.8-4.9 1.4-7.1 1.4z"/>
				<path id="&lt;Path&gt;" class="s2" d="m1047.5 390.8c-1.2 0-2.1-0.1-2.2-0.1-0.5-0.1-0.9-0.6-0.8-1.2 0-0.5 0.6-0.9 1.1-0.8 0.1 0 9.7 1.3 15.3-6 0.3-0.5 0.9-0.6 1.4-0.2 0.4 0.3 0.5 0.9 0.2 1.4-4.7 6-11.5 6.9-15 6.9z"/>
				<path id="&lt;Path&gt;" class="s2" d="m1054.7 361.4c-1.3 0-2.2-0.1-2.3-0.1-0.5-0.1-0.9-0.7-0.8-1.2 0.1-0.6 0.7-0.9 1.2-0.8 0.3 0 7.4 1.3 11.4-4.5 0.4-0.5 1-0.6 1.4-0.2 0.5 0.3 0.6 0.9 0.3 1.4-3.4 4.7-8.3 5.4-11.2 5.4z"/>
				<path id="&lt;Path&gt;" class="s2" d="m1047 354c-0.6 0-1.1-0.2-1.5-0.7-0.8-0.8-0.7-2 0.1-2.8 0.2-0.2 5.6-5 16.1-5 1.1 0 2 0.9 2 2 0 1.1-0.9 2-2 2-8.8 0-13.3 3.9-13.4 4-0.4 0.3-0.9 0.5-1.3 0.5z"/>
				<path id="&lt;Path&gt;" class="s2" d="m1017.9 361.1q-0.6 0-1.1-0.3c-0.9-0.7-1.1-1.9-0.5-2.8 5.1-6.9 15.2-2.4 15.7-2.2 1 0.5 1.4 1.7 0.9 2.7-0.4 1-1.6 1.4-2.6 1-0.1-0.1-7.6-3.4-10.7 0.8-0.4 0.6-1 0.8-1.7 0.8z"/>
				<path id="&lt;Path&gt;" class="s2" d="m1025.3 369.6c-2.8 0-4.2-1.4-4.3-1.5-0.4-0.3-0.4-1 0-1.4 0.4-0.4 1-0.4 1.4 0 0.1 0.1 3 2.7 9.7-1.6 0.5-0.3 1.1-0.2 1.4 0.3 0.3 0.4 0.1 1.1-0.3 1.4-3.4 2.1-6 2.8-7.9 2.8z"/>
			</g>
		</g>
	</g>
	<g id="Character 2">
		<g id="&lt;Group&gt;">
			<g id="&lt;Group&gt;">
				<path id="&lt;Path&gt;" class="s2" d="m1257.1 743.3c-12.2 0-22.4-7.4-23-7.9-2-1.5-2.4-4.3-0.9-6.4 1.5-2 4.4-2.4 6.4-0.9 0.6 0.5 15.9 11.6 28.6 2.6 9.4-6.7 10.7-51.4 8.6-81-0.2-2.5 1.7-4.7 4.2-4.8 2.5-0.2 4.7 1.7 4.9 4.2 0.9 12.7 4.5 77-12.4 89-5.5 3.9-11.1 5.2-16.4 5.2z"/>
			</g>
			<g id="&lt;Group&gt;">
				<path id="&lt;Path&gt;" class="s2" d="m1200.9 854h-15.1v-111.5h15.1z"/>
				<path id="&lt;Compound Path&gt;" fill-rule="evenodd" class="s2" d="m1200.9 855h-15.1c-0.6 0-1-0.4-1-1v-111.5c0-0.5 0.4-1 1-1h15.1c0.6 0 1 0.5 1 1v111.5c0 0.6-0.4 1-1 1zm-14.1-2h13.1v-109.5h-13.1z"/>
			</g>
			<g id="&lt;Group&gt;">
				<path id="&lt;Path&gt;" class="s8" d="m1253.4 731.8h-120.1c-4.2 0-7.6-3.4-7.6-7.7v-17.4c0-4.2 3.4-7.6 7.6-7.6h120.1c4.2 0 7.6 3.4 7.6 7.6v17.4c0 4.3-3.4 7.7-7.6 7.7z"/>
				<path id="&lt;Compound Path&gt;" fill-rule="evenodd" class="s2" d="m1253.4 732.8h-120.1c-4.7 0-8.6-3.9-8.6-8.7v-17.4c0-4.7 3.9-8.6 8.6-8.6h120.1c4.8 0 8.6 3.9 8.6 8.6v17.4c0 4.8-3.8 8.7-8.6 8.7zm-120.1-32.7c-3.6 0-6.6 3-6.6 6.6v17.4c0 3.7 3 6.7 6.6 6.7h120.1c3.7 0 6.6-3 6.6-6.7v-17.4c0-3.6-2.9-6.6-6.6-6.6z"/>
			</g>
			<g id="&lt;Group&gt;">
				<path id="&lt;Path&gt;" class="s8" d="m1273 547.5c-1.2 2.6-2.2 5.4-3 8.3-5.7 19.7-6.1 41.1-6.3 61.6-0.1 8.1-2.3 21.3 0.9 28.8 3.9 9.4 21.7 13.7 26.6 3.1 6.1-13.3 2.4-31.1 5.4-45.5 3.3-15.9 12.3-35.7 8.4-51.8-3.8-15.4-16.2-27.8-28.3-11.1-1.5 2-2.7 4.2-3.7 6.6z"/>
				<path id="&lt;Compound Path&gt;" fill-rule="evenodd" class="s2" d="m1280.5 656.5q-0.2 0-0.3 0c-7.1-0.1-14.2-4.4-16.5-9.9-2.5-5.8-1.9-14.5-1.4-22.2 0.2-2.6 0.3-5 0.4-7 0.1-18.4 0.4-41.3 6.4-61.9 0.9-3.3 1.9-6 3-8.4 1.1-2.6 2.4-4.8 3.8-6.8 5.8-8 11.3-8.9 14.9-8.2 6.6 1.3 12.5 9 15.1 19.6 2.9 11.9-0.9 25.3-4.7 38.2-1.4 5-2.7 9.7-3.7 14.1-1.1 5.7-1.2 12.2-1.4 18.4-0.1 9.4-0.3 19.2-4 27.3-2 4.4-6.2 6.8-11.6 6.8zm8.3-122.6c-3.8 0-7.7 2.6-11.3 7.5-1.3 1.9-2.5 4-3.6 6.5q0 0 0 0c-1.1 2.3-2 5-2.9 8.1-5.9 20.4-6.2 43.1-6.3 61.4-0.1 2.1-0.2 4.6-0.4 7.1-0.5 7.5-1 15.9 1.2 21.3 2.1 4.9 8.4 8.6 14.7 8.7 2.8 0.1 7.7-0.6 10-5.6 3.6-7.8 3.8-17.3 3.9-26.5 0.2-6.3 0.3-12.9 1.5-18.8 0.9-4.5 2.3-9.2 3.7-14.3 3.7-12.6 7.5-25.8 4.7-37.1-2.4-9.7-7.9-17-13.6-18.1q-0.8-0.2-1.6-0.2zm-15.8 13.6z"/>
			</g>
			<g id="&lt;Group&gt;">
				<path id="&lt;Path&gt;" class="s2" d="m1221.2 747.3h-55.7v-15.2h55.7z"/>
				<path id="&lt;Compound Path&gt;" fill-rule="evenodd" class="s2" d="m1221.2 748.3h-55.7c-0.6 0-1-0.5-1-1v-15.2c0-0.5 0.4-1 1-1h55.7c0.6 0 1 0.5 1 1v15.2c0 0.5-0.4 1-1 1zm-54.7-2h53.7v-13.2h-53.7z"/>
			</g>
			<g id="&lt;Group&gt;">
				<g id="&lt;Group&gt;">
					<path id="&lt;Path&gt;" class="s3" d="m1127.9 906.8c0 3.9-3.2 7.1-7.2 7.1-3.9 0-7.1-3.2-7.1-7.1 0-4 3.2-7.2 7.1-7.2 4 0 7.2 3.2 7.2 7.2z"/>
					<path id="&lt;Compound Path&gt;" fill-rule="evenodd" class="s2" d="m1120.7 914.9c-4.5 0-8.1-3.6-8.1-8.1 0-4.5 3.6-8.2 8.1-8.2 4.5 0 8.2 3.7 8.2 8.2 0 4.5-3.7 8.1-8.2 8.1zm0-14.3c-3.4 0-6.1 2.8-6.1 6.2 0 3.4 2.7 6.1 6.1 6.1 3.4 0 6.2-2.7 6.2-6.1 0-3.4-2.8-6.2-6.2-6.2z"/>
				</g>
				<g id="&lt;Group&gt;">
					<path id="&lt;Path&gt;" class="s3" d="m1274.4 906.8c0 3.9-3.2 7.1-7.1 7.1-3.9 0-7.1-3.2-7.1-7.1 0-4 3.2-7.2 7.1-7.2 3.9 0 7.1 3.2 7.1 7.2z"/>
					<path id="&lt;Compound Path&gt;" fill-rule="evenodd" class="s2" d="m1267.3 914.9c-4.5 0-8.1-3.6-8.1-8.1 0-4.5 3.6-8.2 8.1-8.2 4.5 0 8.1 3.7 8.1 8.2 0 4.5-3.6 8.1-8.1 8.1zm0-14.3c-3.4 0-6.1 2.8-6.1 6.2 0 3.4 2.7 6.1 6.1 6.1 3.4 0 6.1-2.7 6.1-6.1 0-3.4-2.7-6.2-6.1-6.2z"/>
				</g>
				<g id="&lt;Group&gt;">
					<path id="&lt;Path&gt;" class="s3" d="m1200.3 906.8c0 3.9-3.2 7.1-7.1 7.1-4 0-7.2-3.2-7.2-7.1 0-4 3.2-7.2 7.2-7.2 3.9 0 7.1 3.2 7.1 7.2z"/>
					<path id="&lt;Compound Path&gt;" fill-rule="evenodd" class="s2" d="m1193.2 914.9c-4.5 0-8.2-3.6-8.2-8.1 0-4.5 3.7-8.2 8.2-8.2 4.4 0 8.1 3.7 8.1 8.2 0 4.5-3.7 8.1-8.1 8.1zm0-14.3c-3.4 0-6.2 2.8-6.2 6.2 0 3.4 2.8 6.1 6.2 6.1 3.3 0 6.1-2.7 6.1-6.1 0-3.4-2.8-6.2-6.1-6.2z"/>
				</g>
				<g id="&lt;Group&gt;">
					<path id="&lt;Path&gt;" class="s2" d="m1198.2 854l-4.8 0.2-4.8-0.2-78.5 44.3v6.5h10.6v-5.6l72.7-25.5 72.6 25.5v5.6h10.6v-6.5z"/>
					<path id="&lt;Compound Path&gt;" fill-rule="evenodd" class="s2" d="m1276.6 905.8h-10.6c-0.6 0-1-0.4-1-1v-4.9l-71.6-25.2-71.7 25.2v4.9c0 0.6-0.4 1-1 1h-10.6c-0.5 0-1-0.4-1-1v-6.5c0-0.3 0.2-0.6 0.5-0.8l78.5-44.4q0.2-0.1 0.5-0.1l4.8 0.2 4.7-0.2q0.3 0 0.6 0.1l78.4 44.4c0.3 0.2 0.5 0.5 0.5 0.8v6.5c0 0.6-0.5 1-1 1zm-9.6-2h8.6v-4.9l-77.7-43.9-4.5 0.2-4.6-0.2-77.7 43.9v4.9h8.6v-4.6c0-0.4 0.3-0.8 0.7-0.9l72.6-25.6q0.4-0.1 0.7 0l72.6 25.6c0.4 0.1 0.7 0.5 0.7 0.9z"/>
				</g>
				<g id="&lt;Group&gt;">
					<path id="&lt;Path&gt;" class="s2" d="m1186.4 853.8h13.9l-2.1 51h-9.7z"/>
					<path id="&lt;Compound Path&gt;" fill-rule="evenodd" class="s2" d="m1198.2 905.8h-9.7c-0.5 0-1-0.4-1-0.9l-2.1-51c0-0.3 0.1-0.6 0.3-0.8 0.2-0.2 0.5-0.3 0.7-0.3h13.9c0.3 0 0.5 0.1 0.7 0.3 0.2 0.2 0.3 0.5 0.3 0.8l-2.1 51c0 0.5-0.4 0.9-1 0.9zm-8.7-2h7.8l2-49h-11.8z"/>
				</g>
			</g>
		</g>
		<g id="&lt;Group&gt;">
			<g id="&lt;Group&gt;">
				<g id="&lt;Group&gt;">
					<path id="&lt;Path&gt;" class="s3" d="m1113.2 391.7c0 0-1.9 15.2 3.9 23.6 5.9 8.4 7.5 13.3 7.5 17.2 0 3.9-2.6 10.3 0 12.3 2.6 1.9 10.3 0 10.3 0 0 0 14 14.2 18.8 12.9 4.9-1.3 9.7-5.1 9.7-5.1 0 0 14.6 14.8 16.5 19.1 2 4.2 3.3 7.4 3.3 7.4l21.7-34.3c0 0-14.3-10.4-21.1-28.5-6.8-18.2-6.8-42.1-27.5-47.3-20.7-5.2-40.8 13.9-43.1 22.7z"/>
					<path id="&lt;Compound Path&gt;" fill-rule="evenodd" class="s2" d="m1183.2 480.1q-0.1 0-0.1 0c-0.4 0-0.7-0.3-0.8-0.6-0.1-0.1-1.4-3.3-3.3-7.4-1.4-3.2-11.3-13.7-15.7-18.2-1.5 1.1-5.4 3.8-9.3 4.8-5 1.3-16.3-9.7-19.4-12.8-2 0.4-8.1 1.6-10.6-0.3-2.3-1.7-1.6-5.4-1-8.9 0.3-1.6 0.6-3 0.6-4.2 0-2.9-0.9-7.3-7.3-16.6-6-8.7-4.1-23.7-4.1-24.4q0.1 0 0.1-0.1c2.5-9.6 23.5-28.6 44.2-23.4 16.3 4.1 20.3 19.3 24.1 34 1.2 4.7 2.5 9.5 4.2 13.9 6.6 17.7 20.5 28 20.7 28.1 0.4 0.3 0.5 0.9 0.2 1.3l-21.7 34.3c-0.2 0.3-0.5 0.5-0.8 0.5zm-19.8-28.5c0.3 0 0.5 0.1 0.7 0.3 0.6 0.6 14.8 15 16.8 19.3 1 2.3 1.9 4.4 2.5 5.7l20.1-31.9c-3-2.4-14.6-12.3-20.6-28.4-1.7-4.5-3-9.4-4.2-14.1-3.9-14.8-7.6-28.8-22.6-32.5-20.6-5.2-39.8 14-41.9 21.9-0.1 1-1.6 15.1 3.7 22.8 5.4 7.8 7.7 13.1 7.7 17.8 0 1.3-0.3 2.9-0.6 4.6-0.5 2.8-1.1 5.9 0.2 6.9 1.6 1.2 6.7 0.5 9.5-0.2 0.3-0.1 0.7 0 0.9 0.3 5.3 5.3 14.8 13.5 17.9 12.7 4.5-1.3 9.3-5 9.3-5q0.3-0.2 0.6-0.2z"/>
				</g>
				<path id="&lt;Path&gt;" class="s2" d="m1140.2 443.5c-0.4 0-0.7-0.2-0.9-0.6-0.2-0.5 0-1.1 0.5-1.3 0 0 5.6-2.7 5.6-7.8 0-0.6 0.4-1 1-1 0.5 0 1 0.4 1 1 0 6.4-6.5 9.5-6.8 9.6q-0.2 0.1-0.4 0.1z"/>
				<path id="&lt;Path&gt;" class="s2" d="m1124 417.9c-0.5 0-1-0.4-1-0.9 0-0.2-0.1-3.5 2.2-5.5 1.5-1.4 3.7-1.8 6.4-1.4 0.6 0.1 0.9 0.6 0.8 1.2 0 0.5-0.6 0.9-1.1 0.8q-3.2-0.5-4.8 0.9c-1.6 1.4-1.5 3.9-1.5 3.9 0 0.5-0.4 1-0.9 1q-0.1 0-0.1 0z"/>
				<path id="&lt;Path&gt;" class="s2" d="m1132.4 423.1c1.2 1.9 1.4 3.9 0.4 4.5-0.9 0.6-2.7-0.4-3.9-2.2-1.2-1.9-1.4-4-0.4-4.6 0.9-0.6 2.7 0.4 3.9 2.3z"/>
			</g>
			<g id="&lt;Group&gt;">
				<path id="&lt;Path&gt;" class="s2" d="m1163.4 452.6l8.8-6.7v14.7z"/>
				<path id="&lt;Compound Path&gt;" fill-rule="evenodd" class="s2" d="m1172.2 461.6q-0.4 0-0.7-0.2l-8.7-8.1c-0.3-0.2-0.4-0.5-0.4-0.8 0-0.3 0.2-0.6 0.4-0.7l8.8-6.7c0.3-0.2 0.7-0.2 1-0.1 0.3 0.2 0.6 0.5 0.6 0.9v14.7c0 0.4-0.3 0.8-0.6 0.9q-0.2 0.1-0.4 0.1zm-7.2-9l6.2 5.7v-10.4z"/>
			</g>
			<g id="&lt;Group&gt;">
				<g id="&lt;Group&gt;">
					<path id="&lt;Path&gt;" class="s3" d="m1031.7 687.5l-18.9 189.7c0 0-26.8 0.6-37.9-0.5-11.2-1.2-21.8-5.6-20.7 0.5 1.1 6.2 17.9 16.2 24 19 6.2 2.8 14 4.4 19 7.2 5 2.8 15.6 10.6 20.1 9.5 4.4-1.1 14.5-41.8 14.5-41.8l51.8-166.9 58-4.5c0 0-87.6-23.4-96.5-24.5-8.9-1.1-13.4 12.3-13.4 12.3z"/>
					<path id="&lt;Compound Path&gt;" fill-rule="evenodd" class="s2" d="m1016.4 914c-4 0-10.3-3.9-15.5-7.1-1.6-1-3-1.9-4.2-2.6-2.7-1.5-6.2-2.6-9.9-3.9-3-1-6.2-2-9-3.3-5-2.3-23.3-12.6-24.6-19.7q-0.3-2.1 0.8-3.3c1.8-1.8 6-1 11.7 0.1 2.8 0.5 6.1 1.1 9.3 1.5 9.8 0.9 32.2 0.6 36.9 0.5l18.8-188.8q0-0.1 0.1-0.3c0.2-0.5 4.8-14.1 14.4-12.9 8.9 1.1 93.1 23.6 96.7 24.6 0.5 0.1 0.8 0.5 0.7 1 0 0.5-0.4 0.9-0.9 0.9l-57.3 4.4-51.7 166.3c-2.3 9.6-10.5 41.3-15.2 42.5q-0.5 0.1-1.1 0.1zm-58.9-39c-1 0-1.7 0.2-2.1 0.5q-0.4 0.4-0.2 1.5c1 5.5 16.9 15.3 23.4 18.3 2.8 1.2 5.8 2.2 8.8 3.2 3.8 1.3 7.4 2.5 10.3 4.1 1.2 0.6 2.6 1.5 4.3 2.6 4.8 3 12 7.5 15 6.8 2.5-0.9 9-21.7 13.8-41.2l51.9-166.9c0.1-0.4 0.4-0.7 0.8-0.7l52.2-4c-19.5-5.2-83.3-22.1-90.7-23-7.7-1-11.9 10.3-12.3 11.5l-18.9 189.6c0 0.5-0.5 0.9-1 0.9-0.2 0-26.9 0.6-38-0.5-3.3-0.4-6.6-1-9.5-1.5-2.9-0.6-5.8-1.2-7.8-1.2zm55.3 2.2z"/>
				</g>
				<g id="&lt;Group&gt;">
					<path id="&lt;Path&gt;" class="s9" d="m1002.8 892.8c-19-4.4-25.7-10-25.7-10l5.1-5.7c-2.8-0.1-5.3-0.2-7.3-0.4-11.2-1.2-21.8-5.6-20.7 0.5 1.1 6.2 17.9 16.2 24 19 6.2 2.8 14 4.4 19 7.2 5 2.8 15.6 10.6 20.1 9.5 1.8-0.4 4.6-7.7 7.3-16.1-4.7-0.5-12-1.6-21.8-4z"/>
					<path id="&lt;Compound Path&gt;" fill-rule="evenodd" class="s2" d="m1016.4 914c-4 0-10.3-3.9-15.5-7.1-1.6-1-3-1.9-4.2-2.6-2.7-1.5-6.2-2.6-9.9-3.9-3-1-6.2-2-9-3.3-5-2.3-23.3-12.6-24.6-19.7q-0.3-2.1 0.8-3.3c1.8-1.8 6-1 11.7 0.1 2.8 0.5 6.1 1.1 9.3 1.5 1.8 0.1 4.2 0.3 7.2 0.4 0.4 0 0.7 0.3 0.9 0.6 0.1 0.4 0.1 0.8-0.2 1.1l-4.3 4.8c2.3 1.6 9.6 5.8 24.4 9.3 10 2.3 17.3 3.4 21.7 3.9 0.3 0 0.6 0.2 0.7 0.5 0.2 0.2 0.3 0.5 0.2 0.8-4.5 14.2-6.6 16.4-8.1 16.8q-0.5 0.1-1.1 0.1zm-58.9-39c-1 0-1.7 0.2-2.1 0.5q-0.4 0.4-0.2 1.5c1 5.5 16.9 15.3 23.4 18.3 2.8 1.2 5.8 2.2 8.8 3.2 3.8 1.3 7.4 2.5 10.3 4.1 1.2 0.6 2.6 1.5 4.3 2.6 4.8 3 12 7.5 15 6.8 0.3-0.2 2.1-1.4 6.3-14.4-4.5-0.5-11.5-1.6-20.8-3.8-18.9-4.5-25.8-10-26-10.2-0.2-0.2-0.4-0.5-0.4-0.7 0-0.3 0.1-0.6 0.3-0.8l3.6-4.1q-3.1-0.1-5.2-0.3c-3.3-0.4-6.6-1-9.5-1.5-2.9-0.6-5.8-1.2-7.8-1.2z"/>
				</g>
			</g>
			<g id="&lt;Group&gt;">
				<g id="&lt;Group&gt;">
					<path id="&lt;Path&gt;" class="s3" d="m1170.2 602.2l-7.4 28.9c0 0-33.4 1.1-71.4 8.9-37.9 7.8-73.1 18.4-74.2 25.1-1.1 6.7 42.4 86.5 76.4 147.9 7.4 13.3 23.5 46.9 23.5 46.9 0 0-6.2 16.7-12.3 26.2-6.1 9.5-15.6 18.4-17.8 19.5-2.3 1.1-9 3.9-6.7 6.7 2.2 2.8 25.1 0 26.7 0 1.7 0 19.6-15.6 24.6-20.1 5-4.4 24.5-18.9 24-24.5-0.6-5.6-17.9-17.9-19-21.8-1.1-3.9-23.4-52.4-24.5-56.9-1.2-4.5-30.7-92.1-30.7-92.1 0 0 121.1 6.7 147.3 4.5 26.2-2.2 30.1-12.3 31.8-21.2 1.7-8.9-10.1-81.5-10.1-81.5l-78.1-0.5z"/>
					<path id="&lt;Compound Path&gt;" fill-rule="evenodd" class="s2" d="m1087.8 914.6c-4.9 0-7.5-0.6-8.3-1.6-0.6-0.8-0.8-1.6-0.6-2.4 0.5-2.3 3.7-4 6.9-5.5l0.7-0.4c2.2-1 11.5-9.9 17.5-19.1 5.5-8.5 11-23.1 12-25.7-1.8-3.7-16.4-34.1-23.2-46.4-69.8-125.9-77.2-145.1-76.6-148.5 1.4-8 41.3-19 75-25.9 34.5-7.1 65.7-8.7 70.9-9l7.1-28.2q0.1-0.1 0.1-0.2l2.1-4c0.2-0.3 0.6-0.5 0.9-0.5q0 0 0 0l78.1 0.5c0.5 0 1 0.4 1 0.9 0.5 3 11.8 72.8 10.1 81.8-1.8 9.4-5.9 19.7-32.7 22-24.5 2.1-132.1-3.6-146-4.4 3.9 11.7 29.2 86.6 30.2 90.8 0.6 2.3 7.6 18 13.7 31.8 5.6 12.4 10.3 23.2 10.9 25.1 0.4 1.4 4.2 4.9 7.5 8 5.5 5.1 11.1 10.3 11.5 13.9 0.4 4.6-9.2 12.9-20 21.8-1.8 1.5-3.4 2.7-4.3 3.6-8.6 7.6-23.2 20.3-25.3 20.3-0.3 0-1.3 0.1-2.7 0.3-7.2 0.6-12.6 1-16.5 1zm83.3-312.1l-7.3 28.9c-0.1 0.4-0.5 0.7-0.9 0.7-0.4 0-33.9 1.2-71.3 8.9-40.9 8.4-72.5 18.9-73.4 24.3-0.6 3.4 12.2 31.6 76.3 147.2 7.3 13.2 23.3 46.6 23.5 46.9 0.1 0.3 0.1 0.6 0 0.8-0.2 0.7-6.2 17-12.4 26.4-6.2 9.8-15.8 18.7-18.2 19.9l-0.8 0.4c-1.6 0.8-5.4 2.6-5.8 4.1 0 0.2 0 0.4 0.2 0.7 0.7 0.8 5.3 1.5 23.1-0.1 1.7-0.2 2.6-0.3 2.9-0.3 1.7-0.5 15-11.9 23.9-19.8 1-0.9 2.6-2.2 4.4-3.7 6.4-5.2 19.7-16.1 19.3-20-0.3-2.8-6.2-8.3-10.9-12.7-4.6-4.3-7.5-7-8-8.9-0.5-1.7-5.8-13.5-10.8-24.8-6.5-14.6-13.2-29.6-13.8-32.1-1.1-4.4-30.4-91.2-30.7-92-0.1-0.3 0-0.7 0.2-1 0.2-0.2 0.5-0.4 0.8-0.4 1.2 0.1 121.3 6.7 147.2 4.5 25.4-2.1 29.3-11.6 30.9-20.4 1.5-8.1-8.6-72.2-9.9-80.3l-76.7-0.5zm-8.3 28.6z"/>
				</g>
				<path id="&lt;Path&gt;" class="s2" d="m1081.4 697.9q-0.2 0-0.4 0l-26.8-11.2c-0.5-0.2-0.7-0.8-0.5-1.3 0.2-0.5 0.8-0.7 1.3-0.5l26.8 11.1c0.5 0.2 0.7 0.8 0.5 1.3-0.2 0.4-0.5 0.6-0.9 0.6z"/>
				<g id="&lt;Group&gt;">
					<path id="&lt;Path&gt;" class="s10" d="m1155.6 867.7c-0.3-2.8-4.6-7.1-9-11.3-1.8 2.3-3.9 4.8-6.1 7.4-6.7 7.8-35.1 35.7-35.1 35.7l-9.1-2.5c-4.2 4.6-8 8-9.3 8.6-2.3 1.1-9 3.9-6.7 6.7 2.2 2.8 25.1 0 26.7 0 1.7 0 19.6-15.6 24.6-20.1 5-4.4 24.5-18.9 24-24.5z"/>
					<path id="&lt;Compound Path&gt;" fill-rule="evenodd" class="s2" d="m1087.8 914.6c-4.9 0-7.5-0.6-8.3-1.6-0.6-0.8-0.8-1.6-0.6-2.4 0.5-2.3 3.7-4 6.9-5.5l0.7-0.4c1-0.5 4.6-3.5 9-8.4 0.3-0.2 0.7-0.4 1-0.3l8.6 2.4c3.5-3.5 28.5-28.1 34.7-35.3 1.9-2.2 3.9-4.7 6-7.3 0.1-0.2 0.4-0.4 0.7-0.4 0.3 0 0.5 0.1 0.7 0.3 5.6 5.2 9.1 9 9.4 11.9 0.4 4.6-9.2 12.9-20 21.8-1.8 1.5-3.4 2.7-4.3 3.6-8.6 7.6-23.2 20.3-25.3 20.3-0.3 0-1.3 0.1-2.7 0.3-7.2 0.6-12.6 1-16.5 1zm8.8-16.5c-3.7 4.1-7.6 7.6-9.2 8.4l-0.8 0.4c-1.6 0.8-5.4 2.6-5.8 4.1 0 0.2 0 0.4 0.2 0.7 0.7 0.8 5.3 1.5 23.1-0.1 1.7-0.2 2.6-0.3 2.9-0.3 1.7-0.5 15-11.9 23.9-19.8 1-0.9 2.6-2.2 4.4-3.7 6.4-5.2 19.7-16.1 19.3-20-0.3-2.5-5-7.1-7.9-9.9-1.9 2.3-3.7 4.5-5.4 6.5-6.7 7.8-34.1 34.7-35.2 35.8-0.3 0.3-0.7 0.3-1 0.3z"/>
				</g>
			</g>
			<g id="&lt;Group&gt;">
				<g id="&lt;Group&gt;">
					<path id="&lt;Path&gt;" class="s7" d="m1172.3 598.2l-2.1 4-7.4 28.9c0 0-33.4 1.1-71.4 8.9-11.4 2.4-22.5 5-32.5 7.6l25.9 49.5c19.8 1.1 120.3 6.3 143.9 4.3 26.2-2.2 30.1-12.3 31.8-21.2 1.7-8.9-10.1-81.5-10.1-81.5z"/>
					<path id="&lt;Compound Path&gt;" fill-rule="evenodd" class="s2" d="m1212.3 702.9c-37 0-110.8-3.9-127.6-4.8-0.3 0-0.6-0.2-0.8-0.5l-25.9-49.5c-0.1-0.3-0.2-0.6 0-0.9 0.1-0.2 0.3-0.5 0.6-0.5 10-2.7 21.2-5.3 32.6-7.6 34.5-7.1 65.7-8.7 70.9-9l7.1-28.2q0.1-0.1 0.1-0.2l2.1-4c0.2-0.3 0.6-0.5 0.9-0.5q0 0 0 0l78.1 0.5c0.5 0 1 0.4 1 0.9 0.5 3 11.8 72.8 10.1 81.8-1.8 9.4-5.9 19.7-32.7 22-3.8 0.3-9.5 0.5-16.5 0.5zm-126.9-6.7c21.2 1.1 119.9 6.2 143.2 4.2 25.4-2.1 29.3-11.6 30.9-20.4 1.5-8.1-8.6-72.2-9.9-80.3l-76.7-0.5-1.8 3.3-7.3 28.9c-0.1 0.4-0.5 0.7-0.9 0.7-0.4 0-33.9 1.2-71.3 8.9-10.9 2.3-21.6 4.8-31.2 7.3zm77.4-65.1z"/>
				</g>
				<path id="&lt;Path&gt;" class="s2" d="m1227 655.5q-0.3 0-0.6-0.2c-17.5-14.7-56.6-20.4-57-20.4-0.6-0.1-0.9-0.6-0.9-1.1 0.1-0.6 0.6-1 1.2-0.9 1.6 0.2 40.1 5.8 58 20.9 0.4 0.3 0.4 1 0.1 1.4-0.2 0.2-0.5 0.3-0.8 0.3z"/>
				<path id="&lt;Path&gt;" class="s2" d="m1216.4 641.6q-0.3 0-0.6-0.2c-7.5-5.4-32.2-8.7-32.4-8.7-0.6-0.1-1-0.6-0.9-1.2 0.1-0.5 0.6-0.9 1.1-0.8 1.1 0.1 25.5 3.4 33.4 9.1 0.4 0.3 0.5 0.9 0.2 1.4-0.2 0.2-0.5 0.4-0.8 0.4z"/>
			</g>
			<g id="&lt;Group&gt;">
				<path id="&lt;Path&gt;" class="s3" d="m1069.3 549c0 0-8.7-0.7-12.8 1.9-4.2 2.7-24.3 16.3-29.6 20.9-5.3 4.5-10.3 12.5-10.6 13.6-0.4 1.2 2.2 1.5 3.4 1.2 1.1-0.4 6-4.2 4.5-2.3-1.5 1.9 1.2 2.3 1.2 2.3 0 0 28-16.3 30.3-16 2.3 0.4 6.8-1.1 9.8-3.4 3.1-2.2 11-6.4 11-6.4l89.5 17.4 13.6-12.5-3-30.3-20.1 16.7z"/>
				<path id="&lt;Compound Path&gt;" fill-rule="evenodd" class="s2" d="m1018.6 587.7c-1.1 0-2.2-0.3-2.9-0.9-0.4-0.5-0.6-1.1-0.4-1.7 0.5-1.4 5.5-9.4 10.9-14.1 5.4-4.5 25.5-18.2 29.7-20.9 4.3-2.8 12.9-2.1 13.5-2.1l86.8 3.1 19.8-16.5c0.3-0.2 0.7-0.3 1-0.1 0.3 0.1 0.6 0.4 0.6 0.8l3 30.3c0.1 0.3 0 0.6-0.3 0.9l-13.6 12.5c-0.3 0.2-0.6 0.3-0.9 0.2l-89.1-17.4c-1.5 0.8-8 4.3-10.6 6.2-3.2 2.5-7.9 4.1-10.6 3.6-1.7 0.1-16.6 8.3-29.6 15.9q-0.3 0.2-0.7 0.1c-0.3 0-1.8-0.3-2.3-1.6q0-0.1-0.1-0.2-0.1 0.1-0.1 0.2c-1.3 0.8-2.2 1.3-2.7 1.5-0.4 0.1-0.9 0.2-1.4 0.2zm-1.3-2.2c0.5 0.2 1.5 0.3 2.1 0.1 0.3-0.1 1.4-0.8 2.2-1.3 2.3-1.5 2.9-2 3.6-1.2 0.7 0.7 0 1.5-0.2 1.8-0.2 0.3-0.2 0.4-0.2 0.5 0 0 0.2 0.1 0.4 0.2 8.6-5 27.6-15.9 30.5-15.9q0.1 0 0.2 0c1.8 0.3 6.1-1 9-3.3 3.1-2.3 10.8-6.3 11.2-6.5q0.3-0.2 0.6-0.1l89 17.3 12.9-11.8-2.8-27.9-18.6 15.4c-0.2 0.2-0.5 0.3-0.7 0.3l-87.2-3.1q0 0 0 0c-0.1 0-8.5-0.7-12.3 1.8-4.3 2.7-24.2 16.2-29.5 20.7-4.8 4.2-9.4 11.4-10.2 13z"/>
			</g>
			<g id="&lt;Group&gt;">
				<path id="&lt;Path&gt;" class="s3" d="m1194.7 450.3c0 0-16.7 33.8-25 59.8-8.3 25.9-3.9 31.8-1.9 33.3 1.9 1.5 6.3 4.9 6.3 4.9 0 0-7.3 49.9-3.9 53.9 3.4 3.9 31.8 5.4 54.9 5.4 23 0 28.4-9.4 28.4-14.2 0-4.9-10.3-83.8-18.2-109.3-7.8-25.4-28.9-42.1-40.6-33.8z"/>
				<path id="&lt;Compound Path&gt;" fill-rule="evenodd" class="s2" d="m1225.1 608.6c-8.5 0-50.9-0.3-55.6-5.8-3.5-3.9 2.1-44.5 3.5-54.1-1.1-0.9-4.3-3.3-5.8-4.5-3.5-2.6-6-10.7 1.6-34.4 8.2-25.8 24.8-59.6 25-59.9q0.1-0.2 0.3-0.4c3.7-2.6 8.3-3 13.4-1.3 11.7 4 23.6 18.6 28.8 35.6 7.7 25.1 18.2 103.7 18.2 109.6 0 5.6-6.2 15.2-29.4 15.2zm-29.6-157.6c-1.5 3-17 34.9-24.8 59.4-8.2 25.4-3.9 31.1-2.3 32.2 1.9 1.5 6.3 4.9 6.3 4.9 0.3 0.2 0.5 0.6 0.4 0.9-3.6 24.4-6.1 50.9-4.1 53.1 2.5 2.9 25.3 5.1 54.1 5.1 21.6 0 27.4-8.3 27.4-13.2 0-4.3-10.1-82.9-18.1-109-5.1-16.4-16.4-30.5-27.5-34.3-4.4-1.5-8.3-1.2-11.4 0.9z"/>
			</g>
			<g id="&lt;Group&gt;">
				<g id="&lt;Group&gt;">
					<path id="&lt;Path&gt;" class="s3" d="m1193.7 489.1l-10.4 73.5c0 0-108.3-5.8-110.2-5.8-2 0-23.5 9.8-32.4 14.7-8.8 4.9-14.7 8.3-16.1 11.7-1.5 3.4-1.5 3.4-1.5 3.4 0 0 6.9 1.5 13.2 0 6.4-1.4 11.3-3.9 11.3-3.9 0 0 12.7-1.4 17.1-4.4 4.4-2.9 14.2-11.2 14.2-11.2 0 0 85.3 23 94.1 24.4 8.8 1.5 29.9 10.3 34.8 5.4 4-4 16.3-75.3 20.2-99.1 1-5.9-0.4-11.9-4.1-16.5-3-3.8-7-7.2-11.7-7.8-14.4-1.9-18.5 15.6-18.5 15.6z"/>
					<path id="&lt;Compound Path&gt;" fill-rule="evenodd" class="s2" d="m1202.7 599.4c-5.4 0-12.8-2.2-19.7-4.2-3.9-1.2-7.6-2.2-10.2-2.7-8.5-1.4-85.9-22.3-93.6-24.3-1.9 1.6-10 8.3-13.9 11-4.3 2.8-15.8 4.3-17.4 4.5-0.9 0.4-5.5 2.6-11.3 3.9-6.5 1.5-13.4 0.1-13.7 0-0.3 0-0.5-0.2-0.7-0.5-0.1-0.3-0.1-0.6 0-0.8l1.5-3.5c1.5-3.7 7.3-7.1 16.6-12.2 7.7-4.3 30.3-14.8 32.8-14.8 1.9 0 98.1 5.2 109.3 5.8l10.3-72.7q0.1 0 0.1-0.1c0-0.1 4.4-18.3 19.5-16.3 5.5 0.7 9.8 4.8 12.4 8.2 3.8 4.8 5.4 11.1 4.3 17.3-5.9 35.5-16.5 95.6-20.5 99.6-1.3 1.3-3.3 1.8-5.8 1.8zm-123.8-33.3q0.2 0 0.3 0c0.9 0.2 85.3 23 94 24.5 2.6 0.4 6.4 1.5 10.3 2.7 8.7 2.5 20.5 6 23.6 2.9 2.5-2.6 10.2-40.3 20-98.6 0.9-5.6-0.5-11.3-4-15.7-2.4-3-6.2-6.8-11.1-7.4-13.1-1.7-17 13.6-17.3 14.7l-10.4 73.6c-0.1 0.5-0.5 0.9-1.1 0.8-37.4-2-108.6-5.8-110.1-5.8-2 0.1-22.9 9.6-31.9 14.5-8.6 4.8-14.4 8.2-15.7 11.3l-1 2.3c2.2 0.3 7.1 0.8 11.6-0.2 6.2-1.4 11-3.8 11.1-3.9q0.1 0 0.3-0.1c0.1 0 12.5-1.4 16.7-4.2 4.3-2.9 14-11.1 14.1-11.2q0.3-0.2 0.6-0.2z"/>
				</g>
				<path id="&lt;Path&gt;" class="s2" d="m1036.3 587.6c-0.5 0-0.9-0.4-1-0.9 0-0.1-0.1-3.7 2.5-5.2 2-1.2 12.6-6 13.6-6.4 0.5-0.1 1.1 0.1 1.2 0.7 0.2 0.5-0.1 1-0.6 1.2-0.8 0.3-11.1 5-13.3 6.2-1.5 0.9-1.4 3.4-1.4 3.4 0.1 0.5-0.4 1-0.9 1q0 0-0.1 0z"/>
				<path id="&lt;Path&gt;" class="s2" d="m1030.5 588.4q-0.2 0-0.3 0c-0.5-0.2-0.8-0.7-0.7-1.3 0.4-1.2 1.7-5.1 3.1-6.1 1.2-1 12.5-7.4 13.8-8.2 0.5-0.2 1.1-0.1 1.4 0.4 0.3 0.5 0.1 1.1-0.4 1.4-5 2.8-12.8 7.3-13.6 8-0.6 0.4-1.7 3-2.4 5.1-0.1 0.5-0.5 0.7-0.9 0.7z"/>
			</g>
			<g id="&lt;Group&gt;">
				<path id="&lt;Path&gt;" class="s2" d="m1133.8 353.8c0 0-37.3 20.5-36.7 32.3 0.6 11.8 51 19.3 55.4 19.3 4.3 0 4.9-11.2 10.5-8.1 5.6 3.1 6.9 10.6 6.3 13.7-0.7 3.1-1.9 6.8-1.9 6.8 0 0 12.4 36.1 24.9 42.3 12.4 6.2 28.9 11.4 40.1-2.9 11.2-14.3 8.3-31.4 1.5-38.7-9.4-10.3-31.1-10-36.7-23.1-5.5-13-3.7-32.9-16.1-45.4-12.5-12.4-47.3 3.8-47.3 3.8z"/>
				<path id="&lt;Compound Path&gt;" fill-rule="evenodd" class="s2" d="m1214 467.4c-6.4 0-13.7-2.2-22.2-6.4-12.6-6.3-24.8-41.4-25.4-42.8q-0.1-0.4 0-0.7c0.1 0 1.3-3.7 1.9-6.7 0.5-2.5-0.5-9.7-5.7-12.6-2.1-1.2-3.1 0.1-5 3.4-1.3 2.4-2.7 4.8-5.1 4.8-2.9 0-55.7-7.1-56.4-20.2-0.6-12.3 35.7-32.5 37.2-33.3q0.1 0 0.1 0c1.4-0.7 35.6-16.4 48.4-3.6 8.2 8.2 10.3 19.3 12.3 30 1.1 5.7 2.1 11.2 4.1 15.7 2.9 7 10.8 10 19 13.1 6.5 2.5 13.2 5 17.5 9.7 6.5 7 10.5 24.7-1.5 40-5 6.4-11.3 9.6-19.2 9.6zm-45.6-49.6c1.3 3.6 13 35.8 24.3 41.4 18.1 9.1 30.4 8.2 38.9-2.6 11.3-14.5 7.6-30.9 1.6-37.5-4-4.3-10.4-6.8-16.7-9.1-8.3-3.2-16.9-6.4-20.2-14.2-2-4.7-3.1-10.3-4.2-16.2-1.9-10.4-4-21.1-11.7-28.9-11.7-11.6-45 3.4-46.1 4-10.3 5.6-36.7 22.2-36.2 31.4 0.6 10.4 48.2 18.3 54.4 18.3 1.3 0 2.3-1.9 3.4-3.8 1.5-2.7 3.6-6.4 7.6-4.2 6.1 3.4 7.4 11.4 6.7 14.8-0.5 2.6-1.4 5.6-1.8 6.6z"/>
			</g>
		</g>
		<g id="&lt;Group&gt;">
			<g id="&lt;Group&gt;">
				<path id="&lt;Path&gt;" class="s2" d="m939 593.5h-44.6c-2.7 0-5.3-1.5-6.7-3.9-1.4-2.4-1.4-5.3-0.1-7.7l49-88.7c0.7-1.4 2.4-1.9 3.7-1.1 1.4 0.7 1.9 2.4 1.1 3.8l-48.9 88.7c-0.6 1-0.2 1.9 0 2.2 0.2 0.3 0.8 1.1 1.9 1.1h44.6c1.5 0 2.8 1.2 2.8 2.8 0 1.5-1.3 2.8-2.8 2.8z"/>
			</g>
			<g id="&lt;Group&gt;">
				<path id="&lt;Path&gt;" class="s3" d="m964.5 573.6l-9.8 1.9-31.2-161.5 9.7-1.8z"/>
				<path id="&lt;Compound Path&gt;" fill-rule="evenodd" class="s2" d="m954.7 576.5c-0.4 0-0.9-0.3-0.9-0.8l-31.3-161.5q-0.1-0.4 0.1-0.7 0.3-0.4 0.7-0.4l9.7-1.9c0.6-0.1 1.1 0.2 1.2 0.8l31.3 161.5q0.1 0.4-0.2 0.7-0.2 0.3-0.6 0.4l-9.8 1.9q-0.1 0-0.2 0zm-30.1-161.7l30.9 159.6 7.8-1.5-30.9-159.6z"/>
			</g>
		</g>
		<g id="&lt;Group&gt;">
			<path id="&lt;Path&gt;" class="s3" d="m1077.5 589.8l-80.1-2.3v5.3h80.1z"/>
			<path id="&lt;Compound Path&gt;" fill-rule="evenodd" class="s2" d="m1077.5 593.8h-80.1c-0.5 0-1-0.4-1-1v-5.3c0-0.3 0.1-0.5 0.3-0.7 0.2-0.2 0.5-0.3 0.8-0.3l80 2.3c0.5 0 1 0.4 1 1v3c0 0.6-0.5 1-1 1zm-79.1-2h78.1v-1.1l-78.1-2.2z"/>
		</g>
		<g id="&lt;Group&gt;">
			<g id="&lt;Group&gt;">
				<path id="&lt;Path&gt;" class="s3" d="m847.2 915.1h-13l-2.8-303.4h18.6z"/>
				<path id="&lt;Compound Path&gt;" fill-rule="evenodd" class="s2" d="m847.2 916.1h-13c-0.6 0-1-0.5-1-1l-2.8-303.4q0-0.4 0.3-0.7 0.3-0.3 0.7-0.3h18.6q0.4 0 0.7 0.3 0.3 0.3 0.3 0.7l-2.8 303.4c0 0.5-0.4 1-1 1zm-12-2h11l2.8-301.4h-16.6z"/>
			</g>
			<g id="&lt;Group&gt;">
				<path id="&lt;Path&gt;" class="s3" d="m1086.1 915.1h-13.1l-2.8-303.4h18.7z"/>
				<path id="&lt;Compound Path&gt;" fill-rule="evenodd" class="s2" d="m1086.1 916.1h-13.1c-0.5 0-1-0.5-1-1l-2.7-303.4q0-0.4 0.2-0.7 0.3-0.3 0.8-0.3h18.6q0.4 0 0.7 0.3 0.3 0.3 0.3 0.7l-2.8 303.4c0 0.5-0.5 1-1 1zm-12.1-2h11.1l2.8-301.4h-16.6z"/>
			</g>
			<g id="&lt;Group&gt;">
				<path id="&lt;Path&gt;" class="s2" d="m1109.5 613.3h-296.6v-20h296.6z"/>
				<path id="&lt;Compound Path&gt;" fill-rule="evenodd" class="s2" d="m1109.5 614.3h-296.6c-0.5 0-1-0.4-1-1v-20c0-0.6 0.5-1 1-1h296.6c0.6 0 1 0.4 1 1v20c0 0.6-0.4 1-1 1zm-295.6-2h294.6v-18h-294.6z"/>
			</g>
		</g>
	</g>
	<g id="Character 1">
		<g id="&lt;Group&gt;">
			<g id="&lt;Group&gt;">
				<path id="&lt;Path&gt;" class="s2" d="m667.3 492.3l-16.2 226-4.4 137.8c0 0-6.8 1.2-6.8 5.6 0 4.3 0.6 11.8 0.6 17.4 0 5.6-9.9 33.6-9.9 33.6h46c0 0-0.6-16.2 0-26.1 0.6-10 0.6-15 1.9-17.5 1.2-2.4 4.3-8.7 4.3-14.3 0-5.6 1.3-18 1.9-24.2 0.6-6.2 42.3-214.3 42.3-214.3 0 0 8.7 114.4 10.6 131.2 1.8 16.8 0.6 43.7 1.2 62.3 0.6 18.7 12.4 74.1 12.4 74.1 0 0-2.4 26.1-2.4 29.2h83.9c0 0 3.1-4.4 0-5.6-3.1-1.3-9.3-2.5-11.2-3.1-1.8-0.6-32.9-24.9-32.9-24.9 0 0 0.6-11.8 0-13.7-0.7-1.9-6.3-8.7-6.3-14.9 0-6.2 8.1-67.3 8.1-99 0-31.8 0-55.4 0-68.5 0-13 1.3-144.3 1.3-144.3l-1.3-50.4z"/>
				<path id="&lt;Compound Path&gt;" fill-rule="evenodd" class="s2" d="m832.7 914.1h-83.9c-0.6 0-1-0.5-1-1 0-3 2.2-26.8 2.4-29.2-0.7-3.2-11.8-56-12.4-74-0.2-7-0.2-15-0.2-23.5 0.1-13.9 0.1-28.3-1-38.8-1.6-14.1-8.1-98.6-10.1-124-7.3 36.6-40.3 201.6-40.8 207.1-0.6 6-1.9 18.6-1.9 24.1 0 5.9-3.1 12.1-4.4 14.8-0.9 1.8-1.1 5.5-1.5 11.6q-0.1 2.4-0.3 5.4c-0.6 9.8 0 25.9 0 26 0 0.3-0.1 0.6-0.3 0.8-0.2 0.2-0.4 0.3-0.7 0.3h-46c-0.4 0-0.7-0.2-0.8-0.4-0.2-0.3-0.3-0.6-0.2-1 3.5-9.6 9.9-28.9 9.9-33.2 0-3-0.1-6.4-0.3-9.7-0.2-2.9-0.3-5.7-0.3-7.7 0-4.2 4.9-5.9 6.9-6.4l4.3-137.1 16.2-226c0-0.5 0.4-0.9 0.9-0.9l123.2-3.6c0.3 0 0.5 0.1 0.7 0.3q0.3 0.3 0.3 0.7l1.3 50.4c0 1.3-1.3 131.4-1.3 144.3v68.4c0 22.1-3.9 58.6-6.2 80.4-1.1 9.8-1.9 16.8-1.9 18.7 0 4.2 3 9 4.7 11.9 0.8 1.2 1.3 2.1 1.5 2.7 0.6 1.8 0.2 10.7 0.1 13.5 12.2 9.6 30.7 23.7 32.3 24.4 0.6 0.2 1.9 0.6 3.3 0.9 2.6 0.7 5.9 1.4 7.9 2.3 1.2 0.4 1.7 1.3 1.9 1.9 0.6 2.2-1.2 4.9-1.5 5.2-0.1 0.2-0.5 0.4-0.8 0.4zm-82.9-2h82.4c0.5-0.9 1.1-2.2 0.9-3-0.1-0.2-0.2-0.5-0.7-0.7-1.9-0.7-5.1-1.5-7.6-2.1-1.6-0.4-2.9-0.7-3.6-1-1.9-0.6-25.9-19.3-33.3-25-0.2-0.2-0.4-0.5-0.3-0.9 0.2-4.8 0.4-12.1 0-13.3-0.1-0.4-0.7-1.3-1.3-2.3-1.8-3-5-8.1-5-12.9 0-2 0.8-9.1 1.9-18.9 2.3-21.8 6.2-58.2 6.2-80.2v-68.4c0-12.9 1.3-143 1.3-144.3l-1.2-49.3-121.3 3.5-16.1 225-4.4 137.8c0 0.5-0.3 0.9-0.8 1 0 0-6 1.1-6 4.6 0 2 0.1 4.7 0.3 7.6 0.1 3.3 0.3 6.8 0.3 9.8 0 5.1-7.5 26.9-9.5 32.6h43.6c-0.2-3.8-0.5-16.8 0-25.2q0.2-3 0.3-5.4c0.4-6.6 0.6-10.2 1.7-12.4 1.1-2.3 4.2-8.5 4.2-13.9 0-5.6 1.3-18.2 1.9-24.3 0.6-6.2 40.6-205.9 42.3-214.4 0.1-0.5 0.5-0.9 1-0.8 0.5 0 0.9 0.4 1 0.9 0.1 1.1 8.7 114.6 10.6 131.2 1.1 10.6 1.1 25 1 39 0 8.5 0 16.4 0.2 23.4 0.6 18.4 12.3 73.3 12.4 73.8q0.1 0.2 0 0.3c0 0.3-2.1 22.5-2.4 28.2zm-103.1-56h0.1z"/>
			</g>
			<g id="&lt;Group&gt;">
				<path id="&lt;Path&gt;" class="s0" d="m661.1 487.8c0 0 0.5 14 3.6 16.6 3.1 2.6 49.2 7.7 80.8 6.7 31.5-1 44.1-7.4 46.2-13.7 2-6.2-2-16.1-2-16.1l-124.5-2.3c0 0-3 3.1-4.1 8.8z"/>
				<path id="&lt;Compound Path&gt;" fill-rule="evenodd" class="s2" d="m736.8 512.2c-30.3 0-69.5-4.4-72.7-7.1-3.4-2.8-3.9-15.8-4-17.2q0-0.2 0-0.3c1.1-5.9 4.3-9.2 4.4-9.3 0.2-0.2 0.5-0.3 0.8-0.3l124.4 2.3c0.4 0 0.8 0.2 1 0.6 0.1 0.4 4.1 10.4 1.9 16.9-2.7 8.2-19.9 13.4-47.1 14.3q-4.2 0.1-8.7 0.1zm-74.7-24.3c0.2 5.2 1.3 14 3.3 15.7 2.6 2.1 47.6 7.6 80 6.5 38.5-1.3 44.4-10.2 45.3-13 1.7-4.9-0.9-12.6-1.7-14.8l-123.3-2.3c-0.7 0.9-2.8 3.6-3.6 7.9z"/>
			</g>
			<g id="&lt;Group&gt;">
				<g id="&lt;Group&gt;">
					<path id="&lt;Path&gt;" class="s11" d="m711.3 276.3c0 0-49.4 18-54.7 20.5-5.3 2.4-9.8 4.9-10.6 7.7-0.8 2.9-27.3 68.6-27.3 68.6l-56.4-55.1c0 0-6.5-6.5-10.2-9.4-3.6-2.9-10.2-2.5-14.7-3.3-4.5-0.8-7.7-7.7-9.4-3.6-1.6 4-1.2 6.1 0.4 7.3 1.7 1.2 3.7 3.7 3.7 3.7 0 0-8.1-2.1-11.4-3.7-3.3-1.6-7.4-12.2-9.4-6.9-2 5.3 10.2 18.3 13.5 21.2 3.2 2.9 5.3 2.4 11.8 3.3 6.5 0.8 16.8 1.2 16.8 1.2 0 0 52.2 94.7 56.3 97.6 4.1 2.8 6.5 5.7 9.8 4.4 3.3-1.2 36.3-35.9 36.3-35.9 0 0 4.1 89.4 5.3 93.9 1.3 4.5 4.5 4.1 6.2 4.5 1.6 0.4 45.3 4.9 63.6 4.9 18.4 0 44.9-3.7 50.3-5.7 5.3-2.1 8.5-4.1 8.5-10.2 0-6.1 2.9-61.3 2.9-61.3 0 0 25.3 22.1 31.4 22.5 6.1 0.4 10.2-2.4 12.3-6.5 2-4.1 31-103.7 31-103.7 0 0 14.3-11.9 14.3-13.1 0-1.2 2-34.7-2.1-33.5-4 1.3-13.8 4.5-13.8 4.5 0 0 4-7.3 1.2-13.9-2.9-6.5-8.2-8.5-8.2-4.4 0 4 0 14.2-0.8 17.9-0.8 3.7-4.1 12.7-3.7 19.2 0.4 6.5 0.4 8.2 0.4 10.6 0 2.5-36.3 63.3-36.3 63.3 0 0-22.5-72.7-24.9-76.3-2.4-3.7-41.2-22.9-41.2-22.9z"/>
					<path id="&lt;Compound Path&gt;" fill-rule="evenodd" class="s2" d="m730.9 498.2c-18 0-62.1-4.5-63.9-4.9q-0.4-0.1-0.8-0.2c-1.8-0.2-4.8-0.6-6-5-1.2-4.2-4.6-77.4-5.3-91.8-8 8.4-32 33.3-35.1 34.5-3.1 1.1-5.5-0.7-8.3-2.9q-1.1-0.8-2.4-1.7c-4.1-2.9-49.8-85.7-56.4-97.4-2.2-0.1-10.6-0.5-16.2-1.2q-1.9-0.3-3.4-0.4c-4.1-0.4-6.1-0.6-9-3.2-0.2-0.1-16.4-15.4-13.7-22.3q0.7-1.9 2.1-2.1c1.8-0.2 3.3 2 5.1 4.5 1.2 1.7 2.5 3.5 3.5 4 1.9 0.9 5.3 2 7.9 2.7q-0.6-0.6-1.2-1c-2.8-2.1-1.8-5.7-0.7-8.5q0.6-1.6 1.8-1.9c1.4-0.3 2.6 0.8 4.1 2.1 1.4 1.2 3 2.5 4.6 2.8 1.2 0.3 2.7 0.4 4.2 0.5 3.8 0.4 8.1 0.8 10.9 3 3.7 2.9 10.1 9.2 10.3 9.5l55.3 54c9.3-23 26.1-64.9 26.8-67.1 0.8-3.1 5.1-5.6 11.1-8.4 5.3-2.4 52.8-19.7 54.8-20.4q0.3-0.1 0.5 0l40.8 7.3q0.2 0 0.3 0.1c4 2 39.1 19.4 41.6 23.2 2.3 3.5 20.2 60.9 24.4 74.5 14.2-23.9 34.5-58.4 35-61 0-2.3 0-3.9-0.4-10.4-0.3-5.2 1.6-11.7 2.8-16.1 0.4-1.4 0.7-2.5 0.9-3.4 0.8-3.6 0.8-13.9 0.8-17.7 0-1.7 0.8-2.8 2.1-3.1 2.5-0.5 6 2.6 8 7.1 2.1 4.8 0.8 9.9-0.3 12.7 3.1-1.1 8.9-3 11.8-3.8 0.5-0.2 1.1-0.1 1.5 0.3 1.5 1.2 3.1 5.9 1.8 32.8 0 0.7 0 1.2 0 1.3 0 0.5 0 1.7-14.4 13.6-2.1 7.1-29 99.6-31 103.6-2.5 4.9-7.3 7.5-13.2 7.1-5.6-0.4-24.6-16.3-30.5-21.4-0.5 10.1-2.8 53.8-2.8 59.2 0 7-4.1 9.2-9.2 11.1-5.6 2.2-32.2 5.8-50.6 5.8zm-75.1-105.3q0.2 0 0.4 0.1c0.3 0.1 0.6 0.5 0.6 0.9 1.4 30.9 4.3 90.2 5.3 93.7 0.8 3.1 2.7 3.3 4.3 3.6q0.6 0 1.1 0.1c1.8 0.4 45.3 4.9 63.4 4.9 18.9 0 45.1-3.8 49.9-5.6 5.5-2.2 7.9-4 7.9-9.3 0-6.1 2.8-59.1 2.9-61.3 0-0.4 0.2-0.7 0.6-0.9 0.3-0.1 0.8-0.1 1 0.2 10.1 8.8 26.6 21.9 30.9 22.2 5.2 0.4 9.2-1.8 11.3-6 1.6-3.1 20.9-69.1 30.9-103.5q0.1-0.3 0.4-0.5c6.2-5.2 13.1-11.2 13.9-12.5q0-0.4 0-1.2c1.3-26.3-0.4-30.4-0.9-31.1-4.1 1.3-13.6 4.4-13.7 4.5-0.4 0.1-0.8 0-1.1-0.3-0.3-0.4-0.3-0.8-0.1-1.2 0 0 3.8-7 1.2-13-2-4.3-4.8-6.2-5.8-5.9-0.4 0-0.5 0.6-0.5 1.1 0 4.3 0 14.4-0.8 18.1-0.2 0.9-0.6 2.1-1 3.6-1.2 4.2-3 10.6-2.7 15.3 0.4 6.6 0.4 8.2 0.4 10.7 0 2.5-25.5 45.4-36.4 63.8-0.2 0.4-0.6 0.5-1 0.5-0.4-0.1-0.7-0.3-0.9-0.7-9-29.2-23-73.5-24.7-76.1-1.7-2.5-25.8-15.1-40.7-22.4l-40.5-7.3c-3.8 1.4-49.3 18-54.3 20.3-4.9 2.2-9.4 4.6-10.1 7.1-0.8 2.9-26.3 66-27.4 68.7-0.1 0.3-0.4 0.5-0.7 0.6-0.4 0.1-0.7-0.1-0.9-0.3l-56.4-55.1c0-0.1-6.5-6.5-10.1-9.3-2.4-1.9-6.2-2.2-9.9-2.6-1.6-0.1-3-0.2-4.3-0.5-2.2-0.4-4.1-2-5.6-3.3-0.7-0.6-2-1.7-2.3-1.6 0 0-0.2 0.1-0.4 0.6-1.7 4.2-0.9 5.5 0 6.2 1.8 1.3 3.8 3.7 3.9 3.8 0.3 0.4 0.3 0.8 0.1 1.2-0.3 0.4-0.7 0.6-1.1 0.4-0.4 0-8.3-2-11.7-3.7-1.4-0.7-2.8-2.6-4.2-4.6-0.9-1.3-2.6-3.6-3.3-3.7 0 0-0.2 0.1-0.5 0.8-1.6 4.2 8.7 16.2 13.2 20.1 2.4 2.1 4 2.3 7.9 2.7q1.5 0.1 3.4 0.4c6.5 0.8 16.6 1.2 16.7 1.2 0.3 0 0.7 0.2 0.8 0.5 20.9 37.8 53 94.9 56.1 97.2q1.3 1 2.4 1.8c2.9 2.2 4.5 3.4 6.4 2.6 2.3-0.9 23.3-22.4 36-35.7 0.2-0.2 0.5-0.3 0.7-0.3z"/>
				</g>
				<path id="&lt;Path&gt;" class="s2" d="m867.6 307.2q-0.2 0-0.4 0c-0.5-0.3-0.7-0.8-0.5-1.4 3.3-7.8-1.8-14.9-1.8-15-0.4-0.4-0.3-1.1 0.2-1.4 0.4-0.3 1-0.2 1.4 0.2 0.2 0.4 5.7 8.2 2 17-0.2 0.4-0.5 0.6-0.9 0.6z"/>
				<g id="&lt;Group&gt;">
					<path id="&lt;Path&gt;" class="s3" d="m884.8 282.1c0 0-9.8 4-10.2 5.7-0.4 1.6-1.2 5.7 2.5 5.7 3.7 0 10.9-2.8 12.3-5.5 2-3.9-0.9-6.8-4.6-5.9z"/>
					<path id="&lt;Compound Path&gt;" fill-rule="evenodd" class="s2" d="m877.1 294.5c-1.7 0-2.5-0.7-3-1.3-0.9-1.2-1.1-3.1-0.4-5.7 0.4-1.7 6.1-4.4 10.8-6.4q0 0 0.1 0c2.3-0.5 4.4 0.1 5.6 1.7 1.1 1.5 1.2 3.6 0.1 5.7-1.7 3.2-9.4 6-13.2 6zm8-11.5c-4.2 1.8-9 4.2-9.5 5.1-0.6 2.5-0.2 3.5 0.1 3.9 0.1 0.1 0.4 0.5 1.4 0.5 3.4 0 10.2-2.7 11.4-4.9 0.7-1.4 0.8-2.7 0.1-3.6-0.7-0.9-2-1.3-3.5-1z"/>
				</g>
				<g id="&lt;Group&gt;">
					<path id="&lt;Path&gt;" class="s3" d="m884.2 293.8c0 0-9.8 4.1-10.2 5.8-0.4 1.6-1.2 5.7 2.5 5.7 3.6 0 10.9-2.9 12.3-5.5 2-3.9-0.9-6.8-4.6-6z"/>
					<path id="&lt;Compound Path&gt;" fill-rule="evenodd" class="s2" d="m876.5 306.3c-1.7 0-2.6-0.7-3-1.3-1-1.2-1.1-3.1-0.5-5.7 0.5-1.7 6.2-4.4 10.8-6.4q0.1 0 0.2 0c2.2-0.5 4.3 0.1 5.5 1.7 1.2 1.5 1.3 3.6 0.2 5.7-1.7 3.2-9.4 6-13.2 6zm8-11.5c-4.2 1.8-9.1 4.2-9.5 5.1-0.7 2.5-0.3 3.5 0 3.8 0.1 0.2 0.4 0.6 1.5 0.6 3.4 0 10.2-2.7 11.4-5 0.7-1.3 0.7-2.6 0-3.5-0.6-0.9-2-1.3-3.4-1z"/>
				</g>
				<g id="&lt;Group&gt;">
					<path id="&lt;Path&gt;" class="s3" d="m883.3 303.1c0 0-9.8 4.1-10.2 5.7-0.4 1.7-1.3 5.7 2.4 5.7 3.7 0 11-2.8 12.3-5.4 2.1-3.9-0.8-6.8-4.5-6z"/>
					<path id="&lt;Compound Path&gt;" fill-rule="evenodd" class="s2" d="m875.5 315.5c-1.6 0-2.5-0.7-3-1.3-0.9-1.2-1.1-3-0.4-5.6 0.4-1.8 6.1-4.5 10.8-6.4q0.1-0.1 0.2-0.1c2.2-0.5 4.3 0.2 5.5 1.7 1.2 1.6 1.2 3.6 0.1 5.7-1.7 3.2-9.4 6-13.2 6zm8.1-11.4c-4.3 1.7-9.1 4.2-9.6 5-0.6 2.5-0.2 3.5 0.1 3.9 0.1 0.1 0.4 0.5 1.4 0.5 3.4 0 10.3-2.7 11.4-4.9 0.8-1.4 0.8-2.7 0.1-3.5-0.7-1-2-1.3-3.4-1z"/>
				</g>
				<g id="&lt;Group&gt;">
					<path id="&lt;Path&gt;" class="s3" d="m882.8 313.4c0 0-7.2 2.9-7.5 4.1-0.3 1.2-0.8 4.2 1.8 4.2 2.7 0 8-2.1 9-4 1.5-2.8-0.6-4.9-3.3-4.3z"/>
					<path id="&lt;Compound Path&gt;" fill-rule="evenodd" class="s2" d="m877.1 322.7c-1.3 0-2-0.6-2.4-1.1-0.7-0.9-0.8-2.3-0.3-4.3 0.1-0.4 0.4-1.7 8-4.9q0.1 0 0.2 0c1.7-0.4 3.3 0.1 4.3 1.3 0.9 1.2 0.9 2.9 0.1 4.5-1.3 2.4-7 4.5-9.9 4.5zm6-8.4c-3 1.3-6.4 3-6.8 3.6-0.4 1.7-0.1 2.3 0 2.5 0.1 0.1 0.2 0.3 0.8 0.3 2.6 0 7.4-2 8.1-3.5 0.5-0.9 0.5-1.7 0.1-2.3-0.5-0.5-1.3-0.8-2.2-0.6z"/>
				</g>
				<g id="&lt;Group&gt;">
					<path id="&lt;Path&gt;" class="s7" d="m852.4 386.2l-22.7-19.4c-6.4 10.7-11.4 19.1-11.4 19.1 0 0-22.5-72.7-24.9-76.3-2.4-3.7-41.2-22.9-41.2-22.9l-40.9-7.4c0 0-49.4 18-54.7 20.5-5.3 2.4-9.8 4.9-10.6 7.7-0.8 2.9-27.3 68.6-27.3 68.6l-15.4-15-19.9 23.4c12.4 21.9 24.4 42.5 26.3 43.9 4.1 2.8 6.5 5.7 9.8 4.4 3.3-1.2 36.3-35.9 36.3-35.9 0 0 4.1 89.4 5.3 93.9 1.3 4.5 4.5 4.1 6.2 4.5 1.6 0.4 45.3 4.9 63.6 4.9 18.4 0 49.9-6.4 55.2-8.5 5.3-2 8.5-4 8.5-10.2 0-6.1-2-58.5-2-58.5 0 0 25.3 22.1 31.4 22.5 6.1 0.4 10.2-2.4 12.3-6.5 1-2.1 8.6-27.6 16.1-52.8z"/>
					<path id="&lt;Compound Path&gt;" fill-rule="evenodd" class="s2" d="m730.9 498.2c-18 0-62.1-4.5-63.9-4.9q-0.4-0.1-0.8-0.2c-1.8-0.2-4.8-0.6-6-5-1.2-4.2-4.6-77.4-5.3-91.8-8 8.4-32 33.3-35.1 34.5-3.1 1.1-5.5-0.7-8.3-2.9q-1.1-0.8-2.4-1.7c-0.7-0.5-2.5-1.8-26.6-44.2-0.2-0.4-0.2-0.9 0.1-1.2l19.9-23.4c0.2-0.2 0.5-0.3 0.8-0.3 0.2 0 0.5 0.1 0.7 0.3l14.3 13.9c9.3-23 26.1-64.9 26.8-67.1 0.8-3.1 5.1-5.6 11.1-8.4 5.3-2.4 52.8-19.7 54.8-20.4q0.3-0.1 0.5 0l40.8 7.3q0.2 0 0.3 0.1c4 2 39.1 19.4 41.6 23.2 2.3 3.5 20.2 60.9 24.4 74.5 1.8-3.1 5.7-9.6 10.2-17.2 0.1-0.3 0.4-0.5 0.7-0.5 0.3-0.1 0.6 0 0.8 0.2l22.7 19.5c0.3 0.2 0.4 0.6 0.3 1-9.8 33.4-15.3 51.2-16.1 52.9-2.5 4.9-7.3 7.5-13.2 7.1-5.6-0.4-24.2-15.9-30.3-21.2 0.4 10.3 1.9 50.8 1.9 56.2 0 7.1-4.1 9.2-9.2 11.2-5.4 2.1-37.1 8.5-55.5 8.5zm-75.1-105.3q0.2 0 0.4 0.1c0.3 0.1 0.6 0.5 0.6 0.9 1.4 30.9 4.3 90.2 5.3 93.7 0.8 3.1 2.7 3.3 4.3 3.6q0.6 0 1.1 0.1c1.8 0.4 45.3 4.9 63.4 4.9 18.2 0 49.5-6.3 54.8-8.4 5.5-2.1 7.9-3.9 7.9-9.3 0-6-2-57.9-2-58.4 0-0.4 0.2-0.8 0.6-1 0.3-0.1 0.7-0.1 1 0.2 10.1 8.8 26.6 21.9 30.9 22.2 5.2 0.4 9.2-1.8 11.3-6 0.4-0.9 3.1-8.9 15.8-51.9l-21.3-18.3c-6 10.2-10.7 18.1-10.7 18.1-0.2 0.3-0.6 0.5-1 0.5-0.4-0.1-0.7-0.3-0.9-0.7-9-29.2-23-73.5-24.7-76.1-1.7-2.5-25.8-15.1-40.7-22.4l-40.5-7.3c-3.8 1.4-49.3 18-54.3 20.3-4.9 2.2-9.4 4.6-10.1 7.1-0.8 2.9-26.3 66-27.4 68.7-0.1 0.3-0.4 0.5-0.7 0.6-0.4 0.1-0.7-0.1-0.9-0.3l-14.6-14.3-18.8 22.1c20.3 35.8 24.8 42.3 25.7 42.9q1.3 1 2.4 1.8c2.9 2.2 4.5 3.4 6.4 2.6 2.3-0.9 23.3-22.4 36-35.7 0.2-0.2 0.5-0.3 0.7-0.3z"/>
				</g>
				<path id="&lt;Path&gt;" class="s2" d="m655.8 394.9c-0.5 0-0.9-0.4-1-0.9l-6.9-62.4c-0.1-0.6 0.3-1.1 0.9-1.1 0.5-0.1 1 0.3 1.1 0.8l6.9 62.5c0.1 0.6-0.3 1.1-0.9 1.1q0 0-0.1 0z"/>
				<path id="&lt;Path&gt;" class="s2" d="m792.6 421q0 0 0 0c-0.6 0-1-0.4-1-1l1.6-81.2c0-0.6 0.5-0.9 1-1 0.6 0 1 0.5 1 1l-1.6 81.3c0 0.5-0.5 0.9-1 0.9z"/>
				<g id="&lt;Group&gt;">
					<path id="&lt;Path&gt;" class="s2" d="m721.1 320.8c11.5 13.9 21.7 25.4 21.7 25.4 0 0 17.4-37.7 22.3-56-7.2-3.7-12.9-6.5-12.9-6.5l-40.9-7.4c0 0-5.4 2-12.9 4.8 3.6 7.8 13.6 28.6 22.7 39.7z"/>
					<path id="&lt;Compound Path&gt;" fill-rule="evenodd" class="s2" d="m742.8 347.2c-0.3 0-0.6-0.2-0.8-0.4-0.1-0.1-10.3-11.6-21.6-25.3-9.2-11.2-19.1-31.7-22.9-40-0.1-0.3-0.1-0.6 0-0.8 0.1-0.3 0.3-0.5 0.6-0.6 7.5-2.7 12.9-4.7 12.9-4.7q0.3-0.1 0.5 0l40.8 7.3q0.2 0 0.3 0.1c0 0 5.8 2.8 13 6.5 0.4 0.3 0.6 0.7 0.5 1.2-4.9 18.1-22.2 55.7-22.4 56.1-0.2 0.3-0.4 0.5-0.8 0.5q0 0.1-0.1 0.1zm-43-65.6c4.1 8.8 13.4 28.1 22.1 38.6 9.2 11.2 17.7 20.9 20.6 24.1 3.1-6.8 16.9-37.3 21.4-53.5-6.2-3.2-11.2-5.7-12-6.1l-40.5-7.3c-1.1 0.4-5.6 2-11.6 4.2z"/>
				</g>
				<path id="&lt;Path&gt;" class="s2" d="m652.5 373c-0.4 0-0.8-0.3-0.9-0.7l-9.8-32.4c-0.2-0.6 0.1-1.1 0.6-1.3 0.6-0.2 1.1 0.1 1.3 0.7l9.8 32.4c0.1 0.5-0.2 1.1-0.7 1.3q-0.1 0-0.3 0z"/>
				<path id="&lt;Path&gt;" class="s2" d="m793.4 394.3q-0.1 0-0.2 0c-0.5-0.1-0.9-0.6-0.8-1.1l7.5-44.5c0.1-0.5 0.7-0.9 1.2-0.8 0.5 0.1 0.9 0.6 0.8 1.2l-7.5 44.4c-0.1 0.5-0.5 0.8-1 0.8z"/>
				<path id="&lt;Path&gt;" class="s2" d="m811.6 397.4q-0.2 0-0.4-0.1c-0.5-0.2-0.7-0.8-0.5-1.3l6.7-13.5c0.3-0.5 0.9-0.7 1.3-0.5 0.5 0.2 0.7 0.8 0.5 1.3l-6.7 13.6c-0.2 0.3-0.5 0.5-0.9 0.5z"/>
				<path id="&lt;Path&gt;" class="s2" d="m627.6 386.3c-0.3 0-0.6-0.1-0.8-0.4l-8.9-12.2c-0.4-0.5-0.3-1.1 0.2-1.4 0.4-0.3 1.1-0.2 1.4 0.2l8.9 12.2c0.4 0.5 0.3 1.1-0.2 1.4q-0.3 0.2-0.6 0.2z"/>
				<path id="&lt;Path&gt;" class="s2" d="m557 321.5q-0.4 0-0.7-0.3c-2.2-1.9-9-6.9-12.7-6.9-4.6 0-14.6 3.9-14.7 4-0.3 0.1-0.7 0.1-0.9-0.1l-5.8-4c-0.5-0.3-0.6-1-0.3-1.4 0.3-0.5 1-0.6 1.4-0.3l5.4 3.7c2.1-0.8 10.5-3.9 14.9-3.9 5.2 0 13.7 7.1 14 7.4 0.4 0.3 0.5 1 0.1 1.4-0.2 0.2-0.4 0.4-0.7 0.4z"/>
			</g>
			<g id="&lt;Group&gt;">
				<g id="&lt;Group&gt;">
					<g id="&lt;Group&gt;">
						<path id="&lt;Path&gt;" class="s11" d="m785.6 208.2c0 0 5.6 17.5 6 23 0.4 5.6-2.3 9-1.9 12.7 0.4 3.7 5.2 11.2 3.7 13.4-1.4 2.3-10.8 4.1-10.8 4.1 0 0-4.1 20.5-8.5 21.2-4.5 0.8-19 0-19 0 0 0-12.7 40.6-14.5 41.8-1.9 1.1-32.5-37.3-32.5-43.2 0-6 8.6-35.4 8.6-35.4l-9.7-30.6c0 0-6.3-10 7.5-18.6 13.8-8.6 42.1-4.1 51-3 8.9 1.1 20.1 14.6 20.1 14.6z"/>
						<path id="&lt;Compound Path&gt;" fill-rule="evenodd" class="s2" d="m740.5 325.4q-0.4 0-0.9-0.3c-4.5-2.5-32.5-37.6-32.5-43.9 0-5.8 7.6-32.2 8.6-35.4l-9.6-30.2c-0.4-0.7-2.3-4.2-1.2-8.8 1-4.2 4-7.9 9.1-11 13.1-8.2 38.7-4.9 49.6-3.4l2 0.2c9.3 1.2 20.3 14.4 20.8 14.9q0.1 0.2 0.2 0.3c0.2 0.8 5.6 17.7 6 23.4 0.2 3.2-0.5 5.6-1.1 7.8-0.5 1.8-0.9 3.3-0.8 4.8 0.2 1.4 1.1 3.5 1.9 5.6 1.5 3.6 2.9 6.7 1.7 8.5-1.5 2.2-8.3 3.8-10.8 4.4-1.2 5.6-4.7 20.6-9.3 21.3-3.9 0.7-15.3 0.2-18.4 0.1-4.8 15.4-12.9 40.4-14.7 41.5q-0.3 0.2-0.6 0.2zm-0.9-132.9c-9.1 0-18.4 1.1-24.6 5-12.7 7.9-7.4 16.8-7.1 17.2q0 0.1 0.1 0.2l9.7 30.6q0.1 0.3 0 0.6c-0.1 0.2-8.6 29.3-8.6 35.1 0 4.8 26.4 38.6 31.1 42 1.9-3.3 9.4-26.4 13.9-40.9 0.2-0.4 0.6-0.7 1-0.7 0.2 0.1 14.5 0.8 18.8 0.1 2.4-0.4 5.9-11 7.8-20.5 0-0.4 0.4-0.7 0.7-0.8 3.7-0.7 9.3-2.3 10.2-3.6 0.6-0.9-0.9-4.3-1.8-6.6-1-2.3-1.9-4.5-2.1-6.2-0.2-1.9 0.3-3.7 0.9-5.5 0.6-2.2 1.2-4.3 1-7.2-0.4-5.1-5.3-20.7-5.9-22.7-1.2-1.4-11.4-13-19.3-14l-2.1-0.3c-5.4-0.7-14.5-1.8-23.7-1.8z"/>
					</g>
					<path id="&lt;Path&gt;" class="s2" d="m788.2 232.6c-0.4 0-0.8-0.3-0.9-0.7 0 0-0.9-2.6-3.2-3.4q-2.6-0.8-6.4 2.1c-0.5 0.3-1.1 0.2-1.4-0.3-0.4-0.4-0.3-1 0.2-1.3 3.1-2.4 5.9-3.1 8.3-2.4 3.2 1.1 4.3 4.6 4.4 4.7 0.1 0.5-0.1 1.1-0.7 1.3q-0.1 0-0.3 0z"/>
					<path id="&lt;Path&gt;" class="s2" d="m783.7 240.9c0 2.6-1.1 4.7-2.5 4.7-1.5 0-2.6-2.1-2.6-4.7 0-2.5 1.1-4.6 2.6-4.6 1.4 0 2.5 2.1 2.5 4.6z"/>
					<path id="&lt;Path&gt;" class="s2" d="m775.9 265q0 0-0.1 0c-4.4-0.4-7.2-3.5-7.3-3.7-0.4-0.4-0.3-1 0.1-1.4 0.4-0.3 1-0.3 1.4 0.1 0 0 2.4 2.7 6 3 0.6 0.1 1 0.6 0.9 1.1 0 0.5-0.4 0.9-1 0.9z"/>
					<g id="&lt;Group&gt;">
						<path id="&lt;Path&gt;" class="s2" d="m755.1 282.6l-11.2-4.1 7.5 13.8z"/>
						<path id="&lt;Compound Path&gt;" fill-rule="evenodd" class="s2" d="m751.4 293.3c-0.4 0-0.7-0.2-0.9-0.5l-7.5-13.8c-0.2-0.3-0.1-0.8 0.2-1.1 0.2-0.3 0.7-0.4 1.1-0.3l11.1 4.1q0.4 0.2 0.6 0.5 0.2 0.4 0 0.8l-3.7 9.7c-0.2 0.4-0.5 0.6-0.9 0.6q0 0 0 0zm-5.4-12.9l5.2 9.5 2.6-6.7z"/>
					</g>
					<path id="&lt;Path&gt;" class="s2" d="m737.6 260.2q-0.1 0-0.1 0c-0.6-0.1-1-0.6-0.9-1.1l0.6-8c-1.3-0.1-3.9-0.5-5.5-1-2.5-0.9-4.5-3.6-4.6-3.7-0.3-0.5-0.2-1.1 0.2-1.4 0.5-0.4 1.1-0.3 1.4 0.2 0 0 1.7 2.3 3.6 3 2.1 0.7 6.1 1 6.1 1 0.6 0.1 1 0.6 0.9 1.1l-0.7 9c-0.1 0.5-0.5 0.9-1 0.9z"/>
				</g>
				<g id="&lt;Group&gt;">
					<path id="&lt;Path&gt;" class="s2" d="m728 230.3c3.4-2.4 8.1-1 10.2 2.6 0.4 0.7 0.8 1.2 1.2 1.3 1.5 0.4 4.5 2.3 6-0.7 1.5-3-0.4-9.7 1.5-11.6 1.8-1.8 8.6-1.8 9.3-4.8 0.7-3-6-11.2-4.1-13 1.9-1.9 25.7 5.5 29.8 6.3 4.1 0.7 19.4-7.5 20.5-19.8 1.1-12.2-10.1-23.8-18.6-21.6-8.6 2.3-14.9 3.8-26.9 9-11.9 5.2-38.7 3-49.1 17.5-10.5 14.5-2.3 36.1 0.3 39.5 2.7 3.3 7.1 16.7 11.6 16 4.5-0.8 8.2-5.2 8.2-5.2 0 0-5.9-11.1 0.1-15.5z"/>
					<path id="&lt;Compound Path&gt;" fill-rule="evenodd" class="s2" d="m719.3 252c-3.6 0-6.5-6-9.2-11.3-1-2.2-2-4.2-2.7-5.1-2.7-3.4-11.3-25.5-0.4-40.7 7.1-10 21.3-12.2 33.9-14.2 6-1 11.7-1.9 15.6-3.6 11.2-4.9 17.4-6.5 25.3-8.6l1.7-0.4c3.7-1 8 0.3 11.8 3.6 5.5 4.6 8.7 12.1 8.1 19-0.7 7.7-6.5 13.2-9.9 15.8-4.3 3.3-9.3 5.3-11.8 4.9-1.2-0.2-3.9-1-7.4-1.9-6.4-1.8-19.8-5.5-21.6-4.7-0.3 0.6 1.4 3.8 2.1 5.3 1.5 2.8 2.8 5.5 2.4 7.2-0.6 2.4-3.5 3.2-6.1 3.9-1.4 0.4-2.9 0.9-3.5 1.4-0.7 0.7-0.6 3-0.6 5 0.1 2.3 0.1 4.7-0.7 6.3-1.6 3.3-4.8 2.1-6.3 1.6q-0.4-0.2-0.8-0.3c-0.7-0.2-1.3-0.7-1.9-1.8-0.9-1.6-2.6-2.8-4.4-3.1-1.5-0.4-3.1 0-4.3 0.9-5.2 3.8 0.1 14 0.2 14.1 0.2 0.4 0.1 0.8-0.1 1.1-0.2 0.2-4.1 4.8-8.8 5.6q-0.3 0-0.6 0zm66.7-82.2q-1 0-2 0.2l-1.7 0.5c-7.8 2-13.9 3.6-25 8.4-4.1 1.8-9.9 2.7-16.1 3.7-12.2 2-25.9 4.2-32.6 13.5-10.2 14.2-1.8 35.5 0.3 38.3 0.9 1.1 1.9 3.1 3 5.4 2 3.9 5.3 10.6 7.6 10.2 3.3-0.5 6.1-3.3 7.2-4.4-1.2-2.5-5.1-11.8 0.7-16.1 1.7-1.2 3.8-1.6 5.9-1.2 2.4 0.5 4.5 2 5.7 4.1 0.5 0.7 0.7 0.9 0.7 0.9 0.3 0 0.6 0.2 1 0.3 2.1 0.8 3.1 0.8 3.8-0.6 0.6-1.2 0.6-3.3 0.5-5.3 0-2.7-0.1-5.2 1.2-6.5 0.9-0.9 2.6-1.4 4.4-1.9 2-0.6 4.3-1.3 4.6-2.5 0.3-1-1.1-3.6-2.1-5.8-1.7-3.3-3.2-6.2-1.7-7.7 1.4-1.3 6.4-0.4 23.4 4.2 3.3 0.9 6.2 1.7 7.3 1.9 1.4 0.3 5.6-1 10.2-4.5 3.1-2.4 8.5-7.4 9.1-14.3 0.6-6.3-2.3-13.1-7.4-17.4-2.6-2.2-5.4-3.4-8-3.4zm-58 60.5z"/>
				</g>
			</g>
		</g>
	</g>
</svg>