<svg version="1.2" xmlns="http://www.w3.org/2000/svg" viewBox="0 0 352 352" width="352" height="352">
	<title>nvidia-logo-svgrepo-com</title>
	<style>
		.s0 { fill: #77b900 } 
	</style>
	<path class="s0" d="m77.2 164.4c0 0 22.5-33.2 67.4-36.6v-12.1c-49.7 4-92.8 46.2-92.8 46.2 0 0 24.4 70.5 92.8 77v-12.8c-50.2-6.3-67.4-61.7-67.4-61.7zm67.4 36.2v11.8c-37.9-6.8-48.5-46.3-48.5-46.3 0 0 18.3-20.2 48.5-23.4v12.8q0 0 0 0c-15.9-1.9-28.3 13-28.3 13 0 0 6.9 24.9 28.3 32.1zm0-107.1v22.2q2.2-0.1 4.4-0.2c56.6-1.9 93.5 46.4 93.5 46.4 0 0-42.4 51.5-86.5 51.5-4 0-7.8-0.4-11.4-1v13.7q1.2 0.2 2.4 0.3 1.2 0.1 2.4 0.2 1.2 0 2.4 0.1 1.1 0 2.3 0c41.1 0 70.8-21 99.5-45.8 4.8 3.9 24.3 13.1 28.3 17.2-27.3 22.9-91 41.3-127.1 41.3-3.5 0-6.9-0.2-10.2-0.5v19.3h156.1v-164.7zm0 49.2v-14.9q2.1-0.2 4.4-0.2c40.7-1.3 67.4 34.9 67.4 34.9 0 0-28.9 40.1-59.8 40.1-4.4 0-8.4-0.8-12-2v-45.1c15.8 1.9 19 8.9 28.5 24.8l21.2-17.9c0 0-15.5-20.2-41.5-20.2-2.8 0-5.6 0.2-8.2 0.5z"/>
</svg>