<svg version="1.2" xmlns="http://www.w3.org/2000/svg" viewBox="0 0 401 351" width="500" height="438">
	<title>validate_idea_c3c8c77932</title>
	<style>
		.s0 { fill: none;stroke: #16161c;stroke-miterlimit:10 } 
		.s1 { fill: #16161c } 
		.s2 { fill: #ffffff;stroke: #16161c;stroke-miterlimit:10 } 
	</style>
	<path class="s0" d="m33 258.5h61.8"/>
	<path class="s0" d="m63.9 227.6v61.8"/>
	<path class="s0" d="m63.9 289.4c0 0 10.3-13.6 10.3-30.9 0-17.2-10.3-30.9-10.3-30.9"/>
	<path class="s0" d="m63.9 289.4c17.1 0 30.9-13.8 30.9-30.9 0-17-13.8-30.9-30.9-30.9-17.1 0-30.9 13.9-30.9 30.9 0 17.1 13.8 30.9 30.9 30.9z"/>
	<path class="s0" d="m63.9 289.4c0 0 20.6-6.9 20.6-30.9 0-24-20.6-30.9-20.6-30.9"/>
	<path class="s0" d="m63.9 289.4c0 0-10.3-13.6-10.3-30.9 0-17.2 10.3-30.9 10.3-30.9"/>
	<path class="s0" d="m63.9 289.4c0 0-20.6-6.9-20.6-30.9 0-24 20.6-30.9 20.6-30.9"/>
	<path class="s0" d="m36.3 272.4c3.3-1.5 12.1-4.5 27.6-4.5 15.5 0 24.3 3 27.6 4.5"/>
	<path class="s0" d="m43.6 281.8c3.2-1.5 9.5-3.6 20.3-3.6 10.7 0 17 2 20.3 3.5"/>
	<path class="s0" d="m36.3 244.7c3.3 1.4 12.1 4.4 27.6 4.4 15.5 0 24.3-3 27.6-4.4"/>
	<path class="s0" d="m43.6 235.3c3.2 1.5 9.5 3.5 20.3 3.5 10.7 0 17-2 20.3-3.5"/>
	<path class="s0" d="m33 258.5h61.8"/>
	<path class="s0" d="m63.9 227.6v61.8"/>
	<path class="s0" d="m63.9 289.4c0 0 10.3-13.6 10.3-30.9 0-17.2-10.3-30.9-10.3-30.9"/>
	<path class="s0" d="m63.9 289.4c17.1 0 30.9-13.8 30.9-30.9 0-17-13.8-30.9-30.9-30.9-17.1 0-30.9 13.9-30.9 30.9 0 17.1 13.8 30.9 30.9 30.9z"/>
	<path class="s0" d="m63.9 289.4c0 0 20.6-6.9 20.6-30.9 0-24-20.6-30.9-20.6-30.9"/>
	<path class="s0" d="m63.9 289.4c0 0-10.3-13.6-10.3-30.9 0-17.2 10.3-30.9 10.3-30.9"/>
	<path class="s0" d="m63.9 289.4c0 0-20.6-6.9-20.6-30.9 0-24 20.6-30.9 20.6-30.9"/>
	<path class="s0" d="m36.3 272.4c3.3-1.5 12.1-4.5 27.6-4.5 15.5 0 24.3 3 27.6 4.5"/>
	<path class="s0" d="m43.6 281.8c3.2-1.5 9.5-3.6 20.3-3.6 10.7 0 17 2 20.3 3.5"/>
	<path class="s0" d="m36.3 244.7c3.3 1.4 12.1 4.4 27.6 4.4 15.5 0 24.3-3 27.6-4.4"/>
	<path class="s0" d="m43.6 235.3c3.2 1.5 9.5 3.5 20.3 3.5 10.7 0 17-2 20.3-3.5"/>
	<path class="s0" d="m325.9 306c17 0 30.9-13.8 30.9-30.9 0-17.1-13.9-30.9-30.9-30.9-17.1 0-30.9 13.8-30.9 30.9 0 17.1 13.8 30.9 30.9 30.9z"/>
	<path class="s0" d="m346.5 282.3c-3 8.5-11.1 14.7-20.6 14.7-9.6 0-17.7-6.2-20.7-14.7"/>
	<path class="s0" d="m344.5 281.9c0 0 1.7 0.9 3.7 0.8"/>
	<path class="s0" d="m307.1 281.9c0 0-1.8 0.9-3.7 0.8"/>
	<path class="s1" d="m333.6 276.9c2.7 0 4.9-4.7 4.9-10.4 0-5.8-2.2-10.5-4.9-10.5-2.8 0-5 4.7-5 10.5 0 5.7 2.2 10.4 5 10.4z"/>
	<path class="s1" d="m318.1 276.9c2.8 0 5-4.7 5-10.4 0-5.8-2.2-10.5-5-10.5-2.7 0-4.9 4.7-4.9 10.5 0 5.7 2.2 10.4 4.9 10.4z"/>
	<path class="s0" d="m91.9 95v56.7c0 4.3 3.5 7.8 7.8 7.8h49.7c4.4 0 7.8 3.5 7.8 7.8v27.4c0 4.3 3.5 7.8 7.8 7.8h53c4.3 0 7.8 3.5 7.8 7.8v19.7c0 4.3 3.5 7.8 7.8 7.8h67.6"/>
	<path class="s0" d="m289.3 127.4v82.1c0 4.3-3.5 7.8-7.8 7.8h-57.6c-4.3 0-7.8 3.5-7.8 7.8v23.8c0 4.3-3.5 7.8-7.8 7.8h-96.7c-4.3 0-7.8-3.5-7.8-7.8v-46.9c0-4.3-3.5-7.8-7.8-7.8h-37.7"/>
	<path class="s0" d="m128.4 123.2v96.6c0 4.4 3.5 7.8 7.8 7.8h53.2c4.3 0 7.8-3.4 7.8-7.8v-27.9c0-4.3 3.5-7.8 7.8-7.8h114.2"/>
	<path class="s1" d="m289.3 129.8c1.2 0 2.3-1.1 2.3-2.4 0-1.3-1.1-2.3-2.3-2.3-1.3 0-2.4 1-2.4 2.3 0 1.3 1.1 2.4 2.4 2.4z"/>
	<path class="s1" d="m319.2 186.5c1.3 0 2.3-1.1 2.3-2.4 0-1.3-1-2.3-2.3-2.3-1.3 0-2.3 1-2.3 2.3 0 1.3 1 2.4 2.3 2.4z"/>
	<path class="s1" d="m301.2 240.1c1.3 0 2.4-1 2.4-2.3 0-1.3-1.1-2.4-2.4-2.4-1.3 0-2.3 1.1-2.3 2.4 0 1.3 1 2.3 2.3 2.3z"/>
	<path class="s1" d="m58.3 196.6c1.3 0 2.3-1.1 2.3-2.4 0-1.2-1-2.3-2.3-2.3-1.3 0-2.3 1.1-2.3 2.3 0 1.3 1 2.4 2.3 2.4z"/>
	<path class="s1" d="m128.4 125.5c1.3 0 2.3-1 2.3-2.3 0-1.3-1-2.3-2.3-2.3-1.3 0-2.4 1-2.4 2.3 0 1.3 1.1 2.3 2.4 2.3z"/>
	<path class="s1" d="m91.9 97.3c1.3 0 2.3-1 2.3-2.3 0-1.3-1-2.3-2.3-2.3-1.3 0-2.4 1-2.4 2.3 0 1.3 1.1 2.3 2.4 2.3z"/>
	<path class="s0" d="m212.8 165.4c22 0 39.9-17.9 39.9-40 0-22.1-17.9-40-39.9-40-22.1 0-40 17.9-40 40 0 22.1 17.9 40 40 40z"/>
	<path class="s0" d="m212.8 176.8c28.4 0 51.4-23 51.4-51.4 0-28.4-23-51.4-51.4-51.4-28.4 0-51.4 23-51.4 51.4 0 28.4 23 51.4 51.4 51.4z"/>
	<path class="s0" d="m195.3 142.8l34.9-34.9"/>
	<path class="s0" d="m204.6 141.8l22.7-22.8"/>
	<path class="s0" d="m179.2 164.3l-14.8 14.8-5.3-5.4 14.7-14.7"/>
	<path class="s2" d="m156.6 171.3l10.3 10.2-41.2 41.2c-2.9 2.9-7.5 2.9-10.3 0-2.8-2.8-2.8-7.4 0-10.2z"/>
	<path class="s1" d="m154.1 71.6v20h1.1v-20q-0.3 0-0.5 0-0.3 0-0.6 0z"/>
	<path class="s1" d="m155.2 63v-20h-1.1v20q0.3-0.1 0.6-0.1 0.2 0 0.5 0.1z"/>
	<path class="s1" d="m159 67.8h19.9v-1.1h-19.9q0 0.3 0 0.6 0 0.3 0 0.5z"/>
	<path class="s1" d="m150.4 66.7h-20v1.1h20q-0.1-0.2-0.1-0.5 0-0.3 0.1-0.6z"/>
	<path class="s1" d="m152 63.8l-14.1-14.1-0.8 0.8 14.1 14.1q0.4-0.4 0.8-0.8z"/>
	<path class="s1" d="m157.3 70.7l14.1 14.1 0.8-0.7-14.1-14.2q-0.3 0.5-0.8 0.8z"/>
	<path class="s1" d="m158.1 64.6l14.1-14.1-0.8-0.8-14.1 14.2q0.5 0.3 0.8 0.7z"/>
	<path class="s1" d="m151.2 69.9l-14.1 14.2 0.8 0.7 14.1-14.1q-0.4-0.3-0.8-0.8z"/>
	<path class="s1" d="m61.7 139.8l2.9 7.4 7.4 2.8-7.4 2.9-2.9 7.4-2.8-7.4-7.4-2.9 7.4-2.8z"/>
	<path class="s1" d="m230.2 248.3l2.9 7.4 7.4 2.8-7.4 2.9-2.9 7.4-2.8-7.4-7.4-2.9 7.4-2.8z"/>
	<path class="s1" d="m274.5 70.1l2.8 7.4 7.4 2.9-7.4 2.8-2.8 7.4-2.9-7.4-7.4-2.8 7.4-2.9z"/>
	<path class="s1" d="m338.7 103.3h-1.4v60.1h1.4z"/>
	<path class="s1" d="m368.1 134v-1.3h-60.2v1.3z"/>
	<path class="s1" d="m317.2 111.6l-1 1 42.6 42.5 0.9-0.9z"/>
	<path class="s1" d="m359.8 112.6l-1-1-42.6 42.6 1 0.9z"/>
	<path class="s1" d="m338 138.7c2.9 0 5.4-2.4 5.4-5.3 0-3-2.5-5.4-5.4-5.4-3 0-5.4 2.4-5.4 5.4 0 2.9 2.4 5.3 5.4 5.3z"/>
</svg>